<svg width="115" height="59" viewBox="0 0 115 59" fill="none" xmlns="http://www.w3.org/2000/svg">
<rect x="26" y="31" width="62" height="28" rx="14" fill="#FFE3E3"/>
<path d="M44.6628 44.2628V45.5554H40.1486V44.2628H44.6628ZM46.2104 48.0114V46.7685L50.6102 39.8182H51.5896V41.6477H50.9682L47.8211 46.6293V46.7088H53.8517V48.0114H46.2104ZM51.0378 50V47.6335L51.0477 47.0668V39.8182H52.5044V50H51.0378ZM58.929 50.169C58.1435 50.1657 57.4724 49.9586 56.9155 49.5476C56.3587 49.1366 55.9328 48.5384 55.6378 47.7528C55.3429 46.9673 55.1954 46.0211 55.1954 44.9141C55.1954 43.8104 55.3429 42.8674 55.6378 42.0852C55.9361 41.303 56.3637 40.7064 56.9205 40.2955C57.4806 39.8845 58.1501 39.679 58.929 39.679C59.7079 39.679 60.3758 39.8861 60.9326 40.3004C61.4894 40.7114 61.9153 41.308 62.2103 42.0902C62.5086 42.8691 62.6577 43.8104 62.6577 44.9141C62.6577 46.0244 62.5102 46.9723 62.2153 47.7578C61.9203 48.54 61.4944 49.1383 60.9376 49.5526C60.3807 49.9635 59.7112 50.169 58.929 50.169ZM58.929 48.8416C59.6184 48.8416 60.157 48.5052 60.5448 47.8324C60.9359 47.1596 61.1314 46.1868 61.1314 44.9141C61.1314 44.0689 61.042 43.3546 60.863 42.7713C60.6873 42.1847 60.4338 41.7405 60.1023 41.4389C59.7742 41.134 59.3831 40.9815 58.929 40.9815C58.243 40.9815 57.7044 41.3196 57.3133 41.9957C56.9222 42.6719 56.725 43.6446 56.7216 44.9141C56.7216 45.7625 56.8095 46.4801 56.9851 47.0668C57.1641 47.6501 57.4177 48.0926 57.7458 48.3942C58.0739 48.6925 58.4683 48.8416 58.929 48.8416ZM69.536 48.0909V47.554C69.536 47.1695 69.6156 46.8182 69.7747 46.5C69.9371 46.1785 70.1724 45.9216 70.4806 45.7294C70.7922 45.5339 71.1684 45.4361 71.6092 45.4361C72.0599 45.4361 72.4378 45.5322 72.7427 45.7244C73.0476 45.9167 73.278 46.1735 73.4338 46.495C73.5928 46.8165 73.6724 47.1695 73.6724 47.554V48.0909C73.6724 48.4754 73.5928 48.8284 73.4338 49.1499C73.2747 49.468 73.041 49.7249 72.7328 49.9205C72.4278 50.1127 72.0533 50.2088 71.6092 50.2088C71.1617 50.2088 70.7839 50.1127 70.4757 49.9205C70.1674 49.7249 69.9338 49.468 69.7747 49.1499C69.6156 48.8284 69.536 48.4754 69.536 48.0909ZM70.6944 47.554V48.0909C70.6944 48.3759 70.7624 48.6345 70.8982 48.8665C71.0341 49.0985 71.2711 49.2145 71.6092 49.2145C71.9439 49.2145 72.1776 49.0985 72.3102 48.8665C72.4427 48.6345 72.509 48.3759 72.509 48.0909V47.554C72.509 47.2689 72.4444 47.0104 72.3151 46.7784C72.1892 46.5464 71.9539 46.4304 71.6092 46.4304C71.2777 46.4304 71.0424 46.5464 70.9032 46.7784C70.764 47.0104 70.6944 47.2689 70.6944 47.554ZM64.4153 42.2642V41.7273C64.4153 41.3428 64.4948 40.9898 64.6539 40.6683C64.8163 40.3468 65.0517 40.09 65.3599 39.8977C65.6714 39.7055 66.0476 39.6094 66.4884 39.6094C66.9392 39.6094 67.317 39.7055 67.622 39.8977C67.9269 40.09 68.1572 40.3468 68.313 40.6683C68.4688 40.9898 68.5467 41.3428 68.5467 41.7273V42.2642C68.5467 42.6487 68.4671 43.0017 68.308 43.3232C68.1523 43.6413 67.9203 43.8982 67.612 44.0938C67.3071 44.286 66.9326 44.3821 66.4884 44.3821C66.0377 44.3821 65.6582 44.286 65.3499 44.0938C65.045 43.8982 64.813 43.6413 64.6539 43.3232C64.4948 43.0017 64.4153 42.6487 64.4153 42.2642ZM65.5786 41.7273V42.2642C65.5786 42.5492 65.6449 42.8078 65.7775 43.0398C65.9134 43.2718 66.1504 43.3878 66.4884 43.3878C66.8199 43.3878 67.0519 43.2718 67.1845 43.0398C67.3204 42.8078 67.3883 42.5492 67.3883 42.2642V41.7273C67.3883 41.4422 67.3237 41.1837 67.1944 40.9517C67.0651 40.7197 66.8298 40.6037 66.4884 40.6037C66.157 40.6037 65.9217 40.7197 65.7825 40.9517C65.6466 41.1837 65.5786 41.4422 65.5786 41.7273ZM64.8876 50L71.8876 39.8182H73.0758L66.0758 50H64.8876Z" fill="#EB001B"/>
<path d="M10.007 10C9.882 9.61742 9.71722 9.27462 9.51268 8.97159C9.31192 8.66477 9.07139 8.40341 8.79109 8.1875C8.51457 7.97159 8.20018 7.80682 7.84791 7.69318C7.49563 7.57955 7.10927 7.52273 6.68881 7.52273C5.99942 7.52273 5.37253 7.70076 4.80813 8.05682C4.24374 8.41288 3.79488 8.9375 3.46154 9.63068C3.12821 10.3239 2.96154 11.1742 2.96154 12.1818C2.96154 13.1894 3.1301 14.0398 3.46722 14.733C3.80435 15.4261 4.26078 15.9508 4.83654 16.3068C5.4123 16.6629 6.06003 16.8409 6.77972 16.8409C7.44639 16.8409 8.03351 16.6989 8.54109 16.4148C9.05245 16.1269 9.45018 15.7216 9.73427 15.1989C10.0221 14.6723 10.1661 14.053 10.1661 13.3409L10.5979 13.4318H7.09791V12.1818H11.5297V13.4318C11.5297 14.3902 11.3252 15.2235 10.9161 15.9318C10.5108 16.6402 9.95018 17.1894 9.23427 17.5795C8.52215 17.9659 7.70397 18.1591 6.77972 18.1591C5.74942 18.1591 4.84412 17.9167 4.06381 17.4318C3.2873 16.947 2.68124 16.2576 2.24563 15.3636C1.81381 14.4697 1.59791 13.4091 1.59791 12.1818C1.59791 11.2614 1.72101 10.4337 1.96722 9.69886C2.21722 8.96023 2.5695 8.33144 3.02404 7.8125C3.47859 7.29356 4.01647 6.89583 4.63768 6.61932C5.25889 6.3428 5.9426 6.20455 6.68881 6.20455C7.30245 6.20455 7.87442 6.29735 8.40472 6.48295C8.93881 6.66477 9.41419 6.92424 9.83086 7.26136C10.2513 7.5947 10.6017 7.99432 10.882 8.46023C11.1623 8.92235 11.3555 9.43561 11.4615 10H10.007ZM17.1067 18.1818C16.3188 18.1818 15.6275 17.9943 15.0328 17.6193C14.4419 17.2443 13.9798 16.7197 13.6465 16.0455C13.3169 15.3712 13.1522 14.5833 13.1522 13.6818C13.1522 12.7727 13.3169 11.9792 13.6465 11.3011C13.9798 10.6231 14.4419 10.0966 15.0328 9.72159C15.6275 9.34659 16.3188 9.15909 17.1067 9.15909C17.8946 9.15909 18.584 9.34659 19.1749 9.72159C19.7696 10.0966 20.2317 10.6231 20.5613 11.3011C20.8946 11.9792 21.0613 12.7727 21.0613 13.6818C21.0613 14.5833 20.8946 15.3712 20.5613 16.0455C20.2317 16.7197 19.7696 17.2443 19.1749 17.6193C18.584 17.9943 17.8946 18.1818 17.1067 18.1818ZM17.1067 16.9773C17.7052 16.9773 18.1976 16.8239 18.584 16.517C18.9703 16.2102 19.2563 15.8068 19.4419 15.3068C19.6275 14.8068 19.7203 14.2652 19.7203 13.6818C19.7203 13.0985 19.6275 12.5549 19.4419 12.0511C19.2563 11.5473 18.9703 11.1402 18.584 10.8295C18.1976 10.5189 17.7052 10.3636 17.1067 10.3636C16.5082 10.3636 16.0158 10.5189 15.6294 10.8295C15.2431 11.1402 14.9571 11.5473 14.7715 12.0511C14.5859 12.5549 14.4931 13.0985 14.4931 13.6818C14.4931 14.2652 14.5859 14.8068 14.7715 15.3068C14.9571 15.8068 15.2431 16.2102 15.6294 16.517C16.0158 16.8239 16.5082 16.9773 17.1067 16.9773ZM23.09 18V6.36364H27.0218C27.9346 6.36364 28.6809 6.52841 29.2604 6.85795C29.8437 7.18371 30.2756 7.625 30.5559 8.18182C30.8362 8.73864 30.9763 9.35985 30.9763 10.0455C30.9763 10.7311 30.8362 11.3542 30.5559 11.9148C30.2793 12.4754 29.8513 12.9223 29.2718 13.2557C28.6922 13.5852 27.9498 13.75 27.0445 13.75H24.2263V12.5H26.999C27.624 12.5 28.1259 12.392 28.5047 12.1761C28.8835 11.9602 29.1581 11.6686 29.3286 11.3011C29.5028 10.9299 29.59 10.5114 29.59 10.0455C29.59 9.57955 29.5028 9.16288 29.3286 8.79545C29.1581 8.42803 28.8816 8.14015 28.499 7.93182C28.1165 7.7197 27.6089 7.61364 26.9763 7.61364H24.499V18H23.09ZM32.8644 18V9.27273H34.1598V10.5909H34.2507C34.4098 10.1591 34.6977 9.80871 35.1144 9.53977C35.531 9.27083 36.0007 9.13636 36.5235 9.13636C36.622 9.13636 36.7451 9.13826 36.8928 9.14205C37.0405 9.14583 37.1523 9.15152 37.228 9.15909V10.5227C37.1826 10.5114 37.0784 10.4943 36.9155 10.4716C36.7564 10.4451 36.5879 10.4318 36.4098 10.4318C35.9856 10.4318 35.6068 10.5208 35.2735 10.6989C34.9439 10.8731 34.6826 11.1155 34.4894 11.4261C34.3 11.733 34.2053 12.0833 34.2053 12.4773V18H32.8644ZM41.8973 18.1818C41.1095 18.1818 40.4182 17.9943 39.8235 17.6193C39.2326 17.2443 38.7704 16.7197 38.4371 16.0455C38.1076 15.3712 37.9428 14.5833 37.9428 13.6818C37.9428 12.7727 38.1076 11.9792 38.4371 11.3011C38.7704 10.6231 39.2326 10.0966 39.8235 9.72159C40.4182 9.34659 41.1095 9.15909 41.8973 9.15909C42.6852 9.15909 43.3746 9.34659 43.9655 9.72159C44.5602 10.0966 45.0223 10.6231 45.3519 11.3011C45.6852 11.9792 45.8519 12.7727 45.8519 13.6818C45.8519 14.5833 45.6852 15.3712 45.3519 16.0455C45.0223 16.7197 44.5602 17.2443 43.9655 17.6193C43.3746 17.9943 42.6852 18.1818 41.8973 18.1818ZM41.8973 16.9773C42.4958 16.9773 42.9882 16.8239 43.3746 16.517C43.761 16.2102 44.047 15.8068 44.2326 15.3068C44.4182 14.8068 44.511 14.2652 44.511 13.6818C44.511 13.0985 44.4182 12.5549 44.2326 12.0511C44.047 11.5473 43.761 11.1402 43.3746 10.8295C42.9882 10.5189 42.4958 10.3636 41.8973 10.3636C41.2989 10.3636 40.8064 10.5189 40.4201 10.8295C40.0337 11.1402 39.7477 11.5473 39.5621 12.0511C39.3765 12.5549 39.2837 13.0985 39.2837 13.6818C39.2837 14.2652 39.3765 14.8068 39.5621 15.3068C39.7477 15.8068 40.0337 16.2102 40.4201 16.517C40.8064 16.8239 41.2989 16.9773 41.8973 16.9773ZM55.5442 18.1818C54.726 18.1818 54.0215 17.9886 53.4306 17.6023C52.8397 17.2159 52.3851 16.6837 52.0669 16.0057C51.7488 15.3277 51.5897 14.553 51.5897 13.6818C51.5897 12.7955 51.7525 12.0133 52.0783 11.3352C52.4078 10.6534 52.8662 10.1212 53.4533 9.73864C54.0442 9.35227 54.7336 9.15909 55.5215 9.15909C56.1351 9.15909 56.6882 9.27273 57.1806 9.5C57.673 9.72727 58.0764 10.0455 58.3908 10.4545C58.7052 10.8636 58.9003 11.3409 58.976 11.8864H57.6351C57.5328 11.4886 57.3056 11.1364 56.9533 10.8295C56.6048 10.5189 56.1351 10.3636 55.5442 10.3636C55.0215 10.3636 54.5632 10.5 54.1692 10.7727C53.7791 11.0417 53.4741 11.4223 53.2544 11.9148C53.0385 12.4034 52.9306 12.9773 52.9306 13.6364C52.9306 14.3106 53.0366 14.8977 53.2488 15.3977C53.4647 15.8977 53.7677 16.286 54.1578 16.5625C54.5518 16.839 55.0139 16.9773 55.5442 16.9773C55.8927 16.9773 56.209 16.9167 56.4931 16.7955C56.7772 16.6742 57.0177 16.5 57.2147 16.2727C57.4116 16.0455 57.5518 15.7727 57.6351 15.4545H58.976C58.9003 15.9697 58.7128 16.4337 58.4135 16.8466C58.1181 17.2557 57.726 17.5814 57.2374 17.8239C56.7525 18.0625 56.1882 18.1818 55.5442 18.1818ZM63.3044 18.2045C62.7514 18.2045 62.2495 18.1004 61.7988 17.892C61.348 17.6799 60.99 17.375 60.7249 16.9773C60.4597 16.5758 60.3272 16.0909 60.3272 15.5227C60.3272 15.0227 60.4257 14.6174 60.6226 14.3068C60.8196 13.9924 61.0828 13.7462 61.4124 13.5682C61.7419 13.3902 62.1056 13.2576 62.5033 13.1705C62.9048 13.0795 63.3082 13.0076 63.7135 12.9545C64.2438 12.8864 64.6738 12.8352 65.0033 12.8011C65.3366 12.7633 65.5791 12.7008 65.7306 12.6136C65.8859 12.5265 65.9635 12.375 65.9635 12.1591V12.1136C65.9635 11.553 65.8101 11.1174 65.5033 10.8068C65.2003 10.4962 64.74 10.3409 64.1226 10.3409C63.4825 10.3409 62.9806 10.4811 62.6169 10.7614C62.2533 11.0417 61.9976 11.3409 61.8499 11.6591L60.5772 11.2045C60.8044 10.6742 61.1075 10.2614 61.4863 9.96591C61.8688 9.66667 62.2855 9.45833 62.7363 9.34091C63.1908 9.2197 63.6378 9.15909 64.0772 9.15909C64.3575 9.15909 64.6794 9.19318 65.0431 9.26136C65.4105 9.32576 65.7647 9.46023 66.1056 9.66477C66.4503 9.86932 66.7363 10.178 66.9635 10.5909C67.1908 11.0038 67.3044 11.5568 67.3044 12.25V18H65.9635V16.8182H65.8953C65.8044 17.0076 65.6529 17.2102 65.4408 17.4261C65.2287 17.642 64.9465 17.8258 64.5942 17.9773C64.2419 18.1288 63.812 18.2045 63.3044 18.2045ZM63.509 17C64.0393 17 64.4863 16.8958 64.8499 16.6875C65.2173 16.4792 65.4938 16.2102 65.6794 15.8807C65.8688 15.5511 65.9635 15.2045 65.9635 14.8409V13.6136C65.9067 13.6818 65.7817 13.7443 65.5885 13.8011C65.3991 13.8542 65.1794 13.9015 64.9294 13.9432C64.6832 13.9811 64.4427 14.0152 64.2078 14.0455C63.9768 14.072 63.7893 14.0947 63.6453 14.1136C63.2969 14.1591 62.9711 14.233 62.6681 14.3352C62.3688 14.4337 62.1264 14.5833 61.9408 14.7841C61.759 14.9811 61.6681 15.25 61.6681 15.5909C61.6681 16.0568 61.8404 16.4091 62.1851 16.6477C62.5336 16.8826 62.9749 17 63.509 17ZM69.5519 18V9.27273H70.8473V10.6364H70.961C71.1428 10.1705 71.4364 9.80871 71.8417 9.55114C72.247 9.28977 72.7337 9.15909 73.3019 9.15909C73.8776 9.15909 74.3568 9.28977 74.7394 9.55114C75.1258 9.80871 75.4269 10.1705 75.6428 10.6364H75.7337C75.9572 10.1856 76.2924 9.82765 76.7394 9.5625C77.1864 9.29356 77.7223 9.15909 78.3473 9.15909C79.1276 9.15909 79.7659 9.40341 80.2621 9.89205C80.7583 10.3769 81.0064 11.1326 81.0064 12.1591V18H79.6655V12.1591C79.6655 11.5152 79.4894 11.0549 79.1371 10.7784C78.7848 10.5019 78.3701 10.3636 77.8928 10.3636C77.2792 10.3636 76.8038 10.5492 76.4667 10.9205C76.1295 11.2879 75.961 11.7538 75.961 12.3182V18H74.5973V12.0227C74.5973 11.5265 74.4364 11.1269 74.1144 10.8239C73.7924 10.517 73.3776 10.3636 72.8701 10.3636C72.5216 10.3636 72.1958 10.4564 71.8928 10.642C71.5936 10.8277 71.3511 11.0852 71.1655 11.4148C70.9837 11.7405 70.8928 12.1174 70.8928 12.5455V18H69.5519ZM86.9172 18.1818C86.0763 18.1818 85.3509 17.9962 84.7411 17.625C84.135 17.25 83.6672 16.7273 83.3377 16.0568C83.0119 15.3826 82.849 14.5985 82.849 13.7045C82.849 12.8106 83.0119 12.0227 83.3377 11.3409C83.6672 10.6553 84.1256 10.1212 84.7127 9.73864C85.3036 9.35227 85.993 9.15909 86.7809 9.15909C87.2354 9.15909 87.6843 9.23485 88.1274 9.38636C88.5706 9.53788 88.974 9.78409 89.3377 10.125C89.7013 10.4621 89.9911 10.9091 90.207 11.4659C90.4229 12.0227 90.5309 12.7083 90.5309 13.5227V14.0909H83.8036V12.9318H89.1672C89.1672 12.4394 89.0687 12 88.8718 11.6136C88.6786 11.2273 88.4021 10.9223 88.0422 10.6989C87.6862 10.4754 87.2657 10.3636 86.7809 10.3636C86.2468 10.3636 85.7846 10.4962 85.3945 10.7614C85.0081 11.0227 84.7108 11.3636 84.5024 11.7841C84.2941 12.2045 84.1899 12.6553 84.1899 13.1364V13.9091C84.1899 14.5682 84.3036 15.1269 84.5309 15.5852C84.7619 16.0398 85.082 16.3864 85.4911 16.625C85.9002 16.8598 86.3756 16.9773 86.9172 16.9773C87.2695 16.9773 87.5877 16.928 87.8718 16.8295C88.1596 16.7273 88.4077 16.5758 88.6161 16.375C88.8244 16.1705 88.9854 15.9167 89.099 15.6136L90.3945 15.9773C90.2581 16.4167 90.029 16.803 89.707 17.1364C89.385 17.4659 88.9873 17.7235 88.5138 17.9091C88.0403 18.0909 87.5081 18.1818 86.9172 18.1818ZM92.3706 18V9.27273H93.6661V10.5909H93.757C93.9161 10.1591 94.204 9.80871 94.6206 9.53977C95.0373 9.27083 95.507 9.13636 96.0297 9.13636C96.1282 9.13636 96.2513 9.13826 96.399 9.14205C96.5468 9.14583 96.6585 9.15152 96.7343 9.15909V10.5227C96.6888 10.5114 96.5846 10.4943 96.4218 10.4716C96.2627 10.4451 96.0941 10.4318 95.9161 10.4318C95.4918 10.4318 95.1131 10.5208 94.7797 10.6989C94.4502 10.8731 94.1888 11.1155 93.9956 11.4261C93.8062 11.733 93.7115 12.0833 93.7115 12.4773V18H92.3706ZM100.692 18.2045C100.139 18.2045 99.637 18.1004 99.1863 17.892C98.7355 17.6799 98.3775 17.375 98.1124 16.9773C97.8472 16.5758 97.7147 16.0909 97.7147 15.5227C97.7147 15.0227 97.8132 14.6174 98.0101 14.3068C98.2071 13.9924 98.4703 13.7462 98.7999 13.5682C99.1294 13.3902 99.4931 13.2576 99.8908 13.1705C100.292 13.0795 100.696 13.0076 101.101 12.9545C101.631 12.8864 102.061 12.8352 102.391 12.8011C102.724 12.7633 102.967 12.7008 103.118 12.6136C103.273 12.5265 103.351 12.375 103.351 12.1591V12.1136C103.351 11.553 103.198 11.1174 102.891 10.8068C102.588 10.4962 102.128 10.3409 101.51 10.3409C100.87 10.3409 100.368 10.4811 100.004 10.7614C99.6408 11.0417 99.3851 11.3409 99.2374 11.6591L97.9647 11.2045C98.1919 10.6742 98.495 10.2614 98.8738 9.96591C99.2563 9.66667 99.673 9.45833 100.124 9.34091C100.578 9.2197 101.025 9.15909 101.465 9.15909C101.745 9.15909 102.067 9.19318 102.431 9.26136C102.798 9.32576 103.152 9.46023 103.493 9.66477C103.838 9.86932 104.124 10.178 104.351 10.5909C104.578 11.0038 104.692 11.5568 104.692 12.25V18H103.351V16.8182H103.283C103.192 17.0076 103.04 17.2102 102.828 17.4261C102.616 17.642 102.334 17.8258 101.982 17.9773C101.629 18.1288 101.2 18.2045 100.692 18.2045ZM100.896 17C101.427 17 101.874 16.8958 102.237 16.6875C102.605 16.4792 102.881 16.2102 103.067 15.8807C103.256 15.5511 103.351 15.2045 103.351 14.8409V13.6136C103.294 13.6818 103.169 13.7443 102.976 13.8011C102.787 13.8542 102.567 13.9015 102.317 13.9432C102.071 13.9811 101.83 14.0152 101.595 14.0455C101.364 14.072 101.177 14.0947 101.033 14.1136C100.684 14.1591 100.359 14.233 100.056 14.3352C99.7563 14.4337 99.5139 14.5833 99.3283 14.7841C99.1465 14.9811 99.0556 15.25 99.0556 15.5909C99.0556 16.0568 99.2279 16.4091 99.5726 16.6477C99.9211 16.8826 100.362 17 100.896 17ZM113.121 11.2273L111.917 11.5682C111.841 11.3674 111.729 11.1723 111.581 10.983C111.437 10.7898 111.241 10.6307 110.991 10.5057C110.741 10.3807 110.42 10.3182 110.03 10.3182C109.496 10.3182 109.051 10.4413 108.695 10.6875C108.343 10.9299 108.167 11.2386 108.167 11.6136C108.167 11.947 108.288 12.2102 108.53 12.4034C108.773 12.5966 109.152 12.7576 109.667 12.8864L110.962 13.2045C111.742 13.3939 112.324 13.6837 112.706 14.0739C113.089 14.4602 113.28 14.9583 113.28 15.5682C113.28 16.0682 113.136 16.5152 112.848 16.9091C112.564 17.303 112.167 17.6136 111.655 17.8409C111.144 18.0682 110.549 18.1818 109.871 18.1818C108.981 18.1818 108.244 17.9886 107.661 17.6023C107.078 17.2159 106.708 16.6515 106.553 15.9091L107.826 15.5909C107.947 16.0606 108.176 16.4129 108.513 16.6477C108.854 16.8826 109.299 17 109.848 17C110.473 17 110.97 16.8674 111.337 16.6023C111.708 16.3333 111.894 16.0114 111.894 15.6364C111.894 15.3333 111.788 15.0795 111.576 14.875C111.364 14.6667 111.038 14.5114 110.598 14.4091L109.144 14.0682C108.345 13.8788 107.758 13.5852 107.383 13.1875C107.011 12.786 106.826 12.2841 106.826 11.6818C106.826 11.1894 106.964 10.7538 107.241 10.375C107.521 9.99621 107.902 9.69886 108.383 9.48295C108.867 9.26705 109.417 9.15909 110.03 9.15909C110.894 9.15909 111.572 9.34848 112.064 9.72727C112.561 10.1061 112.913 10.6061 113.121 11.2273Z" fill="#1C1C1C"/>
</svg>
