<svg width="198" height="113" viewBox="0 0 198 113" fill="none" xmlns="http://www.w3.org/2000/svg">
<rect y="63" width="45" height="50" rx="4" fill="#606060"/>
<path d="M16.576 86.2557C15.5987 86.2519 14.7578 86.0114 14.0533 85.5341C13.3525 85.0568 12.8127 84.3655 12.4339 83.4602C12.0589 82.5549 11.8733 81.4659 11.8771 80.1932C11.8771 78.9242 12.0646 77.8428 12.4396 76.9489C12.8184 76.0549 13.3582 75.375 14.0589 74.9091C14.7635 74.4394 15.6025 74.2045 16.576 74.2045C17.5495 74.2045 18.3866 74.4394 19.0874 74.9091C19.7919 75.3788 20.3336 76.0606 20.7124 76.9545C21.0911 77.8447 21.2786 78.9242 21.2749 80.1932C21.2749 81.4697 21.0855 82.5606 20.7067 83.4659C20.3317 84.3712 19.7938 85.0625 19.093 85.5398C18.3923 86.017 17.5533 86.2557 16.576 86.2557ZM16.576 84.2159C17.2427 84.2159 17.7749 83.8807 18.1726 83.2102C18.5703 82.5398 18.7673 81.5341 18.7635 80.1932C18.7635 79.3106 18.6726 78.5758 18.4908 77.9886C18.3127 77.4015 18.0589 76.9602 17.7294 76.6648C17.4036 76.3693 17.0192 76.2216 16.576 76.2216C15.9131 76.2216 15.3828 76.553 14.9851 77.2159C14.5874 77.8788 14.3866 78.8712 14.3828 80.1932C14.3828 81.0871 14.4718 81.8333 14.6499 82.4318C14.8317 83.0265 15.0874 83.4735 15.4169 83.7727C15.7464 84.0682 16.1328 84.2159 16.576 84.2159ZM22.853 83.9545V82.017L27.7109 74.3636H29.3814V77.0455H28.3928L25.3303 81.892V81.983H32.2337V83.9545H22.853ZM28.4382 86V83.3636L28.4837 82.5057V74.3636H30.7905V86H28.4382Z" fill="white"/>
<path d="M12.1992 102H9.50604V93.2727H12.3185C13.1651 93.2727 13.8896 93.4474 14.4918 93.7969C15.0941 94.1435 15.5558 94.642 15.8768 95.2926C16.1978 95.9403 16.3583 96.7159 16.3583 97.6193C16.3583 98.5284 16.1964 99.3111 15.8725 99.9673C15.5487 100.621 15.0771 101.124 14.4577 101.476C13.8384 101.825 13.0856 102 12.1992 102ZM10.5629 101.062H12.131C12.8526 101.062 13.4506 100.923 13.9251 100.645C14.3995 100.366 14.7532 99.9702 14.9862 99.456C15.2191 98.9418 15.3356 98.3295 15.3356 97.6193C15.3356 96.9148 15.2205 96.3082 14.9904 95.7997C14.7603 95.2884 14.4165 94.8963 13.9592 94.6236C13.5018 94.348 12.9322 94.2102 12.2504 94.2102H10.5629V101.062ZM19.9208 102.153C19.506 102.153 19.1296 102.075 18.7915 101.919C18.4535 101.76 18.185 101.531 17.9862 101.233C17.7873 100.932 17.6879 100.568 17.6879 100.142C17.6879 99.767 17.7617 99.4631 17.9094 99.2301C18.0572 98.9943 18.2546 98.8097 18.5018 98.6761C18.7489 98.5426 19.0217 98.4432 19.32 98.3778C19.6211 98.3097 19.9237 98.2557 20.2276 98.2159C20.6254 98.1648 20.9478 98.1264 21.195 98.1009C21.445 98.0724 21.6268 98.0256 21.7404 97.9602C21.8569 97.8949 21.9151 97.7812 21.9151 97.6193V97.5852C21.9151 97.1648 21.8001 96.8381 21.57 96.6051C21.3427 96.3722 20.9975 96.2557 20.5344 96.2557C20.0543 96.2557 19.6779 96.3608 19.4052 96.571C19.1325 96.7812 18.9407 97.0057 18.8299 97.2443L17.8754 96.9034C18.0458 96.5057 18.2731 96.196 18.5572 95.9744C18.8441 95.75 19.1566 95.5937 19.4947 95.5057C19.8356 95.4148 20.1708 95.3693 20.5004 95.3693C20.7106 95.3693 20.9521 95.3949 21.2248 95.446C21.5004 95.4943 21.766 95.5952 22.0217 95.7486C22.2802 95.902 22.4947 96.1335 22.6651 96.4432C22.8356 96.7528 22.9208 97.1676 22.9208 97.6875V102H21.9151V101.114H21.864C21.7958 101.256 21.6822 101.408 21.5231 101.57C21.364 101.732 21.1523 101.869 20.8881 101.983C20.6239 102.097 20.3015 102.153 19.9208 102.153ZM20.0742 101.25C20.4719 101.25 20.8072 101.172 21.0799 101.016C21.3555 100.859 21.5629 100.658 21.7021 100.411C21.8441 100.163 21.9151 99.9034 21.9151 99.6307V98.7102C21.8725 98.7614 21.7788 98.8082 21.6339 98.8509C21.4918 98.8906 21.3271 98.9261 21.1396 98.9574C20.9549 98.9858 20.7745 99.0114 20.5984 99.0341C20.4251 99.054 20.2844 99.071 20.1765 99.0852C19.9151 99.1193 19.6708 99.1747 19.4435 99.2514C19.2191 99.3253 19.0373 99.4375 18.8981 99.5881C18.7617 99.7358 18.6935 99.9375 18.6935 100.193C18.6935 100.543 18.8228 100.807 19.0813 100.986C19.3427 101.162 19.6737 101.25 20.0742 101.25ZM25.1697 104.455C24.9993 104.455 24.8473 104.44 24.7138 104.412C24.5803 104.386 24.4879 104.361 24.4368 104.335L24.6925 103.449C24.9368 103.511 25.1527 103.534 25.3402 103.517C25.5277 103.5 25.6939 103.416 25.8388 103.266C25.9865 103.118 26.1214 102.878 26.2436 102.545L26.4311 102.034L24.0107 95.4545H25.1016L26.9084 100.67H26.9766L28.7834 95.4545H29.8743L27.0959 102.955C26.9709 103.293 26.8161 103.572 26.6314 103.794C26.4467 104.018 26.2322 104.185 25.9879 104.293C25.7464 104.401 25.4737 104.455 25.1697 104.455ZM35.8381 96.9205L34.9347 97.1761C34.8778 97.0256 34.794 96.8793 34.6832 96.7372C34.5753 96.5923 34.4276 96.473 34.2401 96.3793C34.0526 96.2855 33.8125 96.2386 33.5199 96.2386C33.1193 96.2386 32.7855 96.331 32.5185 96.5156C32.2543 96.6974 32.1222 96.929 32.1222 97.2102C32.1222 97.4602 32.2131 97.6577 32.3949 97.8026C32.5767 97.9474 32.8608 98.0682 33.2472 98.1648L34.2188 98.4034C34.804 98.5455 35.2401 98.7628 35.527 99.0554C35.8139 99.3452 35.9574 99.7187 35.9574 100.176C35.9574 100.551 35.8494 100.886 35.6335 101.182C35.4205 101.477 35.1222 101.71 34.7386 101.881C34.3551 102.051 33.9091 102.136 33.4006 102.136C32.733 102.136 32.1804 101.991 31.7429 101.702C31.3054 101.412 31.0284 100.989 30.9119 100.432L31.8665 100.193C31.9574 100.545 32.1293 100.81 32.3821 100.986C32.6378 101.162 32.9716 101.25 33.3835 101.25C33.8523 101.25 34.2244 101.151 34.5 100.952C34.7784 100.75 34.9176 100.509 34.9176 100.227C34.9176 100 34.8381 99.8097 34.679 99.6562C34.5199 99.5 34.2756 99.3835 33.946 99.3068L32.8551 99.0511C32.2557 98.9091 31.8153 98.6889 31.5341 98.3906C31.2557 98.0895 31.1165 97.7131 31.1165 97.2614C31.1165 96.892 31.2202 96.5653 31.4276 96.2812C31.6378 95.9972 31.9233 95.7741 32.2841 95.6122C32.6477 95.4503 33.0597 95.3693 33.5199 95.3693C34.1676 95.3693 34.6761 95.5114 35.0455 95.7955C35.4176 96.0795 35.6818 96.4545 35.8381 96.9205Z" fill="white"/>
<rect x="51" y="63" width="45" height="50" rx="4" fill="#606060"/>
<path d="M70.3182 74.3636V86H67.858V76.6989H67.7898L65.125 78.3693V76.1875L68.0057 74.3636H70.3182ZM77.3849 86.1591C76.5365 86.1591 75.7808 86.0133 75.1179 85.7216C74.4588 85.4261 73.938 85.0208 73.5554 84.5057C73.1766 83.9867 72.9815 83.3883 72.9702 82.7102H75.4474C75.4626 82.9943 75.5554 83.2443 75.7259 83.4602C75.9001 83.6723 76.1312 83.8371 76.419 83.9545C76.7069 84.072 77.0308 84.1307 77.3906 84.1307C77.7656 84.1307 78.0971 84.0644 78.3849 83.9318C78.6728 83.7992 78.8982 83.6155 79.0611 83.3807C79.224 83.1458 79.3054 82.875 79.3054 82.5682C79.3054 82.2576 79.2183 81.983 79.044 81.7443C78.8736 81.5019 78.6274 81.3125 78.3054 81.1761C77.9872 81.0398 77.6084 80.9716 77.169 80.9716H76.0838V79.1648H77.169C77.5402 79.1648 77.8679 79.1004 78.152 78.9716C78.4399 78.8428 78.6634 78.6648 78.8224 78.4375C78.9815 78.2064 79.0611 77.9375 79.0611 77.6307C79.0611 77.339 78.991 77.0833 78.8509 76.8636C78.7145 76.6402 78.5213 76.4659 78.2713 76.3409C78.0251 76.2159 77.7372 76.1534 77.4077 76.1534C77.0743 76.1534 76.7694 76.214 76.4929 76.3352C76.2164 76.4527 75.9948 76.6212 75.8281 76.8409C75.6615 77.0606 75.5724 77.3182 75.5611 77.6136H73.2031C73.2145 76.9432 73.4058 76.3523 73.777 75.8409C74.1482 75.3295 74.6482 74.9299 75.277 74.642C75.9096 74.3504 76.6236 74.2045 77.419 74.2045C78.2221 74.2045 78.9247 74.3504 79.527 74.642C80.1293 74.9337 80.5971 75.3277 80.9304 75.8239C81.2675 76.3163 81.4342 76.8693 81.4304 77.483C81.4342 78.1345 81.2315 78.678 80.8224 79.1136C80.4171 79.5492 79.8887 79.8258 79.2372 79.9432V80.0341C80.0933 80.1439 80.7448 80.4413 81.1918 80.9261C81.6425 81.4072 81.866 82.0095 81.8622 82.733C81.866 83.3958 81.6747 83.9848 81.2884 84.5C80.9058 85.0152 80.3774 85.4205 79.7031 85.7159C79.0289 86.0114 78.2562 86.1591 77.3849 86.1591Z" fill="white"/>
<path d="M60.3166 102V93.2727H61.3734V97.1591H66.0268V93.2727H67.0836V102H66.0268V98.0966H61.3734V102H60.3166ZM71.7221 102.136C71.1312 102.136 70.6127 101.996 70.1667 101.714C69.7235 101.433 69.377 101.04 69.127 100.534C68.8798 100.028 68.7562 99.4375 68.7562 98.7614C68.7562 98.0795 68.8798 97.4844 69.127 96.9759C69.377 96.4673 69.7235 96.0724 70.1667 95.7912C70.6127 95.5099 71.1312 95.3693 71.7221 95.3693C72.313 95.3693 72.8301 95.5099 73.2733 95.7912C73.7193 96.0724 74.0659 96.4673 74.313 96.9759C74.563 97.4844 74.688 98.0795 74.688 98.7614C74.688 99.4375 74.563 100.028 74.313 100.534C74.0659 101.04 73.7193 101.433 73.2733 101.714C72.8301 101.996 72.313 102.136 71.7221 102.136ZM71.7221 101.233C72.171 101.233 72.5403 101.118 72.8301 100.888C73.1199 100.658 73.3343 100.355 73.4735 99.9801C73.6127 99.6051 73.6824 99.1989 73.6824 98.7614C73.6824 98.3239 73.6127 97.9162 73.4735 97.5384C73.3343 97.1605 73.1199 96.8551 72.8301 96.6222C72.5403 96.3892 72.171 96.2727 71.7221 96.2727C71.2733 96.2727 70.9039 96.3892 70.6142 96.6222C70.3244 96.8551 70.1099 97.1605 69.9707 97.5384C69.8315 97.9162 69.7619 98.3239 69.7619 98.7614C69.7619 99.1989 69.8315 99.6051 69.9707 99.9801C70.1099 100.355 70.3244 100.658 70.6142 100.888C70.9039 101.118 71.2733 101.233 71.7221 101.233ZM80.3482 99.3239V95.4545H81.3539V102H80.3482V100.892H80.28C80.1266 101.224 79.888 101.507 79.5641 101.74C79.2402 101.97 78.8311 102.085 78.3368 102.085C77.9277 102.085 77.5641 101.996 77.2459 101.817C76.9277 101.635 76.6777 101.362 76.4959 100.999C76.3141 100.632 76.2232 100.17 76.2232 99.6136V95.4545H77.2289V99.5455C77.2289 100.023 77.3624 100.403 77.6294 100.688C77.8993 100.972 78.2431 101.114 78.6607 101.114C78.9107 101.114 79.165 101.05 79.4235 100.922C79.6848 100.794 79.9036 100.598 80.0797 100.334C80.2587 100.07 80.3482 99.733 80.3482 99.3239ZM83.1958 102V95.4545H84.1674V96.4432H84.2356C84.3549 96.1193 84.5708 95.8565 84.8833 95.6548C85.1958 95.4531 85.5481 95.3523 85.9402 95.3523C86.014 95.3523 86.1064 95.3537 86.2172 95.3565C86.3279 95.3594 86.4118 95.3636 86.4686 95.3693V96.392C86.4345 96.3835 86.3564 96.3707 86.2342 96.3537C86.1149 96.3338 85.9885 96.3239 85.8549 96.3239C85.5368 96.3239 85.2527 96.3906 85.0027 96.5241C84.7555 96.6548 84.5595 96.8366 84.4146 97.0696C84.2725 97.2997 84.2015 97.5625 84.2015 97.858V102H83.1958Z" fill="white"/>
<rect x="102" y="63" width="45" height="50" rx="4" fill="#606060"/>
<path d="M118.549 86.1591C117.701 86.1591 116.945 86.0133 116.282 85.7216C115.623 85.4261 115.102 85.0208 114.719 84.5057C114.341 83.9867 114.146 83.3883 114.134 82.7102H116.612C116.627 82.9943 116.719 83.2443 116.89 83.4602C117.064 83.6723 117.295 83.8371 117.583 83.9545C117.871 84.072 118.195 84.1307 118.555 84.1307C118.93 84.1307 119.261 84.0644 119.549 83.9318C119.837 83.7992 120.062 83.6155 120.225 83.3807C120.388 83.1458 120.469 82.875 120.469 82.5682C120.469 82.2576 120.382 81.983 120.208 81.7443C120.038 81.5019 119.791 81.3125 119.469 81.1761C119.151 81.0398 118.772 80.9716 118.333 80.9716H117.248V79.1648H118.333C118.704 79.1648 119.032 79.1004 119.316 78.9716C119.604 78.8428 119.827 78.6648 119.987 78.4375C120.146 78.2064 120.225 77.9375 120.225 77.6307C120.225 77.339 120.155 77.0833 120.015 76.8636C119.879 76.6402 119.685 76.4659 119.435 76.3409C119.189 76.2159 118.901 76.1534 118.572 76.1534C118.238 76.1534 117.933 76.214 117.657 76.3352C117.38 76.4527 117.159 76.6212 116.992 76.8409C116.826 77.0606 116.737 77.3182 116.725 77.6136H114.367C114.379 76.9432 114.57 76.3523 114.941 75.8409C115.312 75.3295 115.812 74.9299 116.441 74.642C117.074 74.3504 117.788 74.2045 118.583 74.2045C119.386 74.2045 120.089 74.3504 120.691 74.642C121.293 74.9337 121.761 75.3277 122.094 75.8239C122.432 76.3163 122.598 76.8693 122.594 77.483C122.598 78.1345 122.396 78.678 121.987 79.1136C121.581 79.5492 121.053 79.8258 120.401 79.9432V80.0341C121.257 80.1439 121.909 80.4413 122.356 80.9261C122.807 81.4072 123.03 82.0095 123.026 82.733C123.03 83.3958 122.839 83.9848 122.452 84.5C122.07 85.0152 121.541 85.4205 120.867 85.7159C120.193 86.0114 119.42 86.1591 118.549 86.1591ZM124.619 83.9545V82.017L129.477 74.3636H131.147V77.0455H130.158L127.096 81.892V81.983H133.999V83.9545H124.619ZM130.204 86V83.3636L130.249 82.5057V74.3636H132.556V86H130.204Z" fill="white"/>
<path d="M115.285 93.2727H116.547L119.513 100.517H119.615L122.581 93.2727H123.842V102H122.854V95.3693H122.768L120.041 102H119.086L116.359 95.3693H116.274V102H115.285V93.2727ZM125.825 102V95.4545H126.83V102H125.825ZM126.336 94.3636C126.14 94.3636 125.971 94.2969 125.829 94.1634C125.69 94.0298 125.62 93.8693 125.62 93.6818C125.62 93.4943 125.69 93.3338 125.829 93.2003C125.971 93.0668 126.14 93 126.336 93C126.532 93 126.7 93.0668 126.839 93.2003C126.981 93.3338 127.052 93.4943 127.052 93.6818C127.052 93.8693 126.981 94.0298 126.839 94.1634C126.7 94.2969 126.532 94.3636 126.336 94.3636ZM129.678 98.0625V102H128.672V95.4545H129.644V96.4773H129.729C129.883 96.1449 130.116 95.8778 130.428 95.6761C130.741 95.4716 131.144 95.3693 131.638 95.3693C132.081 95.3693 132.469 95.4602 132.802 95.642C133.134 95.821 133.393 96.0938 133.577 96.4602C133.762 96.8239 133.854 97.2841 133.854 97.8409V102H132.849V97.9091C132.849 97.3949 132.715 96.9943 132.448 96.7074C132.181 96.4176 131.814 96.2727 131.349 96.2727C131.028 96.2727 130.741 96.3423 130.488 96.4815C130.238 96.6207 130.04 96.8239 129.895 97.0909C129.751 97.358 129.678 97.6818 129.678 98.0625Z" fill="white"/>
<rect x="153" y="63" width="45" height="50" rx="4" fill="#606060"/>
<path d="M170.256 86.1591C169.453 86.1591 168.737 86.0114 168.108 85.7159C167.483 85.4205 166.987 85.0133 166.619 84.4943C166.252 83.9754 166.061 83.3807 166.045 82.7102H168.432C168.458 83.161 168.648 83.5265 169 83.8068C169.352 84.0871 169.771 84.2273 170.256 84.2273C170.642 84.2273 170.983 84.142 171.278 83.9716C171.578 83.7973 171.811 83.5568 171.977 83.25C172.148 82.9394 172.233 82.5833 172.233 82.1818C172.233 81.7727 172.146 81.4129 171.972 81.1023C171.801 80.7917 171.564 80.5492 171.261 80.375C170.958 80.2008 170.612 80.1117 170.222 80.108C169.881 80.108 169.549 80.178 169.227 80.3182C168.909 80.4583 168.661 80.6496 168.483 80.892L166.295 80.5L166.847 74.3636H173.96V76.375H168.875L168.574 79.2898H168.642C168.847 79.0019 169.155 78.7633 169.568 78.5739C169.981 78.3845 170.443 78.2898 170.955 78.2898C171.655 78.2898 172.28 78.4545 172.83 78.7841C173.379 79.1136 173.812 79.5663 174.131 80.142C174.449 80.714 174.606 81.3731 174.602 82.1193C174.606 82.9034 174.424 83.6004 174.057 84.2102C173.693 84.8163 173.184 85.2936 172.528 85.642C171.877 85.9867 171.119 86.1591 170.256 86.1591ZM180.784 86.1591C180.186 86.1553 179.608 86.0549 179.051 85.858C178.498 85.661 178.002 85.3409 177.562 84.8977C177.123 84.4545 176.775 83.8674 176.517 83.1364C176.263 82.4053 176.136 81.5076 176.136 80.4432C176.14 79.4659 176.252 78.5928 176.472 77.8239C176.695 77.0511 177.013 76.3958 177.426 75.858C177.843 75.3201 178.341 74.911 178.92 74.6307C179.5 74.3466 180.15 74.2045 180.869 74.2045C181.646 74.2045 182.331 74.3561 182.926 74.6591C183.521 74.9583 183.998 75.3655 184.358 75.8807C184.722 76.3958 184.941 76.9735 185.017 77.6136H182.591C182.496 77.2083 182.297 76.8902 181.994 76.6591C181.691 76.428 181.316 76.3125 180.869 76.3125C180.112 76.3125 179.536 76.642 179.142 77.3011C178.752 77.9602 178.553 78.8561 178.545 79.9886H178.625C178.799 79.6439 179.034 79.3504 179.33 79.108C179.629 78.8617 179.968 78.6742 180.347 78.5455C180.729 78.4129 181.133 78.3466 181.557 78.3466C182.246 78.3466 182.86 78.5095 183.398 78.8352C183.936 79.1572 184.36 79.6004 184.67 80.1648C184.981 80.7292 185.136 81.375 185.136 82.1023C185.136 82.8902 184.953 83.5909 184.585 84.2045C184.222 84.8182 183.712 85.2992 183.057 85.6477C182.405 85.9924 181.648 86.1629 180.784 86.1591ZM180.773 84.2273C181.152 84.2273 181.491 84.1364 181.79 83.9545C182.089 83.7727 182.324 83.5265 182.494 83.2159C182.665 82.9053 182.75 82.5568 182.75 82.1705C182.75 81.7841 182.665 81.4375 182.494 81.1307C182.328 80.8239 182.097 80.5795 181.801 80.3977C181.506 80.2159 181.169 80.125 180.79 80.125C180.506 80.125 180.242 80.178 180 80.2841C179.761 80.3902 179.551 80.5379 179.369 80.7273C179.191 80.9167 179.051 81.1364 178.949 81.3864C178.847 81.6326 178.795 81.8958 178.795 82.1761C178.795 82.5511 178.881 82.8939 179.051 83.2045C179.225 83.5152 179.46 83.7633 179.756 83.9489C180.055 84.1345 180.394 84.2273 180.773 84.2273Z" fill="white"/>
<path d="M170.16 95.4545C170.108 95.0227 169.901 94.6875 169.537 94.4489C169.174 94.2102 168.728 94.0909 168.199 94.0909C167.813 94.0909 167.475 94.1534 167.185 94.2784C166.898 94.4034 166.674 94.5753 166.512 94.794C166.353 95.0128 166.273 95.2614 166.273 95.5398C166.273 95.7727 166.329 95.973 166.439 96.1406C166.553 96.3054 166.698 96.4432 166.874 96.554C167.05 96.6619 167.235 96.7514 167.428 96.8224C167.621 96.8906 167.799 96.946 167.961 96.9886L168.847 97.2273C169.074 97.2869 169.327 97.3693 169.606 97.4744C169.887 97.5795 170.155 97.723 170.411 97.9048C170.67 98.0838 170.883 98.3139 171.05 98.5952C171.218 98.8764 171.302 99.2216 171.302 99.6307C171.302 100.102 171.178 100.528 170.931 100.909C170.687 101.29 170.329 101.592 169.857 101.817C169.388 102.041 168.819 102.153 168.148 102.153C167.523 102.153 166.982 102.053 166.525 101.851C166.07 101.649 165.712 101.368 165.451 101.007C165.192 100.646 165.046 100.227 165.012 99.75H166.103C166.131 100.08 166.242 100.352 166.435 100.568C166.631 100.781 166.878 100.94 167.177 101.045C167.478 101.148 167.802 101.199 168.148 101.199C168.552 101.199 168.914 101.134 169.235 101.003C169.556 100.869 169.81 100.685 169.998 100.449C170.185 100.21 170.279 99.9318 170.279 99.6136C170.279 99.3239 170.198 99.0881 170.036 98.9062C169.874 98.7244 169.661 98.5767 169.397 98.4631C169.133 98.3494 168.847 98.25 168.54 98.1648L167.466 97.858C166.785 97.6619 166.245 97.3821 165.847 97.0185C165.449 96.6548 165.251 96.179 165.251 95.5909C165.251 95.1023 165.383 94.6761 165.647 94.3125C165.914 93.946 166.272 93.6619 166.721 93.4602C167.172 93.2557 167.677 93.1534 168.233 93.1534C168.796 93.1534 169.296 93.2543 169.733 93.456C170.171 93.6548 170.518 93.9276 170.773 94.2741C171.032 94.6207 171.168 95.0142 171.182 95.4545H170.16ZM175.647 102.136C175.017 102.136 174.472 101.997 174.015 101.719C173.561 101.438 173.21 101.045 172.963 100.543C172.718 100.037 172.596 99.4489 172.596 98.7784C172.596 98.108 172.718 97.517 172.963 97.0057C173.21 96.4915 173.553 96.0909 173.994 95.804C174.437 95.5142 174.954 95.3693 175.545 95.3693C175.886 95.3693 176.222 95.4261 176.555 95.5398C176.887 95.6534 177.19 95.8381 177.463 96.0938C177.735 96.3466 177.953 96.6818 178.115 97.0994C178.276 97.517 178.357 98.0312 178.357 98.642V99.0682H173.312V98.1989H177.335C177.335 97.8295 177.261 97.5 177.113 97.2102C176.968 96.9205 176.761 96.6918 176.491 96.5241C176.224 96.3565 175.909 96.2727 175.545 96.2727C175.144 96.2727 174.798 96.3722 174.505 96.571C174.215 96.767 173.992 97.0227 173.836 97.3381C173.68 97.6534 173.602 97.9915 173.602 98.3523V98.9318C173.602 99.4261 173.687 99.8452 173.857 100.189C174.031 100.53 174.271 100.79 174.578 100.969C174.884 101.145 175.241 101.233 175.647 101.233C175.911 101.233 176.15 101.196 176.363 101.122C176.579 101.045 176.765 100.932 176.921 100.781C177.078 100.628 177.198 100.437 177.284 100.21L178.255 100.483C178.153 100.812 177.981 101.102 177.74 101.352C177.498 101.599 177.2 101.793 176.845 101.932C176.49 102.068 176.09 102.136 175.647 102.136ZM182.546 102.136C181.933 102.136 181.404 101.991 180.961 101.702C180.518 101.412 180.177 101.013 179.938 100.504C179.7 99.9957 179.58 99.4148 179.58 98.7614C179.58 98.0966 179.703 97.5099 179.947 97.0014C180.194 96.4901 180.538 96.0909 180.978 95.804C181.421 95.5142 181.938 95.3693 182.529 95.3693C182.99 95.3693 183.404 95.4545 183.774 95.625C184.143 95.7955 184.445 96.0341 184.681 96.3409C184.917 96.6477 185.063 97.0057 185.12 97.4148H184.115C184.038 97.1165 183.867 96.8523 183.603 96.6222C183.342 96.3892 182.99 96.2727 182.546 96.2727C182.154 96.2727 181.811 96.375 181.515 96.5795C181.222 96.7812 180.994 97.0668 180.829 97.4361C180.667 97.8026 180.586 98.233 180.586 98.7273C180.586 99.233 180.666 99.6733 180.825 100.048C180.987 100.423 181.214 100.714 181.507 100.922C181.802 101.129 182.149 101.233 182.546 101.233C182.808 101.233 183.045 101.188 183.258 101.097C183.471 101.006 183.651 100.875 183.799 100.705C183.947 100.534 184.052 100.33 184.115 100.091H185.12C185.063 100.477 184.923 100.825 184.698 101.135C184.477 101.442 184.183 101.686 183.816 101.868C183.453 102.047 183.029 102.136 182.546 102.136Z" fill="white"/>
<path d="M1.40909 41V29.3636H2.81818V34.5455H9.02273V29.3636H10.4318V41H9.02273V35.7955H2.81818V41H1.40909ZM13.9347 44.2727C13.7074 44.2727 13.5047 44.2538 13.3267 44.2159C13.1487 44.1818 13.0256 44.1477 12.9574 44.1136L13.2983 42.9318C13.6241 43.0152 13.9119 43.0455 14.1619 43.0227C14.4119 43 14.6335 42.8883 14.8267 42.6875C15.0237 42.4905 15.2036 42.1705 15.3665 41.7273L15.6165 41.0455L12.3892 32.2727H13.8438L16.2528 39.2273H16.3438L18.7528 32.2727H20.2074L16.5028 42.2727C16.3362 42.7235 16.1297 43.0966 15.8835 43.392C15.6373 43.6913 15.3513 43.9129 15.0256 44.0568C14.7036 44.2008 14.34 44.2727 13.9347 44.2727ZM25.1875 44.4545C24.5398 44.4545 23.983 44.3712 23.517 44.2045C23.0511 44.0417 22.6629 43.8258 22.3523 43.5568C22.0455 43.2917 21.8011 43.0076 21.6193 42.7045L22.6875 41.9545C22.8087 42.1136 22.9621 42.2955 23.1477 42.5C23.3333 42.7083 23.5871 42.8883 23.9091 43.0398C24.2348 43.1951 24.661 43.2727 25.1875 43.2727C25.892 43.2727 26.4735 43.1023 26.9318 42.7614C27.3902 42.4205 27.6193 41.8864 27.6193 41.1591V39.3864H27.5057C27.4072 39.5455 27.267 39.7424 27.0852 39.9773C26.9072 40.2083 26.6496 40.4148 26.3125 40.5966C25.9792 40.7746 25.5284 40.8636 24.9602 40.8636C24.2557 40.8636 23.6231 40.697 23.0625 40.3636C22.5057 40.0303 22.0644 39.5455 21.7386 38.9091C21.4167 38.2727 21.2557 37.5 21.2557 36.5909C21.2557 35.697 21.4129 34.9186 21.7273 34.2557C22.0417 33.589 22.4792 33.0739 23.0398 32.7102C23.6004 32.3428 24.2481 32.1591 24.983 32.1591C25.5511 32.1591 26.0019 32.2538 26.3352 32.4432C26.6723 32.6288 26.9299 32.8409 27.108 33.0795C27.2898 33.3144 27.4299 33.5076 27.5284 33.6591H27.6648V32.2727H28.9602V41.25C28.9602 42 28.7898 42.6098 28.4489 43.0795C28.1117 43.553 27.6572 43.8996 27.0852 44.1193C26.517 44.3428 25.8845 44.4545 25.1875 44.4545ZM25.142 39.6591C25.6799 39.6591 26.1345 39.536 26.5057 39.2898C26.8769 39.0436 27.1591 38.6894 27.3523 38.2273C27.5455 37.7652 27.642 37.2121 27.642 36.5682C27.642 35.9394 27.5473 35.3845 27.358 34.9034C27.1686 34.4223 26.8883 34.0455 26.517 33.7727C26.1458 33.5 25.6875 33.3636 25.142 33.3636C24.5739 33.3636 24.1004 33.5076 23.7216 33.7955C23.3466 34.0833 23.0644 34.4697 22.875 34.9545C22.6894 35.4394 22.5966 35.9773 22.5966 36.5682C22.5966 37.1742 22.6913 37.7102 22.8807 38.1761C23.0739 38.6383 23.358 39.0019 23.733 39.267C24.1117 39.5284 24.5814 39.6591 25.142 39.6591ZM31.4148 41V32.2727H32.7557V41H31.4148ZM32.0966 30.8182C31.8352 30.8182 31.6098 30.7292 31.4205 30.5511C31.2348 30.3731 31.142 30.1591 31.142 29.9091C31.142 29.6591 31.2348 29.4451 31.4205 29.267C31.6098 29.089 31.8352 29 32.0966 29C32.358 29 32.5814 29.089 32.767 29.267C32.9564 29.4451 33.0511 29.6591 33.0511 29.9091C33.0511 30.1591 32.9564 30.3731 32.767 30.5511C32.5814 30.7292 32.358 30.8182 32.0966 30.8182ZM38.8707 41.1818C38.0298 41.1818 37.3045 40.9962 36.6946 40.625C36.0885 40.25 35.6207 39.7273 35.2912 39.0568C34.9654 38.3826 34.8026 37.5985 34.8026 36.7045C34.8026 35.8106 34.9654 35.0227 35.2912 34.3409C35.6207 33.6553 36.0791 33.1212 36.6662 32.7386C37.2571 32.3523 37.9465 32.1591 38.7344 32.1591C39.1889 32.1591 39.6378 32.2348 40.081 32.3864C40.5241 32.5379 40.9276 32.7841 41.2912 33.125C41.6548 33.4621 41.9446 33.9091 42.1605 34.4659C42.3764 35.0227 42.4844 35.7083 42.4844 36.5227V37.0909H35.7571V35.9318H41.1207C41.1207 35.4394 41.0223 35 40.8253 34.6136C40.6321 34.2273 40.3556 33.9223 39.9957 33.6989C39.6397 33.4754 39.2192 33.3636 38.7344 33.3636C38.2003 33.3636 37.7382 33.4962 37.348 33.7614C36.9616 34.0227 36.6643 34.3636 36.456 34.7841C36.2476 35.2045 36.1435 35.6553 36.1435 36.1364V36.9091C36.1435 37.5682 36.2571 38.1269 36.4844 38.5852C36.7154 39.0398 37.0355 39.3864 37.4446 39.625C37.8537 39.8598 38.3291 39.9773 38.8707 39.9773C39.223 39.9773 39.5412 39.928 39.8253 39.8295C40.1132 39.7273 40.3613 39.5758 40.5696 39.375C40.7779 39.1705 40.9389 38.9167 41.0526 38.6136L42.348 38.9773C42.2116 39.4167 41.9825 39.803 41.6605 40.1364C41.3385 40.4659 40.9408 40.7235 40.4673 40.9091C39.9938 41.0909 39.4616 41.1818 38.8707 41.1818ZM45.8651 35.75V41H44.5241V32.2727H45.8196V33.6364H45.9332C46.1378 33.1932 46.4484 32.8371 46.8651 32.5682C47.2817 32.2955 47.8196 32.1591 48.4787 32.1591C49.0696 32.1591 49.5866 32.2803 50.0298 32.5227C50.473 32.7614 50.8177 33.125 51.0639 33.6136C51.3101 34.0985 51.4332 34.7121 51.4332 35.4545V41H50.0923V35.5455C50.0923 34.8598 49.9143 34.3258 49.5582 33.9432C49.2022 33.5568 48.7135 33.3636 48.0923 33.3636C47.6643 33.3636 47.2817 33.4564 46.9446 33.642C46.6113 33.8277 46.348 34.0985 46.1548 34.4545C45.9616 34.8106 45.8651 35.2424 45.8651 35.75ZM57.5426 41.1818C56.7017 41.1818 55.9763 40.9962 55.3665 40.625C54.7604 40.25 54.2926 39.7273 53.9631 39.0568C53.6373 38.3826 53.4744 37.5985 53.4744 36.7045C53.4744 35.8106 53.6373 35.0227 53.9631 34.3409C54.2926 33.6553 54.7509 33.1212 55.3381 32.7386C55.929 32.3523 56.6184 32.1591 57.4062 32.1591C57.8608 32.1591 58.3097 32.2348 58.7528 32.3864C59.196 32.5379 59.5994 32.7841 59.9631 33.125C60.3267 33.4621 60.6165 33.9091 60.8324 34.4659C61.0483 35.0227 61.1562 35.7083 61.1562 36.5227V37.0909H54.429V35.9318H59.7926C59.7926 35.4394 59.6941 35 59.4972 34.6136C59.304 34.2273 59.0275 33.9223 58.6676 33.6989C58.3116 33.4754 57.8911 33.3636 57.4062 33.3636C56.8722 33.3636 56.41 33.4962 56.0199 33.7614C55.6335 34.0227 55.3362 34.3636 55.1278 34.7841C54.9195 35.2045 54.8153 35.6553 54.8153 36.1364V36.9091C54.8153 37.5682 54.929 38.1269 55.1562 38.5852C55.3873 39.0398 55.7074 39.3864 56.1165 39.625C56.5256 39.8598 57.0009 39.9773 57.5426 39.9773C57.8949 39.9773 58.2131 39.928 58.4972 39.8295C58.785 39.7273 59.0331 39.5758 59.2415 39.375C59.4498 39.1705 59.6108 38.9167 59.7244 38.6136L61.0199 38.9773C60.8835 39.4167 60.6544 39.803 60.3324 40.1364C60.0104 40.4659 59.6127 40.7235 59.1392 40.9091C58.6657 41.0909 58.1335 41.1818 57.5426 41.1818ZM71.3551 41.1818C70.5142 41.1818 69.7888 40.9962 69.179 40.625C68.5729 40.25 68.1051 39.7273 67.7756 39.0568C67.4498 38.3826 67.2869 37.5985 67.2869 36.7045C67.2869 35.8106 67.4498 35.0227 67.7756 34.3409C68.1051 33.6553 68.5634 33.1212 69.1506 32.7386C69.7415 32.3523 70.4309 32.1591 71.2188 32.1591C71.6733 32.1591 72.1222 32.2348 72.5653 32.3864C73.0085 32.5379 73.4119 32.7841 73.7756 33.125C74.1392 33.4621 74.429 33.9091 74.6449 34.4659C74.8608 35.0227 74.9688 35.7083 74.9688 36.5227V37.0909H68.2415V35.9318H73.6051C73.6051 35.4394 73.5066 35 73.3097 34.6136C73.1165 34.2273 72.84 33.9223 72.4801 33.6989C72.1241 33.4754 71.7036 33.3636 71.2188 33.3636C70.6847 33.3636 70.2225 33.4962 69.8324 33.7614C69.446 34.0227 69.1487 34.3636 68.9403 34.7841C68.732 35.2045 68.6278 35.6553 68.6278 36.1364V36.9091C68.6278 37.5682 68.7415 38.1269 68.9688 38.5852C69.1998 39.0398 69.5199 39.3864 69.929 39.625C70.3381 39.8598 70.8134 39.9773 71.3551 39.9773C71.7074 39.9773 72.0256 39.928 72.3097 39.8295C72.5975 39.7273 72.8456 39.5758 73.054 39.375C73.2623 39.1705 73.4233 38.9167 73.5369 38.6136L74.8324 38.9773C74.696 39.4167 74.4669 39.803 74.1449 40.1364C73.8229 40.4659 73.4252 40.7235 72.9517 40.9091C72.4782 41.0909 71.946 41.1818 71.3551 41.1818ZM82.9631 44.2727V39.6591H82.8494C82.7509 39.8182 82.6108 40.0189 82.429 40.2614C82.2472 40.5 81.9877 40.714 81.6506 40.9034C81.3134 41.089 80.8646 41.1818 80.304 41.1818C79.5767 41.1818 78.9347 40.9981 78.3778 40.6307C77.821 40.2595 77.3854 39.7367 77.071 39.0625C76.7566 38.3845 76.5994 37.5833 76.5994 36.6591C76.5994 35.7424 76.7566 34.947 77.071 34.2727C77.3854 33.5985 77.8229 33.0777 78.3835 32.7102C78.9441 32.3428 79.5919 32.1591 80.3267 32.1591C80.8949 32.1591 81.3438 32.2538 81.6733 32.4432C82.0066 32.6288 82.2604 32.8409 82.4347 33.0795C82.6127 33.3144 82.7509 33.5076 82.8494 33.6591H83.0085V32.2727H84.304V44.2727H82.9631ZM80.4858 39.9773C81.0237 39.9773 81.4782 39.8371 81.8494 39.5568C82.2206 39.2727 82.5028 38.8807 82.696 38.3807C82.8892 37.8769 82.9858 37.2955 82.9858 36.6364C82.9858 35.9848 82.8911 35.4148 82.7017 34.9261C82.5123 34.4337 82.232 34.0511 81.8608 33.7784C81.4896 33.5019 81.0313 33.3636 80.4858 33.3636C79.9176 33.3636 79.4441 33.5095 79.0653 33.8011C78.6903 34.089 78.4081 34.4811 78.2188 34.9773C78.0331 35.4697 77.9403 36.0227 77.9403 36.6364C77.9403 37.2576 78.035 37.822 78.2244 38.3295C78.4176 38.8333 78.7017 39.2348 79.0767 39.5341C79.4555 39.8295 79.9252 39.9773 80.4858 39.9773ZM92.2585 37.4318V32.2727H93.5994V41H92.2585V39.5227H92.1676C91.9631 39.9659 91.6449 40.3428 91.2131 40.6534C90.7813 40.9602 90.2358 41.1136 89.5767 41.1136C89.0312 41.1136 88.5464 40.9943 88.1222 40.7557C87.6979 40.5133 87.3646 40.1496 87.1222 39.6648C86.8797 39.1761 86.7585 38.5606 86.7585 37.8182V32.2727H88.0994V37.7273C88.0994 38.3636 88.2775 38.8712 88.6335 39.25C88.9934 39.6288 89.4517 39.8182 90.0085 39.8182C90.3419 39.8182 90.6809 39.733 91.0256 39.5625C91.3741 39.392 91.6657 39.1307 91.9006 38.7784C92.1392 38.4261 92.2585 37.9773 92.2585 37.4318ZM96.0554 41V32.2727H97.3963V41H96.0554ZM96.7372 30.8182C96.4759 30.8182 96.2505 30.7292 96.0611 30.5511C95.8755 30.3731 95.7827 30.1591 95.7827 29.9091C95.7827 29.6591 95.8755 29.4451 96.0611 29.267C96.2505 29.089 96.4759 29 96.7372 29C96.9986 29 97.2221 29.089 97.4077 29.267C97.5971 29.4451 97.6918 29.6591 97.6918 29.9091C97.6918 30.1591 97.5971 30.3731 97.4077 30.5511C97.2221 30.7292 96.9986 30.8182 96.7372 30.8182ZM99.8523 44.2727V32.2727H101.148V33.6591H101.307C101.405 33.5076 101.542 33.3144 101.716 33.0795C101.894 32.8409 102.148 32.6288 102.477 32.4432C102.811 32.2538 103.261 32.1591 103.83 32.1591C104.564 32.1591 105.212 32.3428 105.773 32.7102C106.333 33.0777 106.771 33.5985 107.085 34.2727C107.4 34.947 107.557 35.7424 107.557 36.6591C107.557 37.5833 107.4 38.3845 107.085 39.0625C106.771 39.7367 106.335 40.2595 105.778 40.6307C105.222 40.9981 104.58 41.1818 103.852 41.1818C103.292 41.1818 102.843 41.089 102.506 40.9034C102.169 40.714 101.909 40.5 101.727 40.2614C101.545 40.0189 101.405 39.8182 101.307 39.6591H101.193V44.2727H99.8523ZM101.17 36.6364C101.17 37.2955 101.267 37.8769 101.46 38.3807C101.653 38.8807 101.936 39.2727 102.307 39.5568C102.678 39.8371 103.133 39.9773 103.67 39.9773C104.231 39.9773 104.699 39.8295 105.074 39.5341C105.453 39.2348 105.737 38.8333 105.926 38.3295C106.119 37.822 106.216 37.2576 106.216 36.6364C106.216 36.0227 106.121 35.4697 105.932 34.9773C105.746 34.4811 105.464 34.089 105.085 33.8011C104.71 33.5095 104.239 33.3636 103.67 33.3636C103.125 33.3636 102.667 33.5019 102.295 33.7784C101.924 34.0511 101.644 34.4337 101.455 34.9261C101.265 35.4148 101.17 35.9848 101.17 36.6364ZM109.602 41V32.2727H110.898V33.6364H111.011C111.193 33.1705 111.487 32.8087 111.892 32.5511C112.297 32.2898 112.784 32.1591 113.352 32.1591C113.928 32.1591 114.407 32.2898 114.79 32.5511C115.176 32.8087 115.477 33.1705 115.693 33.6364H115.784C116.008 33.1856 116.343 32.8277 116.79 32.5625C117.237 32.2936 117.773 32.1591 118.398 32.1591C119.178 32.1591 119.816 32.4034 120.312 32.892C120.809 33.3769 121.057 34.1326 121.057 35.1591V41H119.716V35.1591C119.716 34.5152 119.54 34.0549 119.188 33.7784C118.835 33.5019 118.42 33.3636 117.943 33.3636C117.33 33.3636 116.854 33.5492 116.517 33.9205C116.18 34.2879 116.011 34.7538 116.011 35.3182V41H114.648V35.0227C114.648 34.5265 114.487 34.1269 114.165 33.8239C113.843 33.517 113.428 33.3636 112.92 33.3636C112.572 33.3636 112.246 33.4564 111.943 33.642C111.644 33.8277 111.402 34.0852 111.216 34.4148C111.034 34.7405 110.943 35.1174 110.943 35.5455V41H109.602ZM127.168 41.1818C126.327 41.1818 125.601 40.9962 124.991 40.625C124.385 40.25 123.918 39.7273 123.588 39.0568C123.262 38.3826 123.099 37.5985 123.099 36.7045C123.099 35.8106 123.262 35.0227 123.588 34.3409C123.918 33.6553 124.376 33.1212 124.963 32.7386C125.554 32.3523 126.243 32.1591 127.031 32.1591C127.486 32.1591 127.935 32.2348 128.378 32.3864C128.821 32.5379 129.224 32.7841 129.588 33.125C129.952 33.4621 130.241 33.9091 130.457 34.4659C130.673 35.0227 130.781 35.7083 130.781 36.5227V37.0909H124.054V35.9318H129.418C129.418 35.4394 129.319 35 129.122 34.6136C128.929 34.2273 128.652 33.9223 128.293 33.6989C127.937 33.4754 127.516 33.3636 127.031 33.3636C126.497 33.3636 126.035 33.4962 125.645 33.7614C125.259 34.0227 124.961 34.3636 124.753 34.7841C124.545 35.2045 124.44 35.6553 124.44 36.1364V36.9091C124.44 37.5682 124.554 38.1269 124.781 38.5852C125.012 39.0398 125.332 39.3864 125.741 39.625C126.151 39.8598 126.626 39.9773 127.168 39.9773C127.52 39.9773 127.838 39.928 128.122 39.8295C128.41 39.7273 128.658 39.5758 128.866 39.375C129.075 39.1705 129.236 38.9167 129.349 38.6136L130.645 38.9773C130.509 39.4167 130.279 39.803 129.957 40.1364C129.635 40.4659 129.238 40.7235 128.764 40.9091C128.291 41.0909 127.759 41.1818 127.168 41.1818ZM134.162 35.75V41H132.821V32.2727H134.116V33.6364H134.23C134.435 33.1932 134.745 32.8371 135.162 32.5682C135.579 32.2955 136.116 32.1591 136.776 32.1591C137.366 32.1591 137.884 32.2803 138.327 32.5227C138.77 32.7614 139.115 33.125 139.361 33.6136C139.607 34.0985 139.73 34.7121 139.73 35.4545V41H138.389V35.5455C138.389 34.8598 138.211 34.3258 137.855 33.9432C137.499 33.5568 137.01 33.3636 136.389 33.3636C135.961 33.3636 135.579 33.4564 135.241 33.642C134.908 33.8277 134.645 34.0985 134.452 34.4545C134.259 34.8106 134.162 35.2424 134.162 35.75ZM145.976 32.2727V33.4091H141.453V32.2727H145.976ZM142.771 30.1818H144.112V38.5C144.112 38.8788 144.167 39.1629 144.277 39.3523C144.391 39.5379 144.535 39.6629 144.709 39.7273C144.887 39.7879 145.074 39.8182 145.271 39.8182C145.419 39.8182 145.54 39.8106 145.635 39.7955C145.73 39.7765 145.805 39.7614 145.862 39.75L146.135 40.9545C146.044 40.9886 145.917 41.0227 145.754 41.0568C145.591 41.0947 145.385 41.1136 145.135 41.1136C144.756 41.1136 144.385 41.0322 144.021 40.8693C143.661 40.7064 143.362 40.4583 143.124 40.125C142.889 39.7917 142.771 39.3712 142.771 38.8636V30.1818ZM154.018 34.2273L152.814 34.5682C152.738 34.3674 152.626 34.1723 152.479 33.983C152.335 33.7898 152.138 33.6307 151.888 33.5057C151.638 33.3807 151.318 33.3182 150.928 33.3182C150.393 33.3182 149.948 33.4413 149.592 33.6875C149.24 33.9299 149.064 34.2386 149.064 34.6136C149.064 34.947 149.185 35.2102 149.428 35.4034C149.67 35.5966 150.049 35.7576 150.564 35.8864L151.859 36.2045C152.64 36.3939 153.221 36.6837 153.604 37.0739C153.986 37.4602 154.178 37.9583 154.178 38.5682C154.178 39.0682 154.034 39.5152 153.746 39.9091C153.462 40.303 153.064 40.6136 152.553 40.8409C152.041 41.0682 151.446 41.1818 150.768 41.1818C149.878 41.1818 149.142 40.9886 148.558 40.6023C147.975 40.2159 147.606 39.6515 147.45 38.9091L148.723 38.5909C148.844 39.0606 149.073 39.4129 149.411 39.6477C149.751 39.8826 150.196 40 150.746 40C151.371 40 151.867 39.8674 152.234 39.6023C152.606 39.3333 152.791 39.0114 152.791 38.6364C152.791 38.3333 152.685 38.0795 152.473 37.875C152.261 37.6667 151.935 37.5114 151.496 37.4091L150.041 37.0682C149.242 36.8788 148.655 36.5852 148.28 36.1875C147.909 35.786 147.723 35.2841 147.723 34.6818C147.723 34.1894 147.861 33.7538 148.138 33.375C148.418 32.9962 148.799 32.6989 149.28 32.483C149.765 32.267 150.314 32.1591 150.928 32.1591C151.791 32.1591 152.469 32.3485 152.962 32.7273C153.458 33.1061 153.81 33.6061 154.018 34.2273Z" fill="#8B96A5"/>
<path d="M6.36364 21H1.43466V6.45455H6.46307C7.9072 6.45455 9.14773 6.74574 10.1847 7.32812C11.2263 7.90578 12.0265 8.73674 12.5852 9.82102C13.1439 10.9053 13.4233 12.2027 13.4233 13.7131C13.4233 15.2282 13.1416 16.5303 12.5781 17.6193C12.0194 18.7083 11.2121 19.544 10.1562 20.1264C9.10511 20.7088 7.84091 21 6.36364 21ZM4.0696 18.7202H6.2358C7.24905 18.7202 8.09422 18.5355 8.77131 18.1662C9.44839 17.7921 9.95739 17.2358 10.2983 16.4972C10.6392 15.7538 10.8097 14.8258 10.8097 13.7131C10.8097 12.6004 10.6392 11.6771 10.2983 10.9432C9.95739 10.2045 9.45313 9.65294 8.78551 9.28835C8.12263 8.91903 7.29877 8.73438 6.31392 8.73438H4.0696V18.7202ZM20.4428 21.2131C19.349 21.2131 18.4044 20.9858 17.6089 20.5312C16.8182 20.072 16.2098 19.4233 15.7837 18.5852C15.3575 17.7424 15.1445 16.7505 15.1445 15.6094C15.1445 14.4872 15.3575 13.5024 15.7837 12.6548C16.2145 11.8026 16.8159 11.1397 17.5876 10.6662C18.3594 10.188 19.2661 9.94886 20.3078 9.94886C20.9802 9.94886 21.6146 10.0578 22.2112 10.2756C22.8125 10.4886 23.3429 10.8201 23.8021 11.2699C24.2661 11.7197 24.6307 12.2926 24.8959 12.9886C25.161 13.6799 25.2936 14.5038 25.2936 15.4602V16.2486H16.3518V14.5156H22.8291C22.8244 14.0232 22.7179 13.5852 22.5095 13.2017C22.3012 12.8134 22.01 12.508 21.6359 12.2855C21.2666 12.063 20.8357 11.9517 20.3433 11.9517C19.8178 11.9517 19.3561 12.0795 18.9584 12.3352C18.5607 12.5862 18.2505 12.9176 18.028 13.3295C17.8102 13.7367 17.6989 14.1842 17.6942 14.6719V16.1847C17.6942 16.8191 17.8102 17.3636 18.0422 17.8182C18.2742 18.268 18.5985 18.6136 19.0152 18.8551C19.4319 19.0919 19.9196 19.2102 20.4783 19.2102C20.8523 19.2102 21.1909 19.1581 21.4939 19.054C21.7969 18.9451 22.0597 18.7865 22.2822 18.5781C22.5048 18.3698 22.6729 18.1117 22.7865 17.804L25.1871 18.0739C25.0356 18.7083 24.7467 19.2623 24.3206 19.7358C23.8992 20.2045 23.3594 20.5691 22.7013 20.8295C22.0431 21.0852 21.2903 21.2131 20.4428 21.2131ZM30.4079 21.2202C29.7166 21.2202 29.094 21.0971 28.54 20.8509C27.9907 20.5999 27.5551 20.2306 27.2332 19.7429C26.9159 19.2552 26.7573 18.6539 26.7573 17.9389C26.7573 17.3234 26.871 16.8144 27.0982 16.4119C27.3255 16.0095 27.6356 15.6875 28.0286 15.446C28.4216 15.2045 28.8643 15.0223 29.3567 14.8991C29.8539 14.7713 30.3676 14.679 30.8979 14.6222C31.5371 14.5559 32.0556 14.4967 32.4533 14.4446C32.8511 14.3878 33.1399 14.3026 33.3198 14.1889C33.5045 14.0705 33.5968 13.8883 33.5968 13.642V13.5994C33.5968 13.0644 33.4382 12.6501 33.121 12.3565C32.8037 12.063 32.3468 11.9162 31.7502 11.9162C31.1205 11.9162 30.621 12.0535 30.2516 12.3281C29.8871 12.6027 29.6408 12.9271 29.513 13.3011L27.1124 12.9602C27.3018 12.2973 27.6143 11.7434 28.0499 11.2983C28.4855 10.8485 29.0182 10.5123 29.6479 10.2898C30.2777 10.0625 30.9737 9.94886 31.736 9.94886C32.2616 9.94886 32.7848 10.0104 33.3056 10.1335C33.8264 10.2566 34.3023 10.4602 34.7332 10.7443C35.164 11.0237 35.5097 11.4048 35.7701 11.8878C36.0353 12.3707 36.1678 12.9744 36.1678 13.6989V21H33.6962V19.5014H33.611C33.4548 19.8045 33.2346 20.0885 32.9505 20.3537C32.6711 20.6141 32.3184 20.8248 31.8923 20.9858C31.4709 21.142 30.9761 21.2202 30.4079 21.2202ZM31.0755 19.331C31.5916 19.331 32.039 19.2292 32.4178 19.0256C32.7966 18.8172 33.0878 18.5426 33.2914 18.2017C33.4997 17.8608 33.6039 17.4891 33.6039 17.0866V15.8011C33.5234 15.8674 33.3861 15.929 33.192 15.9858C33.0026 16.0426 32.7895 16.0923 32.5528 16.1349C32.316 16.1776 32.0817 16.2154 31.8496 16.2486C31.6176 16.2817 31.4164 16.3101 31.246 16.3338C30.8624 16.3859 30.5192 16.4711 30.2161 16.5895C29.9131 16.7079 29.674 16.8736 29.4988 17.0866C29.3236 17.295 29.236 17.5649 29.236 17.8963C29.236 18.3698 29.4088 18.7273 29.7545 18.9688C30.1001 19.2102 30.5405 19.331 31.0755 19.331ZM41.1241 6.45455V21H38.5531V6.45455H41.1241ZM52.1901 12.9744L49.8463 13.2301C49.78 12.9934 49.664 12.7708 49.4983 12.5625C49.3373 12.3542 49.1195 12.1861 48.8449 12.0582C48.5703 11.9304 48.2341 11.8665 47.8364 11.8665C47.3013 11.8665 46.8515 11.9825 46.4869 12.2145C46.1271 12.4465 45.9495 12.7472 45.9543 13.1165C45.9495 13.4337 46.0655 13.6918 46.3023 13.8906C46.5438 14.0895 46.9415 14.2528 47.4955 14.3807L49.3563 14.7784C50.3884 15.0009 51.1555 15.3537 51.6574 15.8366C52.164 16.3196 52.4197 16.9517 52.4244 17.733C52.4197 18.4195 52.2185 19.0256 51.8207 19.5511C51.4277 20.072 50.8809 20.4792 50.1801 20.7727C49.4794 21.0663 48.6744 21.2131 47.7653 21.2131C46.4301 21.2131 45.3553 20.9337 44.5409 20.375C43.7265 19.8116 43.2412 19.0279 43.0849 18.0241L45.592 17.7827C45.7057 18.2751 45.9472 18.6468 46.3165 18.8977C46.6858 19.1487 47.1664 19.2741 47.7582 19.2741C48.369 19.2741 48.8591 19.1487 49.2284 18.8977C49.6025 18.6468 49.7895 18.3366 49.7895 17.9673C49.7895 17.6548 49.6688 17.3968 49.4273 17.1932C49.1905 16.9896 48.8212 16.8333 48.3193 16.7244L46.4585 16.3338C45.4121 16.116 44.638 15.7491 44.1361 15.233C43.6342 14.7121 43.3856 14.054 43.3903 13.2585C43.3856 12.5862 43.5679 12.0038 43.9372 11.5114C44.3113 11.0142 44.8297 10.6307 45.4926 10.3608C46.1602 10.0862 46.9296 9.94886 47.8009 9.94886C49.0793 9.94886 50.0854 10.2211 50.8193 10.7656C51.558 11.3101 52.0149 12.0464 52.1901 12.9744ZM62.2446 21.2202C61.5533 21.2202 60.9307 21.0971 60.3767 20.8509C59.8275 20.5999 59.3919 20.2306 59.0699 19.7429C58.7527 19.2552 58.594 18.6539 58.594 17.9389C58.594 17.3234 58.7077 16.8144 58.9349 16.4119C59.1622 16.0095 59.4723 15.6875 59.8653 15.446C60.2583 15.2045 60.701 15.0223 61.1935 14.8991C61.6906 14.7713 62.2044 14.679 62.7347 14.6222C63.3739 14.5559 63.8923 14.4967 64.2901 14.4446C64.6878 14.3878 64.9766 14.3026 65.1565 14.1889C65.3412 14.0705 65.4335 13.8883 65.4335 13.642V13.5994C65.4335 13.0644 65.2749 12.6501 64.9577 12.3565C64.6404 12.063 64.1835 11.9162 63.5869 11.9162C62.9572 11.9162 62.4577 12.0535 62.0884 12.3281C61.7238 12.6027 61.4776 12.9271 61.3497 13.3011L58.9491 12.9602C59.1385 12.2973 59.451 11.7434 59.8866 11.2983C60.3223 10.8485 60.8549 10.5123 61.4847 10.2898C62.1144 10.0625 62.8104 9.94886 63.5727 9.94886C64.0983 9.94886 64.6215 10.0104 65.1423 10.1335C65.6632 10.2566 66.139 10.4602 66.5699 10.7443C67.0008 11.0237 67.3464 11.4048 67.6068 11.8878C67.872 12.3707 68.0045 12.9744 68.0045 13.6989V21H65.533V19.5014H65.4477C65.2915 19.8045 65.0713 20.0885 64.7872 20.3537C64.5079 20.6141 64.1551 20.8248 63.729 20.9858C63.3076 21.142 62.8128 21.2202 62.2446 21.2202ZM62.9122 19.331C63.4283 19.331 63.8758 19.2292 64.2545 19.0256C64.6333 18.8172 64.9245 18.5426 65.1281 18.2017C65.3365 17.8608 65.4406 17.4891 65.4406 17.0866V15.8011C65.3601 15.8674 65.2228 15.929 65.0287 15.9858C64.8393 16.0426 64.6262 16.0923 64.3895 16.1349C64.1527 16.1776 63.9184 16.2154 63.6864 16.2486C63.4544 16.2817 63.2531 16.3101 63.0827 16.3338C62.6991 16.3859 62.3559 16.4711 62.0528 16.5895C61.7498 16.7079 61.5107 16.8736 61.3355 17.0866C61.1603 17.295 61.0727 17.5649 61.0727 17.8963C61.0727 18.3698 61.2455 18.7273 61.5912 18.9688C61.9368 19.2102 62.3772 19.331 62.9122 19.331ZM72.9608 14.608V21H70.3898V10.0909H72.8472V11.9446H72.975C73.2259 11.3338 73.626 10.8485 74.1753 10.4886C74.7293 10.1288 75.4134 9.94886 76.2278 9.94886C76.9807 9.94886 77.6365 10.1098 78.1952 10.4318C78.7586 10.7538 79.1942 11.2202 79.502 11.831C79.8145 12.4418 79.9684 13.1828 79.9636 14.054V21H77.3926V14.4517C77.3926 13.7225 77.2032 13.152 76.8244 12.7401C76.4504 12.3281 75.9319 12.1222 75.269 12.1222C74.8192 12.1222 74.4191 12.2216 74.0687 12.4205C73.7231 12.6146 73.4509 12.8963 73.252 13.2656C73.0579 13.6349 72.9608 14.0824 72.9608 14.608ZM86.4256 21.1918C85.5686 21.1918 84.8015 20.9716 84.1244 20.5312C83.4474 20.0909 82.9123 19.4517 82.5193 18.6136C82.1263 17.7756 81.9298 16.7576 81.9298 15.5597C81.9298 14.3475 82.1287 13.3248 82.5264 12.4915C82.9289 11.6534 83.471 11.0213 84.1528 10.5952C84.8347 10.1643 85.5946 9.94886 86.4327 9.94886C87.0719 9.94886 87.5974 10.0578 88.0094 10.2756C88.4213 10.4886 88.748 10.7467 88.9895 11.0497C89.231 11.348 89.418 11.6297 89.5506 11.8949H89.6571V6.45455H92.2352V21H89.7068V19.2812H89.5506C89.418 19.5464 89.2262 19.8281 88.9753 20.1264C88.7243 20.42 88.3929 20.6709 87.981 20.8793C87.569 21.0876 87.0506 21.1918 86.4256 21.1918ZM87.1429 19.0824C87.6874 19.0824 88.1514 18.9356 88.5349 18.642C88.9185 18.3437 89.2097 17.9295 89.4085 17.3991C89.6074 16.8688 89.7068 16.2509 89.7068 15.5455C89.7068 14.84 89.6074 14.2268 89.4085 13.706C89.2144 13.1851 88.9256 12.7803 88.542 12.4915C88.1633 12.2027 87.6969 12.0582 87.1429 12.0582C86.57 12.0582 86.0918 12.2074 85.7082 12.5057C85.3247 12.804 85.0359 13.2159 84.8418 13.7415C84.6476 14.267 84.5506 14.8684 84.5506 15.5455C84.5506 16.2273 84.6476 16.8357 84.8418 17.3707C85.0406 17.901 85.3318 18.3201 85.7153 18.6278C86.1036 18.9309 86.5795 19.0824 87.1429 19.0824ZM104.294 21.2131C103.229 21.2131 102.306 20.9787 101.525 20.5099C100.743 20.0412 100.137 19.3854 99.7063 18.5426C99.2802 17.6998 99.0671 16.715 99.0671 15.5881C99.0671 14.4612 99.2802 13.474 99.7063 12.6264C100.137 11.7789 100.743 11.1207 101.525 10.652C102.306 10.1832 103.229 9.94886 104.294 9.94886C105.36 9.94886 106.283 10.1832 107.064 10.652C107.846 11.1207 108.449 11.7789 108.875 12.6264C109.306 13.474 109.522 14.4612 109.522 15.5881C109.522 16.715 109.306 17.6998 108.875 18.5426C108.449 19.3854 107.846 20.0412 107.064 20.5099C106.283 20.9787 105.36 21.2131 104.294 21.2131ZM104.309 19.1534C104.886 19.1534 105.369 18.9948 105.757 18.6776C106.146 18.3556 106.435 17.9247 106.624 17.3849C106.818 16.8452 106.915 16.2438 106.915 15.581C106.915 14.9134 106.818 14.3097 106.624 13.7699C106.435 13.2254 106.146 12.7921 105.757 12.4702C105.369 12.1482 104.886 11.9872 104.309 11.9872C103.717 11.9872 103.224 12.1482 102.831 12.4702C102.443 12.7921 102.152 13.2254 101.958 13.7699C101.768 14.3097 101.674 14.9134 101.674 15.581C101.674 16.2438 101.768 16.8452 101.958 17.3849C102.152 17.9247 102.443 18.3556 102.831 18.6776C103.224 18.9948 103.717 19.1534 104.309 19.1534ZM117.029 10.0909V12.0795H110.581V10.0909H117.029ZM112.193 21V9.06108C112.193 8.32718 112.344 7.71638 112.647 7.22869C112.955 6.741 113.367 6.37642 113.883 6.13494C114.399 5.89347 114.972 5.77273 115.602 5.77273C116.047 5.77273 116.442 5.80824 116.788 5.87926C117.134 5.95028 117.389 6.0142 117.555 6.07102L117.044 8.05966C116.935 8.02651 116.797 7.99337 116.632 7.96023C116.466 7.92235 116.281 7.90341 116.078 7.90341C115.599 7.90341 115.261 8.01941 115.062 8.25142C114.868 8.47869 114.771 8.8054 114.771 9.23153V21H112.193ZM124.368 10.0909V12.0795H117.92V10.0909H124.368ZM119.532 21V9.06108C119.532 8.32718 119.683 7.71638 119.986 7.22869C120.294 6.741 120.706 6.37642 121.222 6.13494C121.738 5.89347 122.311 5.77273 122.941 5.77273C123.386 5.77273 123.781 5.80824 124.127 5.87926C124.473 5.95028 124.728 6.0142 124.894 6.07102L124.383 8.05966C124.274 8.02651 124.136 7.99337 123.971 7.96023C123.805 7.92235 123.62 7.90341 123.417 7.90341C122.939 7.90341 122.6 8.01941 122.401 8.25142C122.207 8.47869 122.11 8.8054 122.11 9.23153V21H119.532ZM130.601 21.2131C129.508 21.2131 128.563 20.9858 127.768 20.5312C126.977 20.072 126.368 19.4233 125.942 18.5852C125.516 17.7424 125.303 16.7505 125.303 15.6094C125.303 14.4872 125.516 13.5024 125.942 12.6548C126.373 11.8026 126.974 11.1397 127.746 10.6662C128.518 10.188 129.425 9.94886 130.466 9.94886C131.139 9.94886 131.773 10.0578 132.37 10.2756C132.971 10.4886 133.501 10.8201 133.961 11.2699C134.425 11.7197 134.789 12.2926 135.054 12.9886C135.32 13.6799 135.452 14.5038 135.452 15.4602V16.2486H126.51V14.5156H132.988C132.983 14.0232 132.876 13.5852 132.668 13.2017C132.46 12.8134 132.169 12.508 131.795 12.2855C131.425 12.063 130.994 11.9517 130.502 11.9517C129.976 11.9517 129.515 12.0795 129.117 12.3352C128.719 12.5862 128.409 12.9176 128.187 13.3295C127.969 13.7367 127.858 14.1842 127.853 14.6719V16.1847C127.853 16.8191 127.969 17.3636 128.201 17.8182C128.433 18.268 128.757 18.6136 129.174 18.8551C129.59 19.0919 130.078 19.2102 130.637 19.2102C131.011 19.2102 131.349 19.1581 131.652 19.054C131.956 18.9451 132.218 18.7865 132.441 18.5781C132.663 18.3698 132.831 18.1117 132.945 17.804L135.346 18.0739C135.194 18.7083 134.905 19.2623 134.479 19.7358C134.058 20.2045 133.518 20.5691 132.86 20.8295C132.202 21.0852 131.449 21.2131 130.601 21.2131ZM137.427 21V10.0909H139.92V11.9091H140.034C140.233 11.2794 140.574 10.794 141.057 10.4531C141.544 10.1075 142.101 9.93466 142.726 9.93466C142.868 9.93466 143.026 9.94176 143.201 9.95597C143.381 9.96544 143.53 9.98201 143.649 10.0057V12.3707C143.54 12.3329 143.367 12.2997 143.13 12.2713C142.898 12.2382 142.673 12.2216 142.456 12.2216C141.987 12.2216 141.566 12.3234 141.191 12.527C140.822 12.7259 140.531 13.0028 140.318 13.358C140.105 13.7131 139.998 14.1226 139.998 14.5866V21H137.427ZM153.779 12.9744L151.435 13.2301C151.369 12.9934 151.253 12.7708 151.087 12.5625C150.926 12.3542 150.709 12.1861 150.434 12.0582C150.159 11.9304 149.823 11.8665 149.425 11.8665C148.89 11.8665 148.441 11.9825 148.076 12.2145C147.716 12.4465 147.539 12.7472 147.543 13.1165C147.539 13.4337 147.655 13.6918 147.891 13.8906C148.133 14.0895 148.531 14.2528 149.085 14.3807L150.945 14.7784C151.978 15.0009 152.745 15.3537 153.246 15.8366C153.753 16.3196 154.009 16.9517 154.013 17.733C154.009 18.4195 153.808 19.0256 153.41 19.5511C153.017 20.072 152.47 20.4792 151.769 20.7727C151.068 21.0663 150.263 21.2131 149.354 21.2131C148.019 21.2131 146.944 20.9337 146.13 20.375C145.316 19.8116 144.83 19.0279 144.674 18.0241L147.181 17.7827C147.295 18.2751 147.536 18.6468 147.906 18.8977C148.275 19.1487 148.755 19.2741 149.347 19.2741C149.958 19.2741 150.448 19.1487 150.817 18.8977C151.192 18.6468 151.379 18.3366 151.379 17.9673C151.379 17.6548 151.258 17.3968 151.016 17.1932C150.78 16.9896 150.41 16.8333 149.908 16.7244L148.048 16.3338C147.001 16.116 146.227 15.7491 145.725 15.233C145.223 14.7121 144.975 14.054 144.979 13.2585C144.975 12.5862 145.157 12.0038 145.526 11.5114C145.9 11.0142 146.419 10.6307 147.082 10.3608C147.749 10.0862 148.519 9.94886 149.39 9.94886C150.668 9.94886 151.674 10.2211 152.408 10.7656C153.147 11.3101 153.604 12.0464 153.779 12.9744Z" fill="#1C1C1C"/>
</svg>
