<svg width="96" height="59" viewBox="0 0 96 59" fill="none" xmlns="http://www.w3.org/2000/svg">
<rect x="16" y="31" width="61" height="28" rx="14" fill="#FFE3E3"/>
<path d="M34.8328 44.2628V45.5554H30.3186V44.2628H34.8328ZM36.1839 50V48.8864L39.6292 45.3168C39.9971 44.929 40.3004 44.5893 40.539 44.2976C40.781 44.0026 40.9616 43.7225 41.0809 43.4574C41.2002 43.1922 41.2599 42.9105 41.2599 42.6122C41.2599 42.2741 41.1803 41.9825 41.0213 41.7372C40.8622 41.4886 40.6451 41.2981 40.37 41.1655C40.0949 41.0296 39.785 40.9616 39.4403 40.9616C39.0757 40.9616 38.7575 41.0362 38.4857 41.1854C38.214 41.3345 38.0052 41.545 37.8593 41.8168C37.7135 42.0885 37.6406 42.4067 37.6406 42.7713H36.174C36.174 42.1515 36.3165 41.6096 36.6015 41.1456C36.8865 40.6816 37.2776 40.322 37.7748 40.0668C38.272 39.8082 38.8371 39.679 39.4701 39.679C40.1098 39.679 40.6732 39.8066 41.1605 40.0618C41.651 40.3137 42.0338 40.6584 42.3089 41.0959C42.584 41.5301 42.7215 42.0206 42.7215 42.5675C42.7215 42.9453 42.6503 43.3149 42.5078 43.6761C42.3686 44.0374 42.1249 44.4401 41.7769 44.8842C41.4289 45.325 40.945 45.8603 40.3252 46.4901L38.3018 48.608V48.6825H42.8856V50H36.1839ZM47.9306 50.1392C47.3075 50.1392 46.7474 50.0199 46.2502 49.7812C45.7564 49.5393 45.362 49.2079 45.067 48.7869C44.772 48.366 44.6146 47.8854 44.5947 47.3452H46.0862C46.1226 47.7827 46.3165 48.1423 46.6678 48.424C47.0192 48.7057 47.4401 48.8466 47.9306 48.8466C48.3217 48.8466 48.6681 48.7571 48.9697 48.5781C49.2746 48.3958 49.5133 48.1456 49.6856 47.8274C49.8613 47.5092 49.9491 47.1463 49.9491 46.7386C49.9491 46.3243 49.8596 45.9548 49.6806 45.63C49.5017 45.3052 49.2547 45.05 48.9399 44.8643C48.6283 44.6787 48.2704 44.5843 47.866 44.581C47.5578 44.581 47.2479 44.634 46.9363 44.7401C46.6248 44.8461 46.3729 44.9853 46.1806 45.1577L44.7737 44.9489L45.3454 39.8182H50.9434V41.1357H46.6231L46.2999 43.9844H46.3596C46.5585 43.7921 46.822 43.6314 47.1501 43.5021C47.4815 43.3729 47.8362 43.3082 48.214 43.3082C48.8338 43.3082 49.3856 43.4557 49.8695 43.7507C50.3568 44.0457 50.7396 44.4484 51.018 44.9588C51.2997 45.4659 51.4389 46.0492 51.4356 46.7088C51.4389 47.3684 51.2898 47.9567 50.9882 48.4737C50.6899 48.9908 50.2756 49.3984 49.7453 49.6967C49.2183 49.9917 48.6134 50.1392 47.9306 50.1392ZM58.3661 48.0909V47.554C58.3661 47.1695 58.4456 46.8182 58.6047 46.5C58.7671 46.1785 59.0025 45.9216 59.3107 45.7294C59.6223 45.5339 59.9984 45.4361 60.4393 45.4361C60.89 45.4361 61.2679 45.5322 61.5728 45.7244C61.8777 45.9167 62.1081 46.1735 62.2638 46.495C62.4229 46.8165 62.5025 47.1695 62.5025 47.554V48.0909C62.5025 48.4754 62.4229 48.8284 62.2638 49.1499C62.1047 49.468 61.8711 49.7249 61.5628 49.9205C61.2579 50.1127 60.8834 50.2088 60.4393 50.2088C59.9918 50.2088 59.614 50.1127 59.3057 49.9205C58.9975 49.7249 58.7638 49.468 58.6047 49.1499C58.4456 48.8284 58.3661 48.4754 58.3661 48.0909ZM59.5245 47.554V48.0909C59.5245 48.3759 59.5924 48.6345 59.7283 48.8665C59.8642 49.0985 60.1012 49.2145 60.4393 49.2145C60.774 49.2145 61.0077 49.0985 61.1403 48.8665C61.2728 48.6345 61.3391 48.3759 61.3391 48.0909V47.554C61.3391 47.2689 61.2745 47.0104 61.1452 46.7784C61.0193 46.5464 60.784 46.4304 60.4393 46.4304C60.1078 46.4304 59.8725 46.5464 59.7333 46.7784C59.5941 47.0104 59.5245 47.2689 59.5245 47.554ZM53.2454 42.2642V41.7273C53.2454 41.3428 53.3249 40.9898 53.484 40.6683C53.6464 40.3468 53.8817 40.09 54.19 39.8977C54.5015 39.7055 54.8777 39.6094 55.3185 39.6094C55.7693 39.6094 56.1471 39.7055 56.452 39.8977C56.757 40.09 56.9873 40.3468 57.1431 40.6683C57.2989 40.9898 57.3768 41.3428 57.3768 41.7273V42.2642C57.3768 42.6487 57.2972 43.0017 57.1381 43.3232C56.9823 43.6413 56.7503 43.8982 56.4421 44.0938C56.1372 44.286 55.7626 44.3821 55.3185 44.3821C54.8678 44.3821 54.4883 44.286 54.18 44.0938C53.8751 43.8982 53.6431 43.6413 53.484 43.3232C53.3249 43.0017 53.2454 42.6487 53.2454 42.2642ZM54.4087 41.7273V42.2642C54.4087 42.5492 54.475 42.8078 54.6076 43.0398C54.7435 43.2718 54.9805 43.3878 55.3185 43.3878C55.65 43.3878 55.882 43.2718 56.0145 43.0398C56.1504 42.8078 56.2184 42.5492 56.2184 42.2642V41.7273C56.2184 41.4422 56.1537 41.1837 56.0245 40.9517C55.8952 40.7197 55.6599 40.6037 55.3185 40.6037C54.9871 40.6037 54.7518 40.7197 54.6126 40.9517C54.4767 41.1837 54.4087 41.4422 54.4087 41.7273ZM53.7177 50L60.7177 39.8182H61.9059L54.9059 50H53.7177Z" fill="#EB001B"/>
<path d="M2.2212 18V6.36364H3.63029V11.5455H9.83484V6.36364H11.2439V18H9.83484V12.7955H3.63029V18H2.2212ZM17.3422 18.1818C16.5013 18.1818 15.7759 17.9962 15.1661 17.625C14.56 17.25 14.0922 16.7273 13.7627 16.0568C13.4369 15.3826 13.274 14.5985 13.274 13.7045C13.274 12.8106 13.4369 12.0227 13.7627 11.3409C14.0922 10.6553 14.5506 10.1212 15.1377 9.73864C15.7286 9.35227 16.418 9.15909 17.2059 9.15909C17.6604 9.15909 18.1093 9.23485 18.5525 9.38636C18.9956 9.53788 19.399 9.78409 19.7627 10.125C20.1263 10.4621 20.4161 10.9091 20.632 11.4659C20.8479 12.0227 20.9559 12.7083 20.9559 13.5227V14.0909H14.2286V12.9318H19.5922C19.5922 12.4394 19.4937 12 19.2968 11.6136C19.1036 11.2273 18.8271 10.9223 18.4672 10.6989C18.1112 10.4754 17.6907 10.3636 17.2059 10.3636C16.6718 10.3636 16.2096 10.4962 15.8195 10.7614C15.4331 11.0227 15.1358 11.3636 14.9275 11.7841C14.7191 12.2045 14.615 12.6553 14.615 13.1364V13.9091C14.615 14.5682 14.7286 15.1269 14.9559 15.5852C15.1869 16.0398 15.507 16.3864 15.9161 16.625C16.3252 16.8598 16.8006 16.9773 17.3422 16.9773C17.6945 16.9773 18.0127 16.928 18.2968 16.8295C18.5846 16.7273 18.8328 16.5758 19.0411 16.375C19.2494 16.1705 19.4104 15.9167 19.524 15.6136L20.8195 15.9773C20.6831 16.4167 20.454 16.803 20.132 17.1364C19.81 17.4659 19.4123 17.7235 18.9388 17.9091C18.4653 18.0909 17.9331 18.1818 17.3422 18.1818ZM25.3638 18.2045C24.8108 18.2045 24.3089 18.1004 23.8581 17.892C23.4074 17.6799 23.0494 17.375 22.7843 16.9773C22.5191 16.5758 22.3865 16.0909 22.3865 15.5227C22.3865 15.0227 22.485 14.6174 22.682 14.3068C22.879 13.9924 23.1422 13.7462 23.4718 13.5682C23.8013 13.3902 24.165 13.2576 24.5627 13.1705C24.9642 13.0795 25.3676 13.0076 25.7729 12.9545C26.3032 12.8864 26.7331 12.8352 27.0627 12.8011C27.396 12.7633 27.6384 12.7008 27.79 12.6136C27.9453 12.5265 28.0229 12.375 28.0229 12.1591V12.1136C28.0229 11.553 27.8695 11.1174 27.5627 10.8068C27.2596 10.4962 26.7994 10.3409 26.182 10.3409C25.5418 10.3409 25.04 10.4811 24.6763 10.7614C24.3127 11.0417 24.057 11.3409 23.9093 11.6591L22.6365 11.2045C22.8638 10.6742 23.1668 10.2614 23.5456 9.96591C23.9282 9.66667 24.3449 9.45833 24.7956 9.34091C25.2502 9.2197 25.6971 9.15909 26.1365 9.15909C26.4168 9.15909 26.7388 9.19318 27.1025 9.26136C27.4699 9.32576 27.824 9.46023 28.165 9.66477C28.5096 9.86932 28.7956 10.178 29.0229 10.5909C29.2502 11.0038 29.3638 11.5568 29.3638 12.25V18H28.0229V16.8182H27.9547C27.8638 17.0076 27.7123 17.2102 27.5002 17.4261C27.2881 17.642 27.0059 17.8258 26.6536 17.9773C26.3013 18.1288 25.8714 18.2045 25.3638 18.2045ZM25.5684 17C26.0987 17 26.5456 16.8958 26.9093 16.6875C27.2767 16.4792 27.5532 16.2102 27.7388 15.8807C27.9282 15.5511 28.0229 15.2045 28.0229 14.8409V13.6136C27.9661 13.6818 27.8411 13.7443 27.6479 13.8011C27.4585 13.8542 27.2388 13.9015 26.9888 13.9432C26.7426 13.9811 26.5021 14.0152 26.2672 14.0455C26.0362 14.072 25.8487 14.0947 25.7047 14.1136C25.3562 14.1591 25.0305 14.233 24.7275 14.3352C24.4282 14.4337 24.1858 14.5833 24.0002 14.7841C23.8184 14.9811 23.7275 15.25 23.7275 15.5909C23.7275 16.0568 23.8998 16.4091 24.2445 16.6477C24.593 16.8826 25.0343 17 25.5684 17ZM34.9067 18.1818C34.1794 18.1818 33.5374 17.9981 32.9806 17.6307C32.4238 17.2595 31.9882 16.7367 31.6738 16.0625C31.3594 15.3845 31.2022 14.5833 31.2022 13.6591C31.2022 12.7424 31.3594 11.947 31.6738 11.2727C31.9882 10.5985 32.4257 10.0777 32.9863 9.71023C33.5469 9.3428 34.1946 9.15909 34.9294 9.15909C35.4976 9.15909 35.9465 9.25379 36.276 9.44318C36.6094 9.62879 36.8632 9.84091 37.0374 10.0795C37.2154 10.3144 37.3537 10.5076 37.4522 10.6591H37.5658V6.36364H38.9067V18H37.6113V16.6591H37.4522C37.3537 16.8182 37.2135 17.0189 37.0317 17.2614C36.8499 17.5 36.5904 17.714 36.2533 17.9034C35.9162 18.089 35.4673 18.1818 34.9067 18.1818ZM35.0885 16.9773C35.6264 16.9773 36.081 16.8371 36.4522 16.5568C36.8234 16.2727 37.1056 15.8807 37.2988 15.3807C37.4919 14.8769 37.5885 14.2955 37.5885 13.6364C37.5885 12.9848 37.4938 12.4148 37.3044 11.9261C37.115 11.4337 36.8347 11.0511 36.4635 10.7784C36.0923 10.5019 35.634 10.3636 35.0885 10.3636C34.5203 10.3636 34.0469 10.5095 33.6681 10.8011C33.2931 11.089 33.0109 11.4811 32.8215 11.9773C32.6359 12.4697 32.5431 13.0227 32.5431 13.6364C32.5431 14.2576 32.6378 14.822 32.8272 15.3295C33.0203 15.8333 33.3044 16.2348 33.6794 16.5341C34.0582 16.8295 34.5279 16.9773 35.0885 16.9773ZM41.3488 21.2727V9.27273H42.6442V10.6591H42.8033C42.9018 10.5076 43.0382 10.3144 43.2124 10.0795C43.3904 9.84091 43.6442 9.62879 43.9738 9.44318C44.3071 9.25379 44.7579 9.15909 45.326 9.15909C46.0609 9.15909 46.7086 9.3428 47.2692 9.71023C47.8298 10.0777 48.2673 10.5985 48.5817 11.2727C48.8961 11.947 49.0533 12.7424 49.0533 13.6591C49.0533 14.5833 48.8961 15.3845 48.5817 16.0625C48.2673 16.7367 47.8317 17.2595 47.2749 17.6307C46.7181 17.9981 46.076 18.1818 45.3488 18.1818C44.7882 18.1818 44.3393 18.089 44.0022 17.9034C43.665 17.714 43.4056 17.5 43.2238 17.2614C43.0419 17.0189 42.9018 16.8182 42.8033 16.6591H42.6897V21.2727H41.3488ZM42.6669 13.6364C42.6669 14.2955 42.7635 14.8769 42.9567 15.3807C43.1499 15.8807 43.4321 16.2727 43.8033 16.5568C44.1745 16.8371 44.6291 16.9773 45.1669 16.9773C45.7275 16.9773 46.1954 16.8295 46.5704 16.5341C46.9491 16.2348 47.2332 15.8333 47.4226 15.3295C47.6158 14.822 47.7124 14.2576 47.7124 13.6364C47.7124 13.0227 47.6177 12.4697 47.4283 11.9773C47.2427 11.4811 46.9605 11.089 46.5817 10.8011C46.2067 10.5095 45.7351 10.3636 45.1669 10.3636C44.6215 10.3636 44.1632 10.5019 43.7919 10.7784C43.4207 11.0511 43.1404 11.4337 42.951 11.9261C42.7616 12.4148 42.6669 12.9848 42.6669 13.6364ZM52.2397 12.75V18H50.8988V6.36364H52.2397V10.6364H52.3533C52.5578 10.1856 52.8647 9.82765 53.2738 9.5625C53.6866 9.29356 54.2359 9.15909 54.9215 9.15909C55.5162 9.15909 56.037 9.27841 56.484 9.51705C56.931 9.75189 57.2775 10.1136 57.5238 10.6023C57.7738 11.0871 57.8988 11.7045 57.8988 12.4545V18H56.5578V12.5455C56.5578 11.8523 56.3779 11.3163 56.0181 10.9375C55.662 10.5549 55.1677 10.3636 54.5351 10.3636C54.0957 10.3636 53.7018 10.4564 53.3533 10.642C53.0086 10.8277 52.7359 11.0985 52.5351 11.4545C52.3382 11.8106 52.2397 12.2424 52.2397 12.75ZM63.6973 18.1818C62.9095 18.1818 62.2182 17.9943 61.6235 17.6193C61.0326 17.2443 60.5704 16.7197 60.2371 16.0455C59.9076 15.3712 59.7428 14.5833 59.7428 13.6818C59.7428 12.7727 59.9076 11.9792 60.2371 11.3011C60.5704 10.6231 61.0326 10.0966 61.6235 9.72159C62.2182 9.34659 62.9095 9.15909 63.6973 9.15909C64.4852 9.15909 65.1746 9.34659 65.7655 9.72159C66.3602 10.0966 66.8223 10.6231 67.1519 11.3011C67.4852 11.9792 67.6519 12.7727 67.6519 13.6818C67.6519 14.5833 67.4852 15.3712 67.1519 16.0455C66.8223 16.7197 66.3602 17.2443 65.7655 17.6193C65.1746 17.9943 64.4852 18.1818 63.6973 18.1818ZM63.6973 16.9773C64.2958 16.9773 64.7882 16.8239 65.1746 16.517C65.561 16.2102 65.847 15.8068 66.0326 15.3068C66.2182 14.8068 66.311 14.2652 66.311 13.6818C66.311 13.0985 66.2182 12.5549 66.0326 12.0511C65.847 11.5473 65.561 11.1402 65.1746 10.8295C64.7882 10.5189 64.2958 10.3636 63.6973 10.3636C63.0989 10.3636 62.6064 10.5189 62.2201 10.8295C61.8337 11.1402 61.5477 11.5473 61.3621 12.0511C61.1765 12.5549 61.0837 13.0985 61.0837 13.6818C61.0837 14.2652 61.1765 14.8068 61.3621 15.3068C61.5477 15.8068 61.8337 16.2102 62.2201 16.517C62.6064 16.8239 63.0989 16.9773 63.6973 16.9773ZM70.8397 12.75V18H69.4988V9.27273H70.7942V10.6364H70.9078C71.1124 10.1932 71.423 9.83712 71.8397 9.56818C72.2563 9.29545 72.7942 9.15909 73.4533 9.15909C74.0442 9.15909 74.5613 9.2803 75.0044 9.52273C75.4476 9.76136 75.7923 10.125 76.0385 10.6136C76.2847 11.0985 76.4078 11.7121 76.4078 12.4545V18H75.0669V12.5455C75.0669 11.8598 74.8889 11.3258 74.5328 10.9432C74.1768 10.5568 73.6882 10.3636 73.0669 10.3636C72.6389 10.3636 72.2563 10.4564 71.9192 10.642C71.5859 10.8277 71.3226 11.0985 71.1294 11.4545C70.9363 11.8106 70.8397 12.2424 70.8397 12.75ZM82.3172 18.1818C81.4763 18.1818 80.7509 17.9962 80.1411 17.625C79.535 17.25 79.0672 16.7273 78.7377 16.0568C78.4119 15.3826 78.249 14.5985 78.249 13.7045C78.249 12.8106 78.4119 12.0227 78.7377 11.3409C79.0672 10.6553 79.5256 10.1212 80.1127 9.73864C80.7036 9.35227 81.393 9.15909 82.1809 9.15909C82.6354 9.15909 83.0843 9.23485 83.5275 9.38636C83.9706 9.53788 84.374 9.78409 84.7377 10.125C85.1013 10.4621 85.3911 10.9091 85.607 11.4659C85.8229 12.0227 85.9309 12.7083 85.9309 13.5227V14.0909H79.2036V12.9318H84.5672C84.5672 12.4394 84.4687 12 84.2718 11.6136C84.0786 11.2273 83.8021 10.9223 83.4422 10.6989C83.0862 10.4754 82.6657 10.3636 82.1809 10.3636C81.6468 10.3636 81.1847 10.4962 80.7945 10.7614C80.4081 11.0227 80.1108 11.3636 79.9025 11.7841C79.6941 12.2045 79.59 12.6553 79.59 13.1364V13.9091C79.59 14.5682 79.7036 15.1269 79.9309 15.5852C80.1619 16.0398 80.482 16.3864 80.8911 16.625C81.3002 16.8598 81.7756 16.9773 82.3172 16.9773C82.6695 16.9773 82.9877 16.928 83.2718 16.8295C83.5597 16.7273 83.8078 16.5758 84.0161 16.375C84.2244 16.1705 84.3854 15.9167 84.499 15.6136L85.7945 15.9773C85.6581 16.4167 85.429 16.803 85.107 17.1364C84.785 17.4659 84.3873 17.7235 83.9138 17.9091C83.4403 18.0909 82.9081 18.1818 82.3172 18.1818ZM93.9524 11.2273L92.7479 11.5682C92.6721 11.3674 92.5604 11.1723 92.4127 10.983C92.2687 10.7898 92.0718 10.6307 91.8218 10.5057C91.5718 10.3807 91.2517 10.3182 90.8615 10.3182C90.3274 10.3182 89.8824 10.4413 89.5263 10.6875C89.174 10.9299 88.9979 11.2386 88.9979 11.6136C88.9979 11.947 89.1191 12.2102 89.3615 12.4034C89.604 12.5966 89.9828 12.7576 90.4979 12.8864L91.7934 13.2045C92.5737 13.3939 93.1551 13.6837 93.5377 14.0739C93.9203 14.4602 94.1115 14.9583 94.1115 15.5682C94.1115 16.0682 93.9676 16.5152 93.6797 16.9091C93.3956 17.303 92.9979 17.6136 92.4865 17.8409C91.9752 18.0682 91.3805 18.1818 90.7024 18.1818C89.8123 18.1818 89.0756 17.9886 88.4922 17.6023C87.9089 17.2159 87.5396 16.6515 87.3843 15.9091L88.657 15.5909C88.7782 16.0606 89.0074 16.4129 89.3445 16.6477C89.6854 16.8826 90.1305 17 90.6797 17C91.3047 17 91.8009 16.8674 92.1684 16.6023C92.5396 16.3333 92.7252 16.0114 92.7252 15.6364C92.7252 15.3333 92.6191 15.0795 92.407 14.875C92.1949 14.6667 91.8691 14.5114 91.4297 14.4091L89.9752 14.0682C89.1759 13.8788 88.5888 13.5852 88.2138 13.1875C87.8426 12.786 87.657 12.2841 87.657 11.6818C87.657 11.1894 87.7953 10.7538 88.0718 10.375C88.3521 9.99621 88.7328 9.69886 89.2138 9.48295C89.6987 9.26705 90.2479 9.15909 90.8615 9.15909C91.7252 9.15909 92.4032 9.34848 92.8956 9.72727C93.3918 10.1061 93.7441 10.6061 93.9524 11.2273Z" fill="#1C1C1C"/>
</svg>
