<svg width="113" height="59" viewBox="0 0 113 59" fill="none" xmlns="http://www.w3.org/2000/svg">
<rect x="25" y="31" width="61" height="28" rx="14" fill="#FFE3E3"/>
<path d="M43.8328 44.2628V45.5554H39.3186V44.2628H43.8328ZM45.1839 50V48.8864L48.6292 45.3168C48.9971 44.929 49.3004 44.5893 49.539 44.2976C49.781 44.0026 49.9616 43.7225 50.0809 43.4574C50.2002 43.1922 50.2599 42.9105 50.2599 42.6122C50.2599 42.2741 50.1803 41.9825 50.0213 41.7372C49.8622 41.4886 49.6451 41.2981 49.37 41.1655C49.0949 41.0296 48.785 40.9616 48.4403 40.9616C48.0757 40.9616 47.7575 41.0362 47.4857 41.1854C47.214 41.3345 47.0052 41.545 46.8593 41.8168C46.7135 42.0885 46.6406 42.4067 46.6406 42.7713H45.174C45.174 42.1515 45.3165 41.6096 45.6015 41.1456C45.8865 40.6816 46.2776 40.322 46.7748 40.0668C47.272 39.8082 47.8371 39.679 48.4701 39.679C49.1098 39.679 49.6732 39.8066 50.1605 40.0618C50.651 40.3137 51.0338 40.6584 51.3089 41.0959C51.584 41.5301 51.7215 42.0206 51.7215 42.5675C51.7215 42.9453 51.6503 43.3149 51.5078 43.6761C51.3686 44.0374 51.1249 44.4401 50.7769 44.8842C50.4289 45.325 49.945 45.8603 49.3252 46.4901L47.3018 48.608V48.6825H51.8856V50H45.1839ZM56.9306 50.1392C56.3075 50.1392 55.7474 50.0199 55.2502 49.7812C54.7564 49.5393 54.362 49.2079 54.067 48.7869C53.772 48.366 53.6146 47.8854 53.5947 47.3452H55.0862C55.1226 47.7827 55.3165 48.1423 55.6678 48.424C56.0192 48.7057 56.4401 48.8466 56.9306 48.8466C57.3217 48.8466 57.6681 48.7571 57.9697 48.5781C58.2746 48.3958 58.5133 48.1456 58.6856 47.8274C58.8613 47.5092 58.9491 47.1463 58.9491 46.7386C58.9491 46.3243 58.8596 45.9548 58.6806 45.63C58.5017 45.3052 58.2547 45.05 57.9399 44.8643C57.6283 44.6787 57.2704 44.5843 56.866 44.581C56.5578 44.581 56.2479 44.634 55.9363 44.7401C55.6248 44.8461 55.3729 44.9853 55.1806 45.1577L53.7737 44.9489L54.3454 39.8182H59.9434V41.1357H55.6231L55.2999 43.9844H55.3596C55.5585 43.7921 55.822 43.6314 56.1501 43.5021C56.4815 43.3729 56.8362 43.3082 57.214 43.3082C57.8338 43.3082 58.3856 43.4557 58.8695 43.7507C59.3568 44.0457 59.7396 44.4484 60.018 44.9588C60.2997 45.4659 60.4389 46.0492 60.4356 46.7088C60.4389 47.3684 60.2898 47.9567 59.9882 48.4737C59.6899 48.9908 59.2756 49.3984 58.7453 49.6967C58.2183 49.9917 57.6134 50.1392 56.9306 50.1392ZM67.3661 48.0909V47.554C67.3661 47.1695 67.4456 46.8182 67.6047 46.5C67.7671 46.1785 68.0025 45.9216 68.3107 45.7294C68.6223 45.5339 68.9984 45.4361 69.4393 45.4361C69.89 45.4361 70.2679 45.5322 70.5728 45.7244C70.8777 45.9167 71.1081 46.1735 71.2638 46.495C71.4229 46.8165 71.5025 47.1695 71.5025 47.554V48.0909C71.5025 48.4754 71.4229 48.8284 71.2638 49.1499C71.1047 49.468 70.8711 49.7249 70.5628 49.9205C70.2579 50.1127 69.8834 50.2088 69.4393 50.2088C68.9918 50.2088 68.614 50.1127 68.3057 49.9205C67.9975 49.7249 67.7638 49.468 67.6047 49.1499C67.4456 48.8284 67.3661 48.4754 67.3661 48.0909ZM68.5245 47.554V48.0909C68.5245 48.3759 68.5924 48.6345 68.7283 48.8665C68.8642 49.0985 69.1012 49.2145 69.4393 49.2145C69.774 49.2145 70.0077 49.0985 70.1403 48.8665C70.2728 48.6345 70.3391 48.3759 70.3391 48.0909V47.554C70.3391 47.2689 70.2745 47.0104 70.1452 46.7784C70.0193 46.5464 69.784 46.4304 69.4393 46.4304C69.1078 46.4304 68.8725 46.5464 68.7333 46.7784C68.5941 47.0104 68.5245 47.2689 68.5245 47.554ZM62.2454 42.2642V41.7273C62.2454 41.3428 62.3249 40.9898 62.484 40.6683C62.6464 40.3468 62.8817 40.09 63.19 39.8977C63.5015 39.7055 63.8777 39.6094 64.3185 39.6094C64.7693 39.6094 65.1471 39.7055 65.452 39.8977C65.757 40.09 65.9873 40.3468 66.1431 40.6683C66.2989 40.9898 66.3768 41.3428 66.3768 41.7273V42.2642C66.3768 42.6487 66.2972 43.0017 66.1381 43.3232C65.9823 43.6413 65.7503 43.8982 65.4421 44.0938C65.1372 44.286 64.7626 44.3821 64.3185 44.3821C63.8678 44.3821 63.4883 44.286 63.18 44.0938C62.8751 43.8982 62.6431 43.6413 62.484 43.3232C62.3249 43.0017 62.2454 42.6487 62.2454 42.2642ZM63.4087 41.7273V42.2642C63.4087 42.5492 63.475 42.8078 63.6076 43.0398C63.7435 43.2718 63.9805 43.3878 64.3185 43.3878C64.65 43.3878 64.882 43.2718 65.0145 43.0398C65.1504 42.8078 65.2184 42.5492 65.2184 42.2642V41.7273C65.2184 41.4422 65.1537 41.1837 65.0245 40.9517C64.8952 40.7197 64.6599 40.6037 64.3185 40.6037C63.9871 40.6037 63.7518 40.7197 63.6126 40.9517C63.4767 41.1837 63.4087 41.4422 63.4087 41.7273ZM62.7177 50L69.7177 39.8182H70.9059L63.9059 50H62.7177Z" fill="#EB001B"/>
<path d="M8.46296 9.27273C8.39478 8.69697 8.11827 8.25 7.63342 7.93182C7.14857 7.61364 6.55387 7.45455 5.84933 7.45455C5.33417 7.45455 4.88342 7.53788 4.49705 7.70455C4.11448 7.87121 3.81524 8.10038 3.59933 8.39205C3.3872 8.68371 3.28114 9.01515 3.28114 9.38636C3.28114 9.69697 3.35501 9.96401 3.50274 10.1875C3.65425 10.4072 3.84743 10.5909 4.08228 10.7386C4.31713 10.8826 4.56334 11.0019 4.82092 11.0966C5.07849 11.1875 5.31524 11.2614 5.53114 11.3182L6.71296 11.6364C7.01599 11.7159 7.35311 11.8258 7.72433 11.9659C8.09933 12.1061 8.45728 12.2973 8.79819 12.5398C9.14289 12.7784 9.42698 13.0852 9.65046 13.4602C9.87395 13.8352 9.98569 14.2955 9.98569 14.8409C9.98569 15.4697 9.82092 16.0379 9.49137 16.5455C9.16561 17.053 8.68834 17.4564 8.05955 17.7557C7.43455 18.0549 6.67508 18.2045 5.78114 18.2045C4.94781 18.2045 4.22622 18.0701 3.61637 17.8011C3.01031 17.5322 2.53304 17.1572 2.18455 16.6761C1.83986 16.1951 1.64478 15.6364 1.59933 15H3.05387C3.09175 15.4394 3.23948 15.803 3.49705 16.0909C3.75842 16.375 4.08796 16.5871 4.48569 16.7273C4.88721 16.8636 5.31902 16.9318 5.78114 16.9318C6.31902 16.9318 6.80198 16.8447 7.23001 16.6705C7.65804 16.4924 7.99705 16.2462 8.24705 15.9318C8.49705 15.6136 8.62205 15.2424 8.62205 14.8182C8.62205 14.4318 8.5141 14.1174 8.29819 13.875C8.08228 13.6326 7.79819 13.4356 7.44592 13.2841C7.09364 13.1326 6.71296 13 6.30387 12.8864L4.87205 12.4773C3.96296 12.2159 3.24327 11.8428 2.71296 11.358C2.18266 10.8731 1.91751 10.2386 1.91751 9.45455C1.91751 8.80303 2.09364 8.23485 2.44592 7.75C2.80198 7.26136 3.27925 6.88258 3.87774 6.61364C4.48001 6.34091 5.15236 6.20455 5.89478 6.20455C6.64478 6.20455 7.31145 6.33901 7.89478 6.60795C8.47811 6.87311 8.94024 7.23674 9.28114 7.69886C9.62584 8.16098 9.80766 8.68561 9.8266 9.27273H8.46296ZM11.9206 18V9.27273H13.2161V10.6364H13.3297C13.5115 10.1705 13.8051 9.80871 14.2104 9.55114C14.6157 9.28977 15.1025 9.15909 15.6706 9.15909C16.2464 9.15909 16.7256 9.28977 17.1081 9.55114C17.4945 9.80871 17.7956 10.1705 18.0115 10.6364H18.1025C18.3259 10.1856 18.6612 9.82765 19.1081 9.5625C19.5551 9.29356 20.0911 9.15909 20.7161 9.15909C21.4964 9.15909 22.1346 9.40341 22.6309 9.89205C23.1271 10.3769 23.3752 11.1326 23.3752 12.1591V18H22.0343V12.1591C22.0343 11.5152 21.8581 11.0549 21.5059 10.7784C21.1536 10.5019 20.7388 10.3636 20.2615 10.3636C19.6479 10.3636 19.1725 10.5492 18.8354 10.9205C18.4983 11.2879 18.3297 11.7538 18.3297 12.3182V18H16.9661V12.0227C16.9661 11.5265 16.8051 11.1269 16.4831 10.8239C16.1612 10.517 15.7464 10.3636 15.2388 10.3636C14.8903 10.3636 14.5646 10.4564 14.2615 10.642C13.9623 10.8277 13.7199 11.0852 13.5343 11.4148C13.3525 11.7405 13.2615 12.1174 13.2615 12.5455V18H11.9206ZM28.1951 18.2045C27.642 18.2045 27.1401 18.1004 26.6894 17.892C26.2386 17.6799 25.8807 17.375 25.6155 16.9773C25.3504 16.5758 25.2178 16.0909 25.2178 15.5227C25.2178 15.0227 25.3163 14.6174 25.5132 14.3068C25.7102 13.9924 25.9735 13.7462 26.303 13.5682C26.6326 13.3902 26.9962 13.2576 27.3939 13.1705C27.7954 13.0795 28.1989 13.0076 28.6042 12.9545C29.1345 12.8864 29.5644 12.8352 29.8939 12.8011C30.2273 12.7633 30.4697 12.7008 30.6212 12.6136C30.7765 12.5265 30.8542 12.375 30.8542 12.1591V12.1136C30.8542 11.553 30.7007 11.1174 30.3939 10.8068C30.0909 10.4962 29.6307 10.3409 29.0132 10.3409C28.3731 10.3409 27.8712 10.4811 27.5076 10.7614C27.1439 11.0417 26.8882 11.3409 26.7405 11.6591L25.4678 11.2045C25.6951 10.6742 25.9981 10.2614 26.3769 9.96591C26.7595 9.66667 27.1761 9.45833 27.6269 9.34091C28.0814 9.2197 28.5284 9.15909 28.9678 9.15909C29.2481 9.15909 29.5701 9.19318 29.9337 9.26136C30.3011 9.32576 30.6553 9.46023 30.9962 9.66477C31.3409 9.86932 31.6269 10.178 31.8542 10.5909C32.0814 11.0038 32.1951 11.5568 32.1951 12.25V18H30.8542V16.8182H30.786C30.6951 17.0076 30.5436 17.2102 30.3314 17.4261C30.1193 17.642 29.8371 17.8258 29.4848 17.9773C29.1326 18.1288 28.7026 18.2045 28.1951 18.2045ZM28.3996 17C28.9299 17 29.3769 16.8958 29.7405 16.6875C30.1079 16.4792 30.3845 16.2102 30.5701 15.8807C30.7595 15.5511 30.8542 15.2045 30.8542 14.8409V13.6136C30.7973 13.6818 30.6723 13.7443 30.4792 13.8011C30.2898 13.8542 30.0701 13.9015 29.8201 13.9432C29.5739 13.9811 29.3333 14.0152 29.0985 14.0455C28.8674 14.072 28.6799 14.0947 28.536 14.1136C28.1875 14.1591 27.8617 14.233 27.5587 14.3352C27.2595 14.4337 27.017 14.5833 26.8314 14.7841C26.6496 14.9811 26.5587 15.25 26.5587 15.5909C26.5587 16.0568 26.7311 16.4091 27.0757 16.6477C27.4242 16.8826 27.8655 17 28.3996 17ZM34.4425 18V9.27273H35.738V10.5909H35.8289C35.988 10.1591 36.2758 9.80871 36.6925 9.53977C37.1092 9.27083 37.5789 9.13636 38.1016 9.13636C38.2001 9.13636 38.3232 9.13826 38.4709 9.14205C38.6186 9.14583 38.7304 9.15152 38.8061 9.15909V10.5227C38.7607 10.5114 38.6565 10.4943 38.4936 10.4716C38.3346 10.4451 38.166 10.4318 37.988 10.4318C37.5637 10.4318 37.1849 10.5208 36.8516 10.6989C36.5221 10.8731 36.2607 11.1155 36.0675 11.4261C35.8781 11.733 35.7834 12.0833 35.7834 12.4773V18H34.4425ZM44.538 9.27273V10.4091H40.0152V9.27273H44.538ZM41.3334 7.18182H42.6743V15.5C42.6743 15.8788 42.7293 16.1629 42.8391 16.3523C42.9527 16.5379 43.0967 16.6629 43.2709 16.7273C43.4489 16.7879 43.6364 16.8182 43.8334 16.8182C43.9811 16.8182 44.1024 16.8106 44.1971 16.7955C44.2918 16.7765 44.3675 16.7614 44.4243 16.75L44.6971 17.9545C44.6061 17.9886 44.4793 18.0227 44.3164 18.0568C44.1535 18.0947 43.9471 18.1136 43.6971 18.1136C43.3183 18.1136 42.9471 18.0322 42.5834 17.8693C42.2236 17.7064 41.9243 17.4583 41.6857 17.125C41.4508 16.7917 41.3334 16.3712 41.3334 15.8636V7.18182ZM52.6323 18L49.9732 9.27273H51.3823L53.2686 15.9545H53.3596L55.2232 9.27273H56.655L58.4959 15.9318H58.5868L60.4732 9.27273H61.8823L59.2232 18H57.905L55.9959 11.2955H55.8596L53.9505 18H52.6323ZM66.0232 18.2045C65.4702 18.2045 64.9683 18.1004 64.5175 17.892C64.0667 17.6799 63.7088 17.375 63.4436 16.9773C63.1785 16.5758 63.0459 16.0909 63.0459 15.5227C63.0459 15.0227 63.1444 14.6174 63.3414 14.3068C63.5383 13.9924 63.8016 13.7462 64.1311 13.5682C64.4607 13.3902 64.8243 13.2576 65.2221 13.1705C65.6236 13.0795 66.027 13.0076 66.4323 12.9545C66.9626 12.8864 67.3925 12.8352 67.7221 12.8011C68.0554 12.7633 68.2978 12.7008 68.4493 12.6136C68.6046 12.5265 68.6823 12.375 68.6823 12.1591V12.1136C68.6823 11.553 68.5289 11.1174 68.2221 10.8068C67.919 10.4962 67.4588 10.3409 66.8414 10.3409C66.2012 10.3409 65.6993 10.4811 65.3357 10.7614C64.9721 11.0417 64.7164 11.3409 64.5686 11.6591L63.2959 11.2045C63.5232 10.6742 63.8262 10.2614 64.205 9.96591C64.5876 9.66667 65.0042 9.45833 65.455 9.34091C65.9096 9.2197 66.3565 9.15909 66.7959 9.15909C67.0762 9.15909 67.3982 9.19318 67.7618 9.26136C68.1292 9.32576 68.4834 9.46023 68.8243 9.66477C69.169 9.86932 69.455 10.178 69.6823 10.5909C69.9096 11.0038 70.0232 11.5568 70.0232 12.25V18H68.6823V16.8182H68.6141C68.5232 17.0076 68.3717 17.2102 68.1596 17.4261C67.9474 17.642 67.6652 17.8258 67.313 17.9773C66.9607 18.1288 66.5308 18.2045 66.0232 18.2045ZM66.2277 17C66.758 17 67.205 16.8958 67.5686 16.6875C67.9361 16.4792 68.2126 16.2102 68.3982 15.8807C68.5876 15.5511 68.6823 15.2045 68.6823 14.8409V13.6136C68.6255 13.6818 68.5005 13.7443 68.3073 13.8011C68.1179 13.8542 67.8982 13.9015 67.6482 13.9432C67.402 13.9811 67.1614 14.0152 66.9266 14.0455C66.6955 14.072 66.508 14.0947 66.3641 14.1136C66.0156 14.1591 65.6899 14.233 65.3868 14.3352C65.0876 14.4337 64.8452 14.5833 64.6596 14.7841C64.4777 14.9811 64.3868 15.25 64.3868 15.5909C64.3868 16.0568 64.5592 16.4091 64.9039 16.6477C65.2524 16.8826 65.6936 17 66.2277 17ZM76.0661 9.27273V10.4091H71.5434V9.27273H76.0661ZM72.8615 7.18182H74.2025V15.5C74.2025 15.8788 74.2574 16.1629 74.3672 16.3523C74.4809 16.5379 74.6248 16.6629 74.799 16.7273C74.9771 16.7879 75.1646 16.8182 75.3615 16.8182C75.5093 16.8182 75.6305 16.8106 75.7252 16.7955C75.8199 16.7765 75.8956 16.7614 75.9525 16.75L76.2252 17.9545C76.1343 17.9886 76.0074 18.0227 75.8445 18.0568C75.6816 18.0947 75.4752 18.1136 75.2252 18.1136C74.8464 18.1136 74.4752 18.0322 74.1115 17.8693C73.7517 17.7064 73.4525 17.4583 73.2138 17.125C72.979 16.7917 72.8615 16.3712 72.8615 15.8636V7.18182ZM81.3348 18.1818C80.5166 18.1818 79.8121 17.9886 79.2212 17.6023C78.6303 17.2159 78.1757 16.6837 77.8576 16.0057C77.5394 15.3277 77.3803 14.553 77.3803 13.6818C77.3803 12.7955 77.5432 12.0133 77.8689 11.3352C78.1985 10.6534 78.6568 10.1212 79.2439 9.73864C79.8348 9.35227 80.5242 9.15909 81.3121 9.15909C81.9257 9.15909 82.4788 9.27273 82.9712 9.5C83.4636 9.72727 83.867 10.0455 84.1814 10.4545C84.4958 10.8636 84.6909 11.3409 84.7666 11.8864H83.4257C83.3235 11.4886 83.0962 11.1364 82.7439 10.8295C82.3954 10.5189 81.9257 10.3636 81.3348 10.3636C80.8121 10.3636 80.3538 10.5 79.9598 10.7727C79.5697 11.0417 79.2648 11.4223 79.0451 11.9148C78.8291 12.4034 78.7212 12.9773 78.7212 13.6364C78.7212 14.3106 78.8273 14.8977 79.0394 15.3977C79.2553 15.8977 79.5583 16.286 79.9485 16.5625C80.3424 16.839 80.8045 16.9773 81.3348 16.9773C81.6833 16.9773 81.9996 16.9167 82.2837 16.7955C82.5678 16.6742 82.8083 16.5 83.0053 16.2727C83.2023 16.0455 83.3424 15.7727 83.4257 15.4545H84.7666C84.6909 15.9697 84.5034 16.4337 84.2041 16.8466C83.9087 17.2557 83.5166 17.5814 83.028 17.8239C82.5432 18.0625 81.9788 18.1818 81.3348 18.1818ZM87.8678 12.75V18H86.5269V6.36364H87.8678V10.6364H87.9814C88.186 10.1856 88.4928 9.82765 88.9019 9.5625C89.3148 9.29356 89.864 9.15909 90.5496 9.15909C91.1443 9.15909 91.6651 9.27841 92.1121 9.51705C92.5591 9.75189 92.9057 10.1136 93.1519 10.6023C93.4019 11.0871 93.5269 11.7045 93.5269 12.4545V18H92.186V12.5455C92.186 11.8523 92.006 11.3163 91.6462 10.9375C91.2901 10.5549 90.7958 10.3636 90.1632 10.3636C89.7238 10.3636 89.3299 10.4564 88.9814 10.642C88.6367 10.8277 88.364 11.0985 88.1632 11.4545C87.9663 11.8106 87.8678 12.2424 87.8678 12.75ZM99.4391 18.1818C98.5982 18.1818 97.8728 17.9962 97.263 17.625C96.6569 17.25 96.1891 16.7273 95.8596 16.0568C95.5338 15.3826 95.3709 14.5985 95.3709 13.7045C95.3709 12.8106 95.5338 12.0227 95.8596 11.3409C96.1891 10.6553 96.6474 10.1212 97.2346 9.73864C97.8255 9.35227 98.5149 9.15909 99.3027 9.15909C99.7573 9.15909 100.206 9.23485 100.649 9.38636C101.093 9.53788 101.496 9.78409 101.86 10.125C102.223 10.4621 102.513 10.9091 102.729 11.4659C102.945 12.0227 103.053 12.7083 103.053 13.5227V14.0909H96.3255V12.9318H101.689C101.689 12.4394 101.591 12 101.394 11.6136C101.2 11.2273 100.924 10.9223 100.564 10.6989C100.208 10.4754 99.7876 10.3636 99.3027 10.3636C98.7686 10.3636 98.3065 10.4962 97.9164 10.7614C97.53 11.0227 97.2327 11.3636 97.0243 11.7841C96.816 12.2045 96.7118 12.6553 96.7118 13.1364V13.9091C96.7118 14.5682 96.8255 15.1269 97.0527 15.5852C97.2838 16.0398 97.6039 16.3864 98.013 16.625C98.4221 16.8598 98.8974 16.9773 99.4391 16.9773C99.7914 16.9773 100.11 16.928 100.394 16.8295C100.682 16.7273 100.93 16.5758 101.138 16.375C101.346 16.1705 101.507 15.9167 101.621 15.6136L102.916 15.9773C102.78 16.4167 102.551 16.803 102.229 17.1364C101.907 17.4659 101.509 17.7235 101.036 17.9091C100.562 18.0909 100.03 18.1818 99.4391 18.1818ZM111.074 11.2273L109.87 11.5682C109.794 11.3674 109.682 11.1723 109.535 10.983C109.391 10.7898 109.194 10.6307 108.944 10.5057C108.694 10.3807 108.374 10.3182 107.983 10.3182C107.449 10.3182 107.004 10.4413 106.648 10.6875C106.296 10.9299 106.12 11.2386 106.12 11.6136C106.12 11.947 106.241 12.2102 106.483 12.4034C106.726 12.5966 107.105 12.7576 107.62 12.8864L108.915 13.2045C109.696 13.3939 110.277 13.6837 110.66 14.0739C111.042 14.4602 111.233 14.9583 111.233 15.5682C111.233 16.0682 111.089 16.5152 110.802 16.9091C110.518 17.303 110.12 17.6136 109.608 17.8409C109.097 18.0682 108.502 18.1818 107.824 18.1818C106.934 18.1818 106.197 17.9886 105.614 17.6023C105.031 17.2159 104.661 16.6515 104.506 15.9091L105.779 15.5909C105.9 16.0606 106.129 16.4129 106.466 16.6477C106.807 16.8826 107.252 17 107.802 17C108.427 17 108.923 16.8674 109.29 16.6023C109.661 16.3333 109.847 16.0114 109.847 15.6364C109.847 15.3333 109.741 15.0795 109.529 14.875C109.317 14.6667 108.991 14.5114 108.552 14.4091L107.097 14.0682C106.298 13.8788 105.711 13.5852 105.336 13.1875C104.964 12.786 104.779 12.2841 104.779 11.6818C104.779 11.1894 104.917 10.7538 105.194 10.375C105.474 9.99621 105.855 9.69886 106.336 9.48295C106.821 9.26705 107.37 9.15909 107.983 9.15909C108.847 9.15909 109.525 9.34848 110.018 9.72727C110.514 10.1061 110.866 10.6061 111.074 11.2273Z" fill="#1C1C1C"/>
</svg>
