<svg width="62" height="59" viewBox="0 0 62 59" fill="none" xmlns="http://www.w3.org/2000/svg">
<rect y="31" width="59" height="28" rx="14" fill="#FFE3E3"/>
<path d="M18.6121 44.2628V45.5554H14.0979V44.2628H18.6121ZM24.2363 39.8182V50H22.6951V41.3594H22.6354L20.1993 42.9503V41.4787L22.7398 39.8182H24.2363ZM30.1513 50.1392C29.5282 50.1392 28.9681 50.0199 28.4709 49.7812C27.9771 49.5393 27.5827 49.2079 27.2877 48.7869C26.9927 48.366 26.8353 47.8854 26.8154 47.3452H28.3069C28.3433 47.7827 28.5372 48.1423 28.8885 48.424C29.2399 48.7057 29.6608 48.8466 30.1513 48.8466C30.5424 48.8466 30.8888 48.7571 31.1904 48.5781C31.4953 48.3958 31.734 48.1456 31.9063 47.8274C32.082 47.5092 32.1698 47.1463 32.1698 46.7386C32.1698 46.3243 32.0803 45.9548 31.9013 45.63C31.7224 45.3052 31.4754 45.05 31.1606 44.8643C30.849 44.6787 30.4911 44.5843 30.0867 44.581C29.7785 44.581 29.4686 44.634 29.157 44.7401C28.8455 44.8461 28.5936 44.9853 28.4013 45.1577L26.9944 44.9489L27.5661 39.8182H33.1641V41.1357H28.8438L28.5206 43.9844H28.5803C28.7792 43.7921 29.0427 43.6314 29.3708 43.5021C29.7022 43.3729 30.0569 43.3082 30.4347 43.3082C31.0545 43.3082 31.6064 43.4557 32.0903 43.7507C32.5775 44.0457 32.9603 44.4484 33.2387 44.9588C33.5204 45.4659 33.6596 46.0492 33.6563 46.7088C33.6596 47.3684 33.5105 47.9567 33.2089 48.4737C32.9106 48.9908 32.4963 49.3984 31.966 49.6967C31.439 49.9917 30.8341 50.1392 30.1513 50.1392ZM40.5868 48.0909V47.554C40.5868 47.1695 40.6664 46.8182 40.8254 46.5C40.9878 46.1785 41.2232 45.9216 41.5314 45.7294C41.843 45.5339 42.2191 45.4361 42.66 45.4361C43.1107 45.4361 43.4886 45.5322 43.7935 45.7244C44.0984 45.9167 44.3288 46.1735 44.4845 46.495C44.6436 46.8165 44.7232 47.1695 44.7232 47.554V48.0909C44.7232 48.4754 44.6436 48.8284 44.4845 49.1499C44.3254 49.468 44.0918 49.7249 43.7835 49.9205C43.4786 50.1127 43.1041 50.2088 42.66 50.2088C42.2125 50.2088 41.8347 50.1127 41.5264 49.9205C41.2182 49.7249 40.9845 49.468 40.8254 49.1499C40.6664 48.8284 40.5868 48.4754 40.5868 48.0909ZM41.7452 47.554V48.0909C41.7452 48.3759 41.8131 48.6345 41.949 48.8665C42.0849 49.0985 42.3219 49.2145 42.66 49.2145C42.9947 49.2145 43.2284 49.0985 43.361 48.8665C43.4935 48.6345 43.5598 48.3759 43.5598 48.0909V47.554C43.5598 47.2689 43.4952 47.0104 43.3659 46.7784C43.24 46.5464 43.0047 46.4304 42.66 46.4304C42.3285 46.4304 42.0932 46.5464 41.954 46.7784C41.8148 47.0104 41.7452 47.2689 41.7452 47.554ZM35.4661 42.2642V41.7273C35.4661 41.3428 35.5456 40.9898 35.7047 40.6683C35.8671 40.3468 36.1024 40.09 36.4107 39.8977C36.7222 39.7055 37.0984 39.6094 37.5392 39.6094C37.99 39.6094 38.3678 39.7055 38.6727 39.8977C38.9777 40.09 39.208 40.3468 39.3638 40.6683C39.5196 40.9898 39.5975 41.3428 39.5975 41.7273V42.2642C39.5975 42.6487 39.5179 43.0017 39.3588 43.3232C39.203 43.6413 38.971 43.8982 38.6628 44.0938C38.3579 44.286 37.9834 44.3821 37.5392 44.3821C37.0885 44.3821 36.709 44.286 36.4007 44.0938C36.0958 43.8982 35.8638 43.6413 35.7047 43.3232C35.5456 43.0017 35.4661 42.6487 35.4661 42.2642ZM36.6294 41.7273V42.2642C36.6294 42.5492 36.6957 42.8078 36.8283 43.0398C36.9642 43.2718 37.2012 43.3878 37.5392 43.3878C37.8707 43.3878 38.1027 43.2718 38.2352 43.0398C38.3711 42.8078 38.4391 42.5492 38.4391 42.2642V41.7273C38.4391 41.4422 38.3744 41.1837 38.2452 40.9517C38.1159 40.7197 37.8806 40.6037 37.5392 40.6037C37.2078 40.6037 36.9725 40.7197 36.8333 40.9517C36.6974 41.1837 36.6294 41.4422 36.6294 41.7273ZM35.9384 50L42.9384 39.8182H44.1266L37.1266 50H35.9384Z" fill="#EB001B"/>
<path d="M2.7962 18V6.36364H4.20529V16.75H9.61438V18H2.7962ZM13.9826 18.2045C13.4295 18.2045 12.9276 18.1004 12.4769 17.892C12.0261 17.6799 11.6682 17.375 11.403 16.9773C11.1379 16.5758 11.0053 16.0909 11.0053 15.5227C11.0053 15.0227 11.1038 14.6174 11.3007 14.3068C11.4977 13.9924 11.761 13.7462 12.0905 13.5682C12.4201 13.3902 12.7837 13.2576 13.1814 13.1705C13.5829 13.0795 13.9864 13.0076 14.3917 12.9545C14.922 12.8864 15.3519 12.8352 15.6814 12.8011C16.0148 12.7633 16.2572 12.7008 16.4087 12.6136C16.564 12.5265 16.6417 12.375 16.6417 12.1591V12.1136C16.6417 11.553 16.4882 11.1174 16.1814 10.8068C15.8784 10.4962 15.4182 10.3409 14.8007 10.3409C14.1606 10.3409 13.6587 10.4811 13.2951 10.7614C12.9314 11.0417 12.6757 11.3409 12.528 11.6591L11.2553 11.2045C11.4826 10.6742 11.7856 10.2614 12.1644 9.96591C12.547 9.66667 12.9636 9.45833 13.4144 9.34091C13.8689 9.2197 14.3159 9.15909 14.7553 9.15909C15.0356 9.15909 15.3576 9.19318 15.7212 9.26136C16.0886 9.32576 16.4428 9.46023 16.7837 9.66477C17.1284 9.86932 17.4144 10.178 17.6417 10.5909C17.8689 11.0038 17.9826 11.5568 17.9826 12.25V18H16.6417V16.8182H16.5735C16.4826 17.0076 16.331 17.2102 16.1189 17.4261C15.9068 17.642 15.6246 17.8258 15.2723 17.9773C14.9201 18.1288 14.4901 18.2045 13.9826 18.2045ZM14.1871 17C14.7174 17 15.1644 16.8958 15.528 16.6875C15.8954 16.4792 16.172 16.2102 16.3576 15.8807C16.547 15.5511 16.6417 15.2045 16.6417 14.8409V13.6136C16.5848 13.6818 16.4598 13.7443 16.2667 13.8011C16.0773 13.8542 15.8576 13.9015 15.6076 13.9432C15.3614 13.9811 15.1208 14.0152 14.886 14.0455C14.6549 14.072 14.4674 14.0947 14.3235 14.1136C13.975 14.1591 13.6492 14.233 13.3462 14.3352C13.047 14.4337 12.8045 14.5833 12.6189 14.7841C12.4371 14.9811 12.3462 15.25 12.3462 15.5909C12.3462 16.0568 12.5185 16.4091 12.8632 16.6477C13.2117 16.8826 13.653 17 14.1871 17ZM20.23 21.2727V9.27273H21.5255V10.6591H21.6846C21.783 10.5076 21.9194 10.3144 22.0936 10.0795C22.2717 9.84091 22.5255 9.62879 22.855 9.44318C23.1883 9.25379 23.6391 9.15909 24.2073 9.15909C24.9421 9.15909 25.5899 9.3428 26.1505 9.71023C26.7111 10.0777 27.1486 10.5985 27.463 11.2727C27.7774 11.947 27.9346 12.7424 27.9346 13.6591C27.9346 14.5833 27.7774 15.3845 27.463 16.0625C27.1486 16.7367 26.713 17.2595 26.1561 17.6307C25.5993 17.9981 24.9573 18.1818 24.23 18.1818C23.6694 18.1818 23.2205 18.089 22.8834 17.9034C22.5463 17.714 22.2868 17.5 22.105 17.2614C21.9232 17.0189 21.783 16.8182 21.6846 16.6591H21.5709V21.2727H20.23ZM21.5482 13.6364C21.5482 14.2955 21.6448 14.8769 21.838 15.3807C22.0311 15.8807 22.3133 16.2727 22.6846 16.5568C23.0558 16.8371 23.5103 16.9773 24.0482 16.9773C24.6088 16.9773 25.0766 16.8295 25.4516 16.5341C25.8304 16.2348 26.1145 15.8333 26.3039 15.3295C26.4971 14.822 26.5936 14.2576 26.5936 13.6364C26.5936 13.0227 26.4989 12.4697 26.3096 11.9773C26.1239 11.4811 25.8418 11.089 25.463 10.8011C25.088 10.5095 24.6164 10.3636 24.0482 10.3636C23.5027 10.3636 23.0444 10.5019 22.6732 10.7784C22.302 11.0511 22.0217 11.4337 21.8323 11.9261C21.6429 12.4148 21.5482 12.9848 21.5482 13.6364ZM33.5755 9.27273V10.4091H29.0527V9.27273H33.5755ZM30.3709 7.18182H31.7118V15.5C31.7118 15.8788 31.7667 16.1629 31.8766 16.3523C31.9902 16.5379 32.1342 16.6629 32.3084 16.7273C32.4864 16.7879 32.6739 16.8182 32.8709 16.8182C33.0186 16.8182 33.1399 16.8106 33.2346 16.7955C33.3292 16.7765 33.405 16.7614 33.4618 16.75L33.7346 17.9545C33.6436 17.9886 33.5167 18.0227 33.3539 18.0568C33.191 18.0947 32.9846 18.1136 32.7346 18.1136C32.3558 18.1136 31.9846 18.0322 31.6209 17.8693C31.2611 17.7064 30.9618 17.4583 30.7232 17.125C30.4883 16.7917 30.3709 16.3712 30.3709 15.8636V7.18182ZM38.8442 18.1818C38.0563 18.1818 37.365 17.9943 36.7704 17.6193C36.1794 17.2443 35.7173 16.7197 35.384 16.0455C35.0544 15.3712 34.8897 14.5833 34.8897 13.6818C34.8897 12.7727 35.0544 11.9792 35.384 11.3011C35.7173 10.6231 36.1794 10.0966 36.7704 9.72159C37.365 9.34659 38.0563 9.15909 38.8442 9.15909C39.6321 9.15909 40.3215 9.34659 40.9124 9.72159C41.5071 10.0966 41.9692 10.6231 42.2988 11.3011C42.6321 11.9792 42.7988 12.7727 42.7988 13.6818C42.7988 14.5833 42.6321 15.3712 42.2988 16.0455C41.9692 16.7197 41.5071 17.2443 40.9124 17.6193C40.3215 17.9943 39.6321 18.1818 38.8442 18.1818ZM38.8442 16.9773C39.4427 16.9773 39.9351 16.8239 40.3215 16.517C40.7079 16.2102 40.9938 15.8068 41.1794 15.3068C41.365 14.8068 41.4579 14.2652 41.4579 13.6818C41.4579 13.0985 41.365 12.5549 41.1794 12.0511C40.9938 11.5473 40.7079 11.1402 40.3215 10.8295C39.9351 10.5189 39.4427 10.3636 38.8442 10.3636C38.2457 10.3636 37.7533 10.5189 37.3669 10.8295C36.9806 11.1402 36.6946 11.5473 36.509 12.0511C36.3234 12.5549 36.2306 13.0985 36.2306 13.6818C36.2306 14.2652 36.3234 14.8068 36.509 15.3068C36.6946 15.8068 36.9806 16.2102 37.3669 16.517C37.7533 16.8239 38.2457 16.9773 38.8442 16.9773ZM44.6456 21.2727V9.27273H45.9411V10.6591H46.1002C46.1987 10.5076 46.335 10.3144 46.5093 10.0795C46.6873 9.84091 46.9411 9.62879 47.2706 9.44318C47.604 9.25379 48.0547 9.15909 48.6229 9.15909C49.3578 9.15909 50.0055 9.3428 50.5661 9.71023C51.1267 10.0777 51.5642 10.5985 51.8786 11.2727C52.193 11.947 52.3502 12.7424 52.3502 13.6591C52.3502 14.5833 52.193 15.3845 51.8786 16.0625C51.5642 16.7367 51.1286 17.2595 50.5718 17.6307C50.0149 17.9981 49.3729 18.1818 48.6456 18.1818C48.085 18.1818 47.6362 18.089 47.299 17.9034C46.9619 17.714 46.7024 17.5 46.5206 17.2614C46.3388 17.0189 46.1987 16.8182 46.1002 16.6591H45.9865V21.2727H44.6456ZM45.9638 13.6364C45.9638 14.2955 46.0604 14.8769 46.2536 15.3807C46.4468 15.8807 46.729 16.2727 47.1002 16.5568C47.4714 16.8371 47.9259 16.9773 48.4638 16.9773C49.0244 16.9773 49.4922 16.8295 49.8672 16.5341C50.246 16.2348 50.5301 15.8333 50.7195 15.3295C50.9127 14.822 51.0093 14.2576 51.0093 13.6364C51.0093 13.0227 50.9146 12.4697 50.7252 11.9773C50.5396 11.4811 50.2574 11.089 49.8786 10.8011C49.5036 10.5095 49.032 10.3636 48.4638 10.3636C47.9184 10.3636 47.46 10.5019 47.0888 10.7784C46.7176 11.0511 46.4373 11.4337 46.2479 11.9261C46.0585 12.4148 45.9638 12.9848 45.9638 13.6364ZM60.3775 11.2273L59.1729 11.5682C59.0971 11.3674 58.9854 11.1723 58.8377 10.983C58.6937 10.7898 58.4968 10.6307 58.2468 10.5057C57.9968 10.3807 57.6767 10.3182 57.2865 10.3182C56.7525 10.3182 56.3074 10.4413 55.9513 10.6875C55.599 10.9299 55.4229 11.2386 55.4229 11.6136C55.4229 11.947 55.5441 12.2102 55.7865 12.4034C56.029 12.5966 56.4078 12.7576 56.9229 12.8864L58.2184 13.2045C58.9987 13.3939 59.5801 13.6837 59.9627 14.0739C60.3453 14.4602 60.5365 14.9583 60.5365 15.5682C60.5365 16.0682 60.3926 16.5152 60.1047 16.9091C59.8206 17.303 59.4229 17.6136 58.9115 17.8409C58.4002 18.0682 57.8055 18.1818 57.1275 18.1818C56.2373 18.1818 55.5006 17.9886 54.9172 17.6023C54.3339 17.2159 53.9646 16.6515 53.8093 15.9091L55.082 15.5909C55.2032 16.0606 55.4324 16.4129 55.7695 16.6477C56.1104 16.8826 56.5555 17 57.1047 17C57.7297 17 58.2259 16.8674 58.5934 16.6023C58.9646 16.3333 59.1502 16.0114 59.1502 15.6364C59.1502 15.3333 59.0441 15.0795 58.832 14.875C58.6199 14.6667 58.2941 14.5114 57.8547 14.4091L56.4002 14.0682C55.6009 13.8788 55.0138 13.5852 54.6388 13.1875C54.2676 12.786 54.082 12.2841 54.082 11.6818C54.082 11.1894 54.2203 10.7538 54.4968 10.375C54.7771 9.99621 55.1578 9.69886 55.6388 9.48295C56.1237 9.26705 56.6729 9.15909 57.2865 9.15909C58.1502 9.15909 58.8282 9.34848 59.3206 9.72727C59.8168 10.1061 60.1691 10.6061 60.3775 11.2273Z" fill="#1C1C1C"/>
</svg>
