<svg width="123" height="59" viewBox="0 0 123 59" fill="none" xmlns="http://www.w3.org/2000/svg">
<rect x="30" y="31" width="61" height="28" rx="14" fill="#FFE3E3"/>
<path d="M48.8328 44.2628V45.5554H44.3186V44.2628H48.8328ZM50.1839 50V48.8864L53.6292 45.3168C53.9971 44.929 54.3004 44.5893 54.539 44.2976C54.781 44.0026 54.9616 43.7225 55.0809 43.4574C55.2002 43.1922 55.2599 42.9105 55.2599 42.6122C55.2599 42.2741 55.1803 41.9825 55.0213 41.7372C54.8622 41.4886 54.6451 41.2981 54.37 41.1655C54.0949 41.0296 53.785 40.9616 53.4403 40.9616C53.0757 40.9616 52.7575 41.0362 52.4857 41.1854C52.214 41.3345 52.0052 41.545 51.8593 41.8168C51.7135 42.0885 51.6406 42.4067 51.6406 42.7713H50.174C50.174 42.1515 50.3165 41.6096 50.6015 41.1456C50.8865 40.6816 51.2776 40.322 51.7748 40.0668C52.272 39.8082 52.8371 39.679 53.4701 39.679C54.1098 39.679 54.6732 39.8066 55.1605 40.0618C55.651 40.3137 56.0338 40.6584 56.3089 41.0959C56.584 41.5301 56.7215 42.0206 56.7215 42.5675C56.7215 42.9453 56.6503 43.3149 56.5078 43.6761C56.3686 44.0374 56.1249 44.4401 55.7769 44.8842C55.4289 45.325 54.945 45.8603 54.3252 46.4901L52.3018 48.608V48.6825H56.8856V50H50.1839ZM61.9306 50.1392C61.3075 50.1392 60.7474 50.0199 60.2502 49.7812C59.7564 49.5393 59.362 49.2079 59.067 48.7869C58.772 48.366 58.6146 47.8854 58.5947 47.3452H60.0862C60.1226 47.7827 60.3165 48.1423 60.6678 48.424C61.0192 48.7057 61.4401 48.8466 61.9306 48.8466C62.3217 48.8466 62.6681 48.7571 62.9697 48.5781C63.2746 48.3958 63.5133 48.1456 63.6856 47.8274C63.8613 47.5092 63.9491 47.1463 63.9491 46.7386C63.9491 46.3243 63.8596 45.9548 63.6806 45.63C63.5017 45.3052 63.2547 45.05 62.9399 44.8643C62.6283 44.6787 62.2704 44.5843 61.866 44.581C61.5578 44.581 61.2479 44.634 60.9363 44.7401C60.6248 44.8461 60.3729 44.9853 60.1806 45.1577L58.7737 44.9489L59.3454 39.8182H64.9434V41.1357H60.6231L60.2999 43.9844H60.3596C60.5585 43.7921 60.822 43.6314 61.1501 43.5021C61.4815 43.3729 61.8362 43.3082 62.214 43.3082C62.8338 43.3082 63.3856 43.4557 63.8695 43.7507C64.3568 44.0457 64.7396 44.4484 65.018 44.9588C65.2997 45.4659 65.4389 46.0492 65.4356 46.7088C65.4389 47.3684 65.2898 47.9567 64.9882 48.4737C64.6899 48.9908 64.2756 49.3984 63.7453 49.6967C63.2183 49.9917 62.6134 50.1392 61.9306 50.1392ZM72.3661 48.0909V47.554C72.3661 47.1695 72.4456 46.8182 72.6047 46.5C72.7671 46.1785 73.0025 45.9216 73.3107 45.7294C73.6223 45.5339 73.9984 45.4361 74.4393 45.4361C74.89 45.4361 75.2679 45.5322 75.5728 45.7244C75.8777 45.9167 76.1081 46.1735 76.2638 46.495C76.4229 46.8165 76.5025 47.1695 76.5025 47.554V48.0909C76.5025 48.4754 76.4229 48.8284 76.2638 49.1499C76.1047 49.468 75.8711 49.7249 75.5628 49.9205C75.2579 50.1127 74.8834 50.2088 74.4393 50.2088C73.9918 50.2088 73.614 50.1127 73.3057 49.9205C72.9975 49.7249 72.7638 49.468 72.6047 49.1499C72.4456 48.8284 72.3661 48.4754 72.3661 48.0909ZM73.5245 47.554V48.0909C73.5245 48.3759 73.5924 48.6345 73.7283 48.8665C73.8642 49.0985 74.1012 49.2145 74.4393 49.2145C74.774 49.2145 75.0077 49.0985 75.1403 48.8665C75.2728 48.6345 75.3391 48.3759 75.3391 48.0909V47.554C75.3391 47.2689 75.2745 47.0104 75.1452 46.7784C75.0193 46.5464 74.784 46.4304 74.4393 46.4304C74.1078 46.4304 73.8725 46.5464 73.7333 46.7784C73.5941 47.0104 73.5245 47.2689 73.5245 47.554ZM67.2454 42.2642V41.7273C67.2454 41.3428 67.3249 40.9898 67.484 40.6683C67.6464 40.3468 67.8817 40.09 68.19 39.8977C68.5015 39.7055 68.8777 39.6094 69.3185 39.6094C69.7693 39.6094 70.1471 39.7055 70.452 39.8977C70.757 40.09 70.9873 40.3468 71.1431 40.6683C71.2989 40.9898 71.3768 41.3428 71.3768 41.7273V42.2642C71.3768 42.6487 71.2972 43.0017 71.1381 43.3232C70.9823 43.6413 70.7503 43.8982 70.4421 44.0938C70.1372 44.286 69.7626 44.3821 69.3185 44.3821C68.8678 44.3821 68.4883 44.286 68.18 44.0938C67.8751 43.8982 67.6431 43.6413 67.484 43.3232C67.3249 43.0017 67.2454 42.6487 67.2454 42.2642ZM68.4087 41.7273V42.2642C68.4087 42.5492 68.475 42.8078 68.6076 43.0398C68.7435 43.2718 68.9805 43.3878 69.3185 43.3878C69.65 43.3878 69.882 43.2718 70.0145 43.0398C70.1504 42.8078 70.2184 42.5492 70.2184 42.2642V41.7273C70.2184 41.4422 70.1537 41.1837 70.0245 40.9517C69.8952 40.7197 69.6599 40.6037 69.3185 40.6037C68.9871 40.6037 68.7518 40.7197 68.6126 40.9517C68.4767 41.1837 68.4087 41.4422 68.4087 41.7273ZM67.7177 50L74.7177 39.8182H75.9059L68.9059 50H67.7177Z" fill="#EB001B"/>
<path d="M11.6255 10H10.2164C10.133 9.5947 9.9872 9.23864 9.77887 8.93182C9.57432 8.625 9.32432 8.36742 9.02887 8.15909C8.7372 7.94697 8.41334 7.78788 8.05728 7.68182C7.70122 7.57576 7.33001 7.52273 6.94364 7.52273C6.2391 7.52273 5.60084 7.70076 5.02887 8.05682C4.46069 8.41288 4.00804 8.9375 3.67092 9.63068C3.33758 10.3239 3.17092 11.1742 3.17092 12.1818C3.17092 13.1894 3.33758 14.0398 3.67092 14.733C4.00804 15.4261 4.46069 15.9508 5.02887 16.3068C5.60084 16.6629 6.2391 16.8409 6.94364 16.8409C7.33001 16.8409 7.70122 16.7879 8.05728 16.6818C8.41334 16.5758 8.7372 16.4186 9.02887 16.2102C9.32432 15.9981 9.57432 15.7386 9.77887 15.4318C9.9872 15.1212 10.133 14.7652 10.2164 14.3636H11.6255C11.5194 14.9583 11.3262 15.4905 11.0459 15.9602C10.7656 16.4299 10.4171 16.8295 10.0005 17.1591C9.58379 17.4848 9.11599 17.733 8.59705 17.9034C8.0819 18.0739 7.53076 18.1591 6.94364 18.1591C5.95122 18.1591 5.06864 17.9167 4.29592 17.4318C3.52319 16.947 2.91523 16.2576 2.47205 15.3636C2.02887 14.4697 1.80728 13.4091 1.80728 12.1818C1.80728 10.9545 2.02887 9.89394 2.47205 9C2.91523 8.10606 3.52319 7.41667 4.29592 6.93182C5.06864 6.44697 5.95122 6.20455 6.94364 6.20455C7.53076 6.20455 8.0819 6.28977 8.59705 6.46023C9.11599 6.63068 9.58379 6.88068 10.0005 7.21023C10.4171 7.53598 10.7656 7.93371 11.0459 8.40341C11.3262 8.86932 11.5194 9.40151 11.6255 10ZM16.0888 18.2045C15.5358 18.2045 15.0339 18.1004 14.5831 17.892C14.1324 17.6799 13.7744 17.375 13.5093 16.9773C13.2441 16.5758 13.1115 16.0909 13.1115 15.5227C13.1115 15.0227 13.21 14.6174 13.407 14.3068C13.604 13.9924 13.8672 13.7462 14.1968 13.5682C14.5263 13.3902 14.8899 13.2576 15.2877 13.1705C15.6892 13.0795 16.0926 13.0076 16.4979 12.9545C17.0282 12.8864 17.4581 12.8352 17.7877 12.8011C18.121 12.7633 18.3634 12.7008 18.5149 12.6136C18.6703 12.5265 18.7479 12.375 18.7479 12.1591V12.1136C18.7479 11.553 18.5945 11.1174 18.2877 10.8068C17.9846 10.4962 17.5244 10.3409 16.907 10.3409C16.2668 10.3409 15.7649 10.4811 15.4013 10.7614C15.0377 11.0417 14.782 11.3409 14.6343 11.6591L13.3615 11.2045C13.5888 10.6742 13.8918 10.2614 14.2706 9.96591C14.6532 9.66667 15.0699 9.45833 15.5206 9.34091C15.9752 9.2197 16.4221 9.15909 16.8615 9.15909C17.1418 9.15909 17.4638 9.19318 17.8274 9.26136C18.1949 9.32576 18.549 9.46023 18.8899 9.66477C19.2346 9.86932 19.5206 10.178 19.7479 10.5909C19.9752 11.0038 20.0888 11.5568 20.0888 12.25V18H18.7479V16.8182H18.6797C18.5888 17.0076 18.4373 17.2102 18.2252 17.4261C18.0131 17.642 17.7309 17.8258 17.3786 17.9773C17.0263 18.1288 16.5964 18.2045 16.0888 18.2045ZM16.2934 17C16.8237 17 17.2706 16.8958 17.6343 16.6875C18.0017 16.4792 18.2782 16.2102 18.4638 15.8807C18.6532 15.5511 18.7479 15.2045 18.7479 14.8409V13.6136C18.6911 13.6818 18.5661 13.7443 18.3729 13.8011C18.1835 13.8542 17.9638 13.9015 17.7138 13.9432C17.4676 13.9811 17.2271 14.0152 16.9922 14.0455C16.7612 14.072 16.5737 14.0947 16.4297 14.1136C16.0812 14.1591 15.7555 14.233 15.4524 14.3352C15.1532 14.4337 14.9108 14.5833 14.7252 14.7841C14.5434 14.9811 14.4524 15.25 14.4524 15.5909C14.4524 16.0568 14.6248 16.4091 14.9695 16.6477C15.318 16.8826 15.7593 17 16.2934 17ZM23.6772 12.75V18H22.3363V9.27273H23.6317V10.6364H23.7453C23.9499 10.1932 24.2605 9.83712 24.6772 9.56818C25.0938 9.29545 25.6317 9.15909 26.2908 9.15909C26.8817 9.15909 27.3988 9.2803 27.8419 9.52273C28.2851 9.76136 28.6298 10.125 28.876 10.6136C29.1222 11.0985 29.2453 11.7121 29.2453 12.4545V18H27.9044V12.5455C27.9044 11.8598 27.7264 11.3258 27.3703 10.9432C27.0143 10.5568 26.5257 10.3636 25.9044 10.3636C25.4764 10.3636 25.0938 10.4564 24.7567 10.642C24.4234 10.8277 24.1601 11.0985 23.9669 11.4545C23.7738 11.8106 23.6772 12.2424 23.6772 12.75ZM35.0411 18.1818C34.2532 18.1818 33.5619 17.9943 32.9672 17.6193C32.3763 17.2443 31.9142 16.7197 31.5809 16.0455C31.2513 15.3712 31.0865 14.5833 31.0865 13.6818C31.0865 12.7727 31.2513 11.9792 31.5809 11.3011C31.9142 10.6231 32.3763 10.0966 32.9672 9.72159C33.5619 9.34659 34.2532 9.15909 35.0411 9.15909C35.829 9.15909 36.5184 9.34659 37.1093 9.72159C37.704 10.0966 38.1661 10.6231 38.4956 11.3011C38.829 11.9792 38.9956 12.7727 38.9956 13.6818C38.9956 14.5833 38.829 15.3712 38.4956 16.0455C38.1661 16.7197 37.704 17.2443 37.1093 17.6193C36.5184 17.9943 35.829 18.1818 35.0411 18.1818ZM35.0411 16.9773C35.6396 16.9773 36.132 16.8239 36.5184 16.517C36.9047 16.2102 37.1907 15.8068 37.3763 15.3068C37.5619 14.8068 37.6547 14.2652 37.6547 13.6818C37.6547 13.0985 37.5619 12.5549 37.3763 12.0511C37.1907 11.5473 36.9047 11.1402 36.5184 10.8295C36.132 10.5189 35.6396 10.3636 35.0411 10.3636C34.4426 10.3636 33.9502 10.5189 33.5638 10.8295C33.1774 11.1402 32.8915 11.5473 32.7059 12.0511C32.5203 12.5549 32.4274 13.0985 32.4274 13.6818C32.4274 14.2652 32.5203 14.8068 32.7059 15.3068C32.8915 15.8068 33.1774 16.2102 33.5638 16.517C33.9502 16.8239 34.4426 16.9773 35.0411 16.9773ZM42.1834 12.75V18H40.8425V9.27273H42.138V10.6364H42.2516C42.4561 10.1932 42.7667 9.83712 43.1834 9.56818C43.6001 9.29545 44.138 9.15909 44.7971 9.15909C45.388 9.15909 45.905 9.2803 46.3482 9.52273C46.7914 9.76136 47.1361 10.125 47.3823 10.6136C47.6285 11.0985 47.7516 11.7121 47.7516 12.4545V18H46.4107V12.5455C46.4107 11.8598 46.2327 11.3258 45.8766 10.9432C45.5205 10.5568 45.0319 10.3636 44.4107 10.3636C43.9827 10.3636 43.6001 10.4564 43.263 10.642C42.9296 10.8277 42.6664 11.0985 42.4732 11.4545C42.28 11.8106 42.1834 12.2424 42.1834 12.75ZM57.8473 18.1818C57.0292 18.1818 56.3246 17.9886 55.7337 17.6023C55.1428 17.2159 54.6882 16.6837 54.3701 16.0057C54.0519 15.3277 53.8928 14.553 53.8928 13.6818C53.8928 12.7955 54.0557 12.0133 54.3814 11.3352C54.711 10.6534 55.1693 10.1212 55.7564 9.73864C56.3473 9.35227 57.0367 9.15909 57.8246 9.15909C58.4382 9.15909 58.9913 9.27273 59.4837 9.5C59.9761 9.72727 60.3795 10.0455 60.6939 10.4545C61.0083 10.8636 61.2034 11.3409 61.2792 11.8864H59.9382C59.836 11.4886 59.6087 11.1364 59.2564 10.8295C58.9079 10.5189 58.4382 10.3636 57.8473 10.3636C57.3246 10.3636 56.8663 10.5 56.4723 10.7727C56.0822 11.0417 55.7773 11.4223 55.5576 11.9148C55.3417 12.4034 55.2337 12.9773 55.2337 13.6364C55.2337 14.3106 55.3398 14.8977 55.5519 15.3977C55.7678 15.8977 56.0708 16.286 56.461 16.5625C56.8549 16.839 57.317 16.9773 57.8473 16.9773C58.1958 16.9773 58.5121 16.9167 58.7962 16.7955C59.0803 16.6742 59.3208 16.5 59.5178 16.2727C59.7148 16.0455 59.8549 15.7727 59.9382 15.4545H61.2792C61.2034 15.9697 61.0159 16.4337 60.7167 16.8466C60.4212 17.2557 60.0292 17.5814 59.5405 17.8239C59.0557 18.0625 58.4913 18.1818 57.8473 18.1818ZM65.6076 18.2045C65.0545 18.2045 64.5526 18.1004 64.1019 17.892C63.6511 17.6799 63.2932 17.375 63.028 16.9773C62.7629 16.5758 62.6303 16.0909 62.6303 15.5227C62.6303 15.0227 62.7288 14.6174 62.9257 14.3068C63.1227 13.9924 63.386 13.7462 63.7155 13.5682C64.0451 13.3902 64.4087 13.2576 64.8064 13.1705C65.2079 13.0795 65.6113 13.0076 66.0167 12.9545C66.547 12.8864 66.9769 12.8352 67.3064 12.8011C67.6398 12.7633 67.8822 12.7008 68.0337 12.6136C68.189 12.5265 68.2667 12.375 68.2667 12.1591V12.1136C68.2667 11.553 68.1132 11.1174 67.8064 10.8068C67.5034 10.4962 67.0432 10.3409 66.4257 10.3409C65.7856 10.3409 65.2837 10.4811 64.9201 10.7614C64.5564 11.0417 64.3007 11.3409 64.153 11.6591L62.8803 11.2045C63.1076 10.6742 63.4106 10.2614 63.7894 9.96591C64.172 9.66667 64.5886 9.45833 65.0394 9.34091C65.4939 9.2197 65.9409 9.15909 66.3803 9.15909C66.6606 9.15909 66.9826 9.19318 67.3462 9.26136C67.7136 9.32576 68.0678 9.46023 68.4087 9.66477C68.7534 9.86932 69.0394 10.178 69.2667 10.5909C69.4939 11.0038 69.6076 11.5568 69.6076 12.25V18H68.2667V16.8182H68.1985C68.1076 17.0076 67.956 17.2102 67.7439 17.4261C67.5318 17.642 67.2496 17.8258 66.8973 17.9773C66.5451 18.1288 66.1151 18.2045 65.6076 18.2045ZM65.8121 17C66.3424 17 66.7894 16.8958 67.153 16.6875C67.5204 16.4792 67.797 16.2102 67.9826 15.8807C68.172 15.5511 68.2667 15.2045 68.2667 14.8409V13.6136C68.2098 13.6818 68.0848 13.7443 67.8917 13.8011C67.7023 13.8542 67.4826 13.9015 67.2326 13.9432C66.9863 13.9811 66.7458 14.0152 66.511 14.0455C66.2799 14.072 66.0924 14.0947 65.9485 14.1136C65.6 14.1591 65.2742 14.233 64.9712 14.3352C64.672 14.4337 64.4295 14.5833 64.2439 14.7841C64.0621 14.9811 63.9712 15.25 63.9712 15.5909C63.9712 16.0568 64.1435 16.4091 64.4882 16.6477C64.8367 16.8826 65.278 17 65.8121 17ZM71.855 18V9.27273H73.1505V10.6364H73.2641C73.4459 10.1705 73.7395 9.80871 74.1448 9.55114C74.5501 9.28977 75.0368 9.15909 75.605 9.15909C76.1808 9.15909 76.6599 9.28977 77.0425 9.55114C77.4289 9.80871 77.73 10.1705 77.9459 10.6364H78.0368C78.2603 10.1856 78.5955 9.82765 79.0425 9.5625C79.4895 9.29356 80.0255 9.15909 80.6505 9.15909C81.4308 9.15909 82.069 9.40341 82.5652 9.89205C83.0614 10.3769 83.3096 11.1326 83.3096 12.1591V18H81.9686V12.1591C81.9686 11.5152 81.7925 11.0549 81.4402 10.7784C81.088 10.5019 80.6732 10.3636 80.1959 10.3636C79.5823 10.3636 79.1069 10.5492 78.7698 10.9205C78.4327 11.2879 78.2641 11.7538 78.2641 12.3182V18H76.9005V12.0227C76.9005 11.5265 76.7395 11.1269 76.4175 10.8239C76.0955 10.517 75.6808 10.3636 75.1732 10.3636C74.8247 10.3636 74.4989 10.4564 74.1959 10.642C73.8967 10.8277 73.6542 11.0852 73.4686 11.4148C73.2868 11.7405 73.1959 12.1174 73.1959 12.5455V18H71.855ZM85.5613 18V9.27273H86.8567V10.5909H86.9476C87.1067 10.1591 87.3946 9.80871 87.8113 9.53977C88.2279 9.27083 88.6976 9.13636 89.2203 9.13636C89.3188 9.13636 89.4419 9.13826 89.5897 9.14205C89.7374 9.14583 89.8491 9.15152 89.9249 9.15909V10.5227C89.8794 10.5114 89.7753 10.4943 89.6124 10.4716C89.4533 10.4451 89.2847 10.4318 89.1067 10.4318C88.6825 10.4318 88.3037 10.5208 87.9703 10.6989C87.6408 10.8731 87.3794 11.1155 87.1863 11.4261C86.9969 11.733 86.9022 12.0833 86.9022 12.4773V18H85.5613ZM94.7079 18.1818C93.8669 18.1818 93.1416 17.9962 92.5317 17.625C91.9257 17.25 91.4579 16.7273 91.1283 16.0568C90.8025 15.3826 90.6397 14.5985 90.6397 13.7045C90.6397 12.8106 90.8025 12.0227 91.1283 11.3409C91.4579 10.6553 91.9162 10.1212 92.5033 9.73864C93.0942 9.35227 93.7836 9.15909 94.5715 9.15909C95.026 9.15909 95.4749 9.23485 95.9181 9.38636C96.3613 9.53788 96.7647 9.78409 97.1283 10.125C97.4919 10.4621 97.7817 10.9091 97.9976 11.4659C98.2135 12.0227 98.3215 12.7083 98.3215 13.5227V14.0909H91.5942V12.9318H96.9579C96.9579 12.4394 96.8594 12 96.6624 11.6136C96.4692 11.2273 96.1927 10.9223 95.8329 10.6989C95.4768 10.4754 95.0563 10.3636 94.5715 10.3636C94.0374 10.3636 93.5753 10.4962 93.1851 10.7614C92.7988 11.0227 92.5014 11.3636 92.2931 11.7841C92.0847 12.2045 91.9806 12.6553 91.9806 13.1364V13.9091C91.9806 14.5682 92.0942 15.1269 92.3215 15.5852C92.5525 16.0398 92.8726 16.3864 93.2817 16.625C93.6908 16.8598 94.1662 16.9773 94.7079 16.9773C95.0601 16.9773 95.3783 16.928 95.6624 16.8295C95.9503 16.7273 96.1984 16.5758 96.4067 16.375C96.615 16.1705 96.776 15.9167 96.8897 15.6136L98.1851 15.9773C98.0488 16.4167 97.8196 16.803 97.4976 17.1364C97.1757 17.4659 96.7779 17.7235 96.3044 17.9091C95.831 18.0909 95.2988 18.1818 94.7079 18.1818ZM100.161 18V9.27273H101.457V10.5909H101.548C101.707 10.1591 101.995 9.80871 102.411 9.53977C102.828 9.27083 103.298 9.13636 103.82 9.13636C103.919 9.13636 104.042 9.13826 104.19 9.14205C104.337 9.14583 104.449 9.15152 104.525 9.15909V10.5227C104.479 10.5114 104.375 10.4943 104.212 10.4716C104.053 10.4451 103.885 10.4318 103.707 10.4318C103.282 10.4318 102.904 10.5208 102.57 10.6989C102.241 10.8731 101.979 11.1155 101.786 11.4261C101.597 11.733 101.502 12.0833 101.502 12.4773V18H100.161ZM108.483 18.2045C107.93 18.2045 107.428 18.1004 106.977 17.892C106.526 17.6799 106.168 17.375 105.903 16.9773C105.638 16.5758 105.505 16.0909 105.505 15.5227C105.505 15.0227 105.604 14.6174 105.801 14.3068C105.998 13.9924 106.261 13.7462 106.591 13.5682C106.92 13.3902 107.284 13.2576 107.681 13.1705C108.083 13.0795 108.486 13.0076 108.892 12.9545C109.422 12.8864 109.852 12.8352 110.181 12.8011C110.515 12.7633 110.757 12.7008 110.909 12.6136C111.064 12.5265 111.142 12.375 111.142 12.1591V12.1136C111.142 11.553 110.988 11.1174 110.681 10.8068C110.378 10.4962 109.918 10.3409 109.301 10.3409C108.661 10.3409 108.159 10.4811 107.795 10.7614C107.431 11.0417 107.176 11.3409 107.028 11.6591L105.755 11.2045C105.983 10.6742 106.286 10.2614 106.664 9.96591C107.047 9.66667 107.464 9.45833 107.914 9.34091C108.369 9.2197 108.816 9.15909 109.255 9.15909C109.536 9.15909 109.858 9.19318 110.221 9.26136C110.589 9.32576 110.943 9.46023 111.284 9.66477C111.628 9.86932 111.914 10.178 112.142 10.5909C112.369 11.0038 112.483 11.5568 112.483 12.25V18H111.142V16.8182H111.073C110.983 17.0076 110.831 17.2102 110.619 17.4261C110.407 17.642 110.125 17.8258 109.772 17.9773C109.42 18.1288 108.99 18.2045 108.483 18.2045ZM108.687 17C109.217 17 109.664 16.8958 110.028 16.6875C110.395 16.4792 110.672 16.2102 110.858 15.8807C111.047 15.5511 111.142 15.2045 111.142 14.8409V13.6136C111.085 13.6818 110.96 13.7443 110.767 13.8011C110.577 13.8542 110.358 13.9015 110.108 13.9432C109.861 13.9811 109.621 14.0152 109.386 14.0455C109.155 14.072 108.967 14.0947 108.823 14.1136C108.475 14.1591 108.149 14.233 107.846 14.3352C107.547 14.4337 107.305 14.5833 107.119 14.7841C106.937 14.9811 106.846 15.25 106.846 15.5909C106.846 16.0568 107.019 16.4091 107.363 16.6477C107.712 16.8826 108.153 17 108.687 17ZM120.912 11.2273L119.707 11.5682C119.632 11.3674 119.52 11.1723 119.372 10.983C119.228 10.7898 119.031 10.6307 118.781 10.5057C118.531 10.3807 118.211 10.3182 117.821 10.3182C117.287 10.3182 116.842 10.4413 116.486 10.6875C116.133 10.9299 115.957 11.2386 115.957 11.6136C115.957 11.947 116.078 12.2102 116.321 12.4034C116.563 12.5966 116.942 12.7576 117.457 12.8864L118.753 13.2045C119.533 13.3939 120.114 13.6837 120.497 14.0739C120.88 14.4602 121.071 14.9583 121.071 15.5682C121.071 16.0682 120.927 16.5152 120.639 16.9091C120.355 17.303 119.957 17.6136 119.446 17.8409C118.935 18.0682 118.34 18.1818 117.662 18.1818C116.772 18.1818 116.035 17.9886 115.452 17.6023C114.868 17.2159 114.499 16.6515 114.344 15.9091L115.616 15.5909C115.738 16.0606 115.967 16.4129 116.304 16.6477C116.645 16.8826 117.09 17 117.639 17C118.264 17 118.76 16.8674 119.128 16.6023C119.499 16.3333 119.685 16.0114 119.685 15.6364C119.685 15.3333 119.578 15.0795 119.366 14.875C119.154 14.6667 118.828 14.5114 118.389 14.4091L116.935 14.0682C116.135 13.8788 115.548 13.5852 115.173 13.1875C114.802 12.786 114.616 12.2841 114.616 11.6818C114.616 11.1894 114.755 10.7538 115.031 10.375C115.311 9.99621 115.692 9.69886 116.173 9.48295C116.658 9.26705 117.207 9.15909 117.821 9.15909C118.685 9.15909 119.363 9.34848 119.855 9.72727C120.351 10.1061 120.703 10.6061 120.912 11.2273Z" fill="#1C1C1C"/>
</svg>
