<svg width="232" height="157" viewBox="0 0 232 157" fill="none" xmlns="http://www.w3.org/2000/svg">
<rect x="2" y="10" width="230" height="4" rx="2" fill="#AFD0FF"/>
<rect x="55.75" y="10" width="107.5" height="4" rx="2" fill="#0D6EFD"/>
<g filter="url(#filter0_d_1_752)">
<path fill-rule="evenodd" clip-rule="evenodd" d="M60 22C65.5228 22 70 17.5228 70 12C70 6.47715 65.5228 2 60 2C54.4772 2 50 6.47715 50 12C50 17.5228 54.4772 22 60 22Z" fill="white"/>
<path d="M69.5 12C69.5 17.2467 65.2467 21.5 60 21.5C54.7533 21.5 50.5 17.2467 50.5 12C50.5 6.75329 54.7533 2.5 60 2.5C65.2467 2.5 69.5 6.75329 69.5 12Z" stroke="#AFD0FF"/>
</g>
<g filter="url(#filter1_d_1_752)">
<path fill-rule="evenodd" clip-rule="evenodd" d="M158 22C163.523 22 168 17.5228 168 12C168 6.47715 163.523 2 158 2C152.477 2 148 6.47715 148 12C148 17.5228 152.477 22 158 22Z" fill="white"/>
<path d="M167.5 12C167.5 17.2467 163.247 21.5 158 21.5C152.753 21.5 148.5 17.2467 148.5 12C148.5 6.75329 152.753 2.5 158 2.5C163.247 2.5 167.5 6.75329 167.5 12Z" stroke="#AFD0FF"/>
</g>
<path d="M3.40909 45.3636H5.09091L9.04545 55.0227H9.18182L13.1364 45.3636H14.8182V57H13.5V48.1591H13.3864L9.75 57H8.47727L4.84091 48.1591H4.72727V57H3.40909V45.3636ZM17.4616 57V48.2727H18.8026V57H17.4616ZM18.1435 46.8182C17.8821 46.8182 17.6567 46.7292 17.4673 46.5511C17.2817 46.3731 17.1889 46.1591 17.1889 45.9091C17.1889 45.6591 17.2817 45.4451 17.4673 45.267C17.6567 45.089 17.8821 45 18.1435 45C18.4048 45 18.6283 45.089 18.8139 45.267C19.0033 45.4451 19.098 45.6591 19.098 45.9091C19.098 46.1591 19.0033 46.3731 18.8139 46.5511C18.6283 46.7292 18.4048 46.8182 18.1435 46.8182ZM22.5994 51.75V57H21.2585V48.2727H22.554V49.6364H22.6676C22.8722 49.1932 23.1828 48.8371 23.5994 48.5682C24.0161 48.2955 24.554 48.1591 25.2131 48.1591C25.804 48.1591 26.321 48.2803 26.7642 48.5227C27.2074 48.7614 27.5521 49.125 27.7983 49.6136C28.0445 50.0985 28.1676 50.7121 28.1676 51.4545V57H26.8267V51.5455C26.8267 50.8598 26.6487 50.3258 26.2926 49.9432C25.9366 49.5568 25.4479 49.3636 24.8267 49.3636C24.3987 49.3636 24.0161 49.4564 23.679 49.642C23.3456 49.8277 23.0824 50.0985 22.8892 50.4545C22.696 50.8106 22.5994 51.2424 22.5994 51.75Z" fill="#1C1C1C"/>
<path d="M2.5 72C2.5 68.9624 4.96243 66.5 8 66.5H107C110.038 66.5 112.5 68.9624 112.5 72V100C112.5 103.038 110.038 105.5 107 105.5H8C4.96244 105.5 2.5 103.038 2.5 100V72Z" fill="white" stroke="#DEE2E7"/>
<path d="M17 92.1591C16.1439 92.1591 15.4148 91.9261 14.8125 91.4602C14.2102 90.9905 13.75 90.3106 13.4318 89.4205C13.1136 88.5265 12.9545 87.447 12.9545 86.1818C12.9545 84.9242 13.1136 83.8504 13.4318 82.9602C13.7538 82.0663 14.2159 81.3845 14.8182 80.9148C15.4242 80.4413 16.1515 80.2045 17 80.2045C17.8485 80.2045 18.5739 80.4413 19.1761 80.9148C19.7822 81.3845 20.2443 82.0663 20.5625 82.9602C20.8845 83.8504 21.0455 84.9242 21.0455 86.1818C21.0455 87.447 20.8864 88.5265 20.5682 89.4205C20.25 90.3106 19.7898 90.9905 19.1875 91.4602C18.5852 91.9261 17.8561 92.1591 17 92.1591ZM17 90.9091C17.8485 90.9091 18.5076 90.5 18.9773 89.6818C19.447 88.8636 19.6818 87.697 19.6818 86.1818C19.6818 85.1742 19.5739 84.3163 19.358 83.608C19.1458 82.8996 18.839 82.3598 18.4375 81.9886C18.0398 81.6174 17.5606 81.4318 17 81.4318C16.1591 81.4318 15.5019 81.8466 15.0284 82.6761C14.5549 83.5019 14.3182 84.6705 14.3182 86.1818C14.3182 87.1894 14.4242 88.0455 14.6364 88.75C14.8485 89.4545 15.1534 89.9905 15.5511 90.358C15.9527 90.7254 16.4356 90.9091 17 90.9091Z" fill="#BDC4CD"/>
<path d="M123.409 45.3636H125.091L129.045 55.0227H129.182L133.136 45.3636H134.818V57H133.5V48.1591H133.386L129.75 57H128.477L124.841 48.1591H124.727V57H123.409V45.3636ZM140.03 57.2045C139.477 57.2045 138.975 57.1004 138.524 56.892C138.073 56.6799 137.715 56.375 137.45 55.9773C137.185 55.5758 137.053 55.0909 137.053 54.5227C137.053 54.0227 137.151 53.6174 137.348 53.3068C137.545 52.9924 137.808 52.7462 138.138 52.5682C138.467 52.3902 138.831 52.2576 139.229 52.1705C139.63 52.0795 140.034 52.0076 140.439 51.9545C140.969 51.8864 141.399 51.8352 141.729 51.8011C142.062 51.7633 142.304 51.7008 142.456 51.6136C142.611 51.5265 142.689 51.375 142.689 51.1591V51.1136C142.689 50.553 142.536 50.1174 142.229 49.8068C141.926 49.4962 141.465 49.3409 140.848 49.3409C140.208 49.3409 139.706 49.4811 139.342 49.7614C138.979 50.0417 138.723 50.3409 138.575 50.6591L137.303 50.2045C137.53 49.6742 137.833 49.2614 138.212 48.9659C138.594 48.6667 139.011 48.4583 139.462 48.3409C139.916 48.2197 140.363 48.1591 140.803 48.1591C141.083 48.1591 141.405 48.1932 141.768 48.2614C142.136 48.3258 142.49 48.4602 142.831 48.6648C143.176 48.8693 143.462 49.178 143.689 49.5909C143.916 50.0038 144.03 50.5568 144.03 51.25V57H142.689V55.8182H142.621C142.53 56.0076 142.378 56.2102 142.166 56.4261C141.954 56.642 141.672 56.8258 141.32 56.9773C140.967 57.1288 140.537 57.2045 140.03 57.2045ZM140.234 56C140.765 56 141.212 55.8958 141.575 55.6875C141.943 55.4792 142.219 55.2102 142.405 54.8807C142.594 54.5511 142.689 54.2045 142.689 53.8409V52.6136C142.632 52.6818 142.507 52.7443 142.314 52.8011C142.125 52.8542 141.905 52.9015 141.655 52.9432C141.409 52.9811 141.168 53.0152 140.933 53.0455C140.702 53.072 140.515 53.0947 140.371 53.1136C140.022 53.1591 139.696 53.233 139.393 53.3352C139.094 53.4337 138.852 53.5833 138.666 53.7841C138.484 53.9811 138.393 54.25 138.393 54.5909C138.393 55.0568 138.566 55.4091 138.911 55.6477C139.259 55.8826 139.7 56 140.234 56ZM147.477 48.2727L149.568 51.8409L151.659 48.2727H153.205L150.386 52.6364L153.205 57H151.659L149.568 53.6136L147.477 57H145.932L148.705 52.6364L145.932 48.2727H147.477Z" fill="#1C1C1C"/>
<path d="M122.5 72C122.5 68.9624 124.962 66.5 128 66.5H226C229.038 66.5 231.5 68.9624 231.5 72V100C231.5 103.038 229.038 105.5 226 105.5H128C124.962 105.5 122.5 103.038 122.5 100V72Z" fill="white" stroke="#DEE2E7"/>
<path d="M136.909 80.2045C137.386 80.2083 137.864 80.2992 138.341 80.4773C138.818 80.6553 139.254 80.9508 139.648 81.3636C140.042 81.7727 140.358 82.3314 140.597 83.0398C140.835 83.7481 140.955 84.6364 140.955 85.7045C140.955 86.7386 140.856 87.6572 140.659 88.4602C140.466 89.2595 140.186 89.9337 139.818 90.483C139.455 91.0322 139.011 91.4489 138.489 91.733C137.97 92.017 137.383 92.1591 136.727 92.1591C136.076 92.1591 135.494 92.0303 134.983 91.7727C134.475 91.5114 134.059 91.1496 133.733 90.6875C133.411 90.2216 133.205 89.6818 133.114 89.0682H134.5C134.625 89.6023 134.873 90.0436 135.244 90.392C135.619 90.7367 136.114 90.9091 136.727 90.9091C137.625 90.9091 138.333 90.517 138.852 89.733C139.375 88.9489 139.636 87.8409 139.636 86.4091H139.545C139.333 86.7273 139.081 87.0019 138.79 87.233C138.498 87.464 138.174 87.642 137.818 87.767C137.462 87.892 137.083 87.9545 136.682 87.9545C136.015 87.9545 135.403 87.7898 134.847 87.4602C134.294 87.1269 133.85 86.6705 133.517 86.0909C133.188 85.5076 133.023 84.8409 133.023 84.0909C133.023 83.3788 133.182 82.7273 133.5 82.1364C133.822 81.5417 134.273 81.0682 134.852 80.7159C135.436 80.3636 136.121 80.1932 136.909 80.2045ZM136.909 81.4545C136.432 81.4545 136.002 81.5739 135.619 81.8125C135.241 82.0473 134.939 82.3655 134.716 82.767C134.496 83.1648 134.386 83.6061 134.386 84.0909C134.386 84.5758 134.492 85.017 134.705 85.4148C134.92 85.8087 135.214 86.1231 135.585 86.358C135.96 86.589 136.386 86.7045 136.864 86.7045C137.223 86.7045 137.559 86.6345 137.869 86.4943C138.18 86.3504 138.451 86.1553 138.682 85.9091C138.917 85.6591 139.1 85.3769 139.233 85.0625C139.366 84.7443 139.432 84.4129 139.432 84.0682C139.432 83.6136 139.322 83.1875 139.102 82.7898C138.886 82.392 138.587 82.0701 138.205 81.8239C137.826 81.5777 137.394 81.4545 136.909 81.4545ZM146.893 80.2045C147.371 80.2083 147.848 80.2992 148.325 80.4773C148.803 80.6553 149.238 80.9508 149.632 81.3636C150.026 81.7727 150.342 82.3314 150.581 83.0398C150.82 83.7481 150.939 84.6364 150.939 85.7045C150.939 86.7386 150.84 87.6572 150.643 88.4602C150.45 89.2595 150.17 89.9337 149.803 90.483C149.439 91.0322 148.996 91.4489 148.473 91.733C147.954 92.017 147.367 92.1591 146.712 92.1591C146.06 92.1591 145.479 92.0303 144.967 91.7727C144.46 91.5114 144.043 91.1496 143.717 90.6875C143.395 90.2216 143.189 89.6818 143.098 89.0682H144.484C144.609 89.6023 144.857 90.0436 145.229 90.392C145.604 90.7367 146.098 90.9091 146.712 90.9091C147.609 90.9091 148.318 90.517 148.837 89.733C149.359 88.9489 149.621 87.8409 149.621 86.4091H149.53C149.318 86.7273 149.066 87.0019 148.774 87.233C148.482 87.464 148.159 87.642 147.803 87.767C147.446 87.892 147.068 87.9545 146.666 87.9545C146 87.9545 145.388 87.7898 144.831 87.4602C144.278 87.1269 143.835 86.6705 143.501 86.0909C143.172 85.5076 143.007 84.8409 143.007 84.0909C143.007 83.3788 143.166 82.7273 143.484 82.1364C143.806 81.5417 144.257 81.0682 144.837 80.7159C145.42 80.3636 146.106 80.1932 146.893 80.2045ZM146.893 81.4545C146.416 81.4545 145.986 81.5739 145.604 81.8125C145.225 82.0473 144.924 82.3655 144.7 82.767C144.481 83.1648 144.371 83.6061 144.371 84.0909C144.371 84.5758 144.477 85.017 144.689 85.4148C144.905 85.8087 145.198 86.1231 145.57 86.358C145.945 86.589 146.371 86.7045 146.848 86.7045C147.208 86.7045 147.543 86.6345 147.854 86.4943C148.164 86.3504 148.435 86.1553 148.666 85.9091C148.901 85.6591 149.085 85.3769 149.217 85.0625C149.35 84.7443 149.416 84.4129 149.416 84.0682C149.416 83.6136 149.306 83.1875 149.087 82.7898C148.871 82.392 148.571 82.0701 148.189 81.8239C147.81 81.5777 147.378 81.4545 146.893 81.4545ZM156.878 80.2045C157.355 80.2083 157.832 80.2992 158.31 80.4773C158.787 80.6553 159.223 80.9508 159.616 81.3636C160.01 81.7727 160.327 82.3314 160.565 83.0398C160.804 83.7481 160.923 84.6364 160.923 85.7045C160.923 86.7386 160.825 87.6572 160.628 88.4602C160.435 89.2595 160.154 89.9337 159.787 90.483C159.423 91.0322 158.98 91.4489 158.457 91.733C157.938 92.017 157.351 92.1591 156.696 92.1591C156.045 92.1591 155.463 92.0303 154.952 91.7727C154.444 91.5114 154.027 91.1496 153.702 90.6875C153.38 90.2216 153.173 89.6818 153.082 89.0682H154.469C154.594 89.6023 154.842 90.0436 155.213 90.392C155.588 90.7367 156.082 90.9091 156.696 90.9091C157.594 90.9091 158.302 90.517 158.821 89.733C159.344 88.9489 159.605 87.8409 159.605 86.4091H159.514C159.302 86.7273 159.05 87.0019 158.759 87.233C158.467 87.464 158.143 87.642 157.787 87.767C157.431 87.892 157.052 87.9545 156.651 87.9545C155.984 87.9545 155.372 87.7898 154.815 87.4602C154.262 87.1269 153.819 86.6705 153.486 86.0909C153.156 85.5076 152.991 84.8409 152.991 84.0909C152.991 83.3788 153.151 82.7273 153.469 82.1364C153.791 81.5417 154.241 81.0682 154.821 80.7159C155.404 80.3636 156.09 80.1932 156.878 80.2045ZM156.878 81.4545C156.401 81.4545 155.971 81.5739 155.588 81.8125C155.209 82.0473 154.908 82.3655 154.685 82.767C154.465 83.1648 154.355 83.6061 154.355 84.0909C154.355 84.5758 154.461 85.017 154.673 85.4148C154.889 85.8087 155.183 86.1231 155.554 86.358C155.929 86.589 156.355 86.7045 156.832 86.7045C157.192 86.7045 157.527 86.6345 157.838 86.4943C158.149 86.3504 158.42 86.1553 158.651 85.9091C158.885 85.6591 159.069 85.3769 159.202 85.0625C159.334 84.7443 159.401 84.4129 159.401 84.0682C159.401 83.6136 159.291 83.1875 159.071 82.7898C158.855 82.392 158.556 82.0701 158.173 81.8239C157.795 81.5777 157.363 81.4545 156.878 81.4545ZM166.862 80.2045C167.339 80.2083 167.817 80.2992 168.294 80.4773C168.771 80.6553 169.207 80.9508 169.601 81.3636C169.995 81.7727 170.311 82.3314 170.55 83.0398C170.788 83.7481 170.908 84.6364 170.908 85.7045C170.908 86.7386 170.809 87.6572 170.612 88.4602C170.419 89.2595 170.139 89.9337 169.771 90.483C169.408 91.0322 168.964 91.4489 168.442 91.733C167.923 92.017 167.336 92.1591 166.68 92.1591C166.029 92.1591 165.447 92.0303 164.936 91.7727C164.429 91.5114 164.012 91.1496 163.686 90.6875C163.364 90.2216 163.158 89.6818 163.067 89.0682H164.453C164.578 89.6023 164.826 90.0436 165.197 90.392C165.572 90.7367 166.067 90.9091 166.68 90.9091C167.578 90.9091 168.286 90.517 168.805 89.733C169.328 88.9489 169.589 87.8409 169.589 86.4091H169.499C169.286 86.7273 169.035 87.0019 168.743 87.233C168.451 87.464 168.127 87.642 167.771 87.767C167.415 87.892 167.036 87.9545 166.635 87.9545C165.968 87.9545 165.357 87.7898 164.8 87.4602C164.247 87.1269 163.804 86.6705 163.47 86.0909C163.141 85.5076 162.976 84.8409 162.976 84.0909C162.976 83.3788 163.135 82.7273 163.453 82.1364C163.775 81.5417 164.226 81.0682 164.805 80.7159C165.389 80.3636 166.074 80.1932 166.862 80.2045ZM166.862 81.4545C166.385 81.4545 165.955 81.5739 165.572 81.8125C165.194 82.0473 164.893 82.3655 164.669 82.767C164.449 83.1648 164.339 83.6061 164.339 84.0909C164.339 84.5758 164.446 85.017 164.658 85.4148C164.874 85.8087 165.167 86.1231 165.538 86.358C165.913 86.589 166.339 86.7045 166.817 86.7045C167.177 86.7045 167.512 86.6345 167.822 86.4943C168.133 86.3504 168.404 86.1553 168.635 85.9091C168.87 85.6591 169.054 85.3769 169.186 85.0625C169.319 84.7443 169.385 84.4129 169.385 84.0682C169.385 83.6136 169.275 83.1875 169.055 82.7898C168.839 82.392 168.54 82.0701 168.158 81.8239C167.779 81.5777 167.347 81.4545 166.862 81.4545ZM176.847 80.2045C177.324 80.2083 177.801 80.2992 178.278 80.4773C178.756 80.6553 179.191 80.9508 179.585 81.3636C179.979 81.7727 180.295 82.3314 180.534 83.0398C180.773 83.7481 180.892 84.6364 180.892 85.7045C180.892 86.7386 180.794 87.6572 180.597 88.4602C180.403 89.2595 180.123 89.9337 179.756 90.483C179.392 91.0322 178.949 91.4489 178.426 91.733C177.907 92.017 177.32 92.1591 176.665 92.1591C176.013 92.1591 175.432 92.0303 174.92 91.7727C174.413 91.5114 173.996 91.1496 173.67 90.6875C173.348 90.2216 173.142 89.6818 173.051 89.0682H174.438C174.562 89.6023 174.811 90.0436 175.182 90.392C175.557 90.7367 176.051 90.9091 176.665 90.9091C177.563 90.9091 178.271 90.517 178.79 89.733C179.313 88.9489 179.574 87.8409 179.574 86.4091H179.483C179.271 86.7273 179.019 87.0019 178.727 87.233C178.436 87.464 178.112 87.642 177.756 87.767C177.4 87.892 177.021 87.9545 176.619 87.9545C175.953 87.9545 175.341 87.7898 174.784 87.4602C174.231 87.1269 173.788 86.6705 173.455 86.0909C173.125 85.5076 172.96 84.8409 172.96 84.0909C172.96 83.3788 173.119 82.7273 173.438 82.1364C173.759 81.5417 174.21 81.0682 174.79 80.7159C175.373 80.3636 176.059 80.1932 176.847 80.2045ZM176.847 81.4545C176.369 81.4545 175.939 81.5739 175.557 81.8125C175.178 82.0473 174.877 82.3655 174.653 82.767C174.434 83.1648 174.324 83.6061 174.324 84.0909C174.324 84.5758 174.43 85.017 174.642 85.4148C174.858 85.8087 175.152 86.1231 175.523 86.358C175.898 86.589 176.324 86.7045 176.801 86.7045C177.161 86.7045 177.496 86.6345 177.807 86.4943C178.117 86.3504 178.388 86.1553 178.619 85.9091C178.854 85.6591 179.038 85.3769 179.17 85.0625C179.303 84.7443 179.369 84.4129 179.369 84.0682C179.369 83.6136 179.259 83.1875 179.04 82.7898C178.824 82.392 178.525 82.0701 178.142 81.8239C177.763 81.5777 177.331 81.4545 176.847 81.4545ZM186.831 80.2045C187.308 80.2083 187.786 80.2992 188.263 80.4773C188.74 80.6553 189.176 80.9508 189.57 81.3636C189.964 81.7727 190.28 82.3314 190.518 83.0398C190.757 83.7481 190.876 84.6364 190.876 85.7045C190.876 86.7386 190.778 87.6572 190.581 88.4602C190.388 89.2595 190.107 89.9337 189.74 90.483C189.376 91.0322 188.933 91.4489 188.411 91.733C187.892 92.017 187.304 92.1591 186.649 92.1591C185.998 92.1591 185.416 92.0303 184.905 91.7727C184.397 91.5114 183.981 91.1496 183.655 90.6875C183.333 90.2216 183.126 89.6818 183.036 89.0682H184.422C184.547 89.6023 184.795 90.0436 185.166 90.392C185.541 90.7367 186.036 90.9091 186.649 90.9091C187.547 90.9091 188.255 90.517 188.774 89.733C189.297 88.9489 189.558 87.8409 189.558 86.4091H189.467C189.255 86.7273 189.003 87.0019 188.712 87.233C188.42 87.464 188.096 87.642 187.74 87.767C187.384 87.892 187.005 87.9545 186.604 87.9545C185.937 87.9545 185.325 87.7898 184.768 87.4602C184.215 87.1269 183.772 86.6705 183.439 86.0909C183.109 85.5076 182.945 84.8409 182.945 84.0909C182.945 83.3788 183.104 82.7273 183.422 82.1364C183.744 81.5417 184.195 81.0682 184.774 80.7159C185.357 80.3636 186.043 80.1932 186.831 80.2045ZM186.831 81.4545C186.354 81.4545 185.924 81.5739 185.541 81.8125C185.162 82.0473 184.861 82.3655 184.638 82.767C184.418 83.1648 184.308 83.6061 184.308 84.0909C184.308 84.5758 184.414 85.017 184.626 85.4148C184.842 85.8087 185.136 86.1231 185.507 86.358C185.882 86.589 186.308 86.7045 186.786 86.7045C187.145 86.7045 187.481 86.6345 187.791 86.4943C188.102 86.3504 188.373 86.1553 188.604 85.9091C188.839 85.6591 189.022 85.3769 189.155 85.0625C189.287 84.7443 189.354 84.4129 189.354 84.0682C189.354 83.6136 189.244 83.1875 189.024 82.7898C188.808 82.392 188.509 82.0701 188.126 81.8239C187.748 81.5777 187.316 81.4545 186.831 81.4545Z" fill="#BDC4CD"/>
<g filter="url(#filter2_d_1_752)">
<rect x="2" y="114" width="228" height="40" rx="6" fill="white"/>
<rect x="2.5" y="114.5" width="227" height="39" rx="5.5" stroke="#DEE2E7"/>
<path d="M96.2614 139.5H94.3977L98.5852 127.864H100.614L104.801 139.5H102.938L99.6477 129.977H99.5568L96.2614 139.5ZM96.5739 134.943H102.619V136.42H96.5739V134.943ZM106.345 142.773V130.773H108.004V132.188H108.146C108.245 132.006 108.387 131.795 108.572 131.557C108.758 131.318 109.016 131.11 109.345 130.932C109.675 130.75 110.11 130.659 110.652 130.659C111.357 130.659 111.985 130.837 112.538 131.193C113.091 131.549 113.525 132.062 113.839 132.733C114.158 133.403 114.317 134.21 114.317 135.153C114.317 136.097 114.16 136.905 113.845 137.58C113.531 138.25 113.099 138.767 112.55 139.131C112 139.491 111.374 139.67 110.669 139.67C110.139 139.67 109.705 139.581 109.368 139.403C109.035 139.225 108.773 139.017 108.584 138.778C108.394 138.54 108.249 138.328 108.146 138.142H108.044V142.773H106.345ZM108.01 135.136C108.01 135.75 108.099 136.288 108.277 136.75C108.455 137.212 108.713 137.574 109.05 137.835C109.387 138.093 109.8 138.222 110.288 138.222C110.796 138.222 111.22 138.087 111.561 137.818C111.902 137.545 112.16 137.176 112.334 136.71C112.512 136.244 112.601 135.72 112.601 135.136C112.601 134.561 112.514 134.044 112.339 133.585C112.169 133.127 111.911 132.765 111.567 132.5C111.226 132.235 110.8 132.102 110.288 132.102C109.796 132.102 109.379 132.229 109.038 132.483C108.701 132.737 108.446 133.091 108.271 133.545C108.097 134 108.01 134.53 108.01 135.136ZM116.22 142.773V130.773H117.879V132.188H118.021C118.12 132.006 118.262 131.795 118.447 131.557C118.633 131.318 118.891 131.11 119.22 130.932C119.55 130.75 119.985 130.659 120.527 130.659C121.232 130.659 121.86 130.837 122.413 131.193C122.966 131.549 123.4 132.062 123.714 132.733C124.033 133.403 124.192 134.21 124.192 135.153C124.192 136.097 124.035 136.905 123.72 137.58C123.406 138.25 122.974 138.767 122.425 139.131C121.875 139.491 121.249 139.67 120.544 139.67C120.014 139.67 119.58 139.581 119.243 139.403C118.91 139.225 118.648 139.017 118.459 138.778C118.269 138.54 118.124 138.328 118.021 138.142H117.919V142.773H116.22ZM117.885 135.136C117.885 135.75 117.974 136.288 118.152 136.75C118.33 137.212 118.588 137.574 118.925 137.835C119.262 138.093 119.675 138.222 120.163 138.222C120.671 138.222 121.095 138.087 121.436 137.818C121.777 137.545 122.035 137.176 122.209 136.71C122.387 136.244 122.476 135.72 122.476 135.136C122.476 134.561 122.389 134.044 122.214 133.585C122.044 133.127 121.786 132.765 121.442 132.5C121.101 132.235 120.675 132.102 120.163 132.102C119.671 132.102 119.254 132.229 118.913 132.483C118.576 132.737 118.321 133.091 118.146 133.545C117.972 134 117.885 134.53 117.885 135.136ZM127.794 127.864V139.5H126.095V127.864H127.794ZM131.153 142.773C130.9 142.773 130.669 142.752 130.46 142.71C130.252 142.672 130.097 142.631 129.994 142.585L130.403 141.193C130.714 141.277 130.991 141.313 131.233 141.301C131.475 141.29 131.689 141.199 131.875 141.028C132.064 140.858 132.231 140.58 132.375 140.193L132.585 139.614L129.392 130.773H131.21L133.42 137.545H133.511L135.722 130.773H137.545L133.949 140.665C133.782 141.119 133.57 141.504 133.312 141.818C133.055 142.136 132.748 142.375 132.392 142.534C132.036 142.693 131.623 142.773 131.153 142.773Z" fill="#0D6EFD"/>
</g>
<defs>
<filter id="filter0_d_1_752" x="46" y="0" width="28" height="28" filterUnits="userSpaceOnUse" color-interpolation-filters="sRGB">
<feFlood flood-opacity="0" result="BackgroundImageFix"/>
<feColorMatrix in="SourceAlpha" type="matrix" values="0 0 0 0 0 0 0 0 0 0 0 0 0 0 0 0 0 0 127 0" result="hardAlpha"/>
<feOffset dy="2"/>
<feGaussianBlur stdDeviation="2"/>
<feColorMatrix type="matrix" values="0 0 0 0 0.0627451 0 0 0 0 0 0 0 0 0 0 0 0 0 0.1 0"/>
<feBlend mode="normal" in2="BackgroundImageFix" result="effect1_dropShadow_1_752"/>
<feBlend mode="normal" in="SourceGraphic" in2="effect1_dropShadow_1_752" result="shape"/>
</filter>
<filter id="filter1_d_1_752" x="144" y="0" width="28" height="28" filterUnits="userSpaceOnUse" color-interpolation-filters="sRGB">
<feFlood flood-opacity="0" result="BackgroundImageFix"/>
<feColorMatrix in="SourceAlpha" type="matrix" values="0 0 0 0 0 0 0 0 0 0 0 0 0 0 0 0 0 0 127 0" result="hardAlpha"/>
<feOffset dy="2"/>
<feGaussianBlur stdDeviation="2"/>
<feColorMatrix type="matrix" values="0 0 0 0 0.0627451 0 0 0 0 0 0 0 0 0 0 0 0 0 0.1 0"/>
<feBlend mode="normal" in2="BackgroundImageFix" result="effect1_dropShadow_1_752"/>
<feBlend mode="normal" in="SourceGraphic" in2="effect1_dropShadow_1_752" result="shape"/>
</filter>
<filter id="filter2_d_1_752" x="0" y="113" width="232" height="44" filterUnits="userSpaceOnUse" color-interpolation-filters="sRGB">
<feFlood flood-opacity="0" result="BackgroundImageFix"/>
<feColorMatrix in="SourceAlpha" type="matrix" values="0 0 0 0 0 0 0 0 0 0 0 0 0 0 0 0 0 0 127 0" result="hardAlpha"/>
<feOffset dy="1"/>
<feGaussianBlur stdDeviation="1"/>
<feColorMatrix type="matrix" values="0 0 0 0 0.220833 0 0 0 0 0.220833 0 0 0 0 0.220833 0 0 0 0.08 0"/>
<feBlend mode="normal" in2="BackgroundImageFix" result="effect1_dropShadow_1_752"/>
<feBlend mode="normal" in="SourceGraphic" in2="effect1_dropShadow_1_752" result="shape"/>
</filter>
</defs>
</svg>
